<svg width="393" height="573" viewBox="0 0 393 573" fill="none" xmlns="http://www.w3.org/2000/svg">
<path d="M244 0H393V122H257L244 111.5V0Z" fill="#D755E0" fill-opacity="0.7"/>
<path d="M281.5 68.5V150.5H173.5V79.1924L183.221 68.5H281.5Z" fill="#D755E0" fill-opacity="0.5" stroke="#D755E0"/>
<mask id="path-3-outside-1_1646_4162" maskUnits="userSpaceOnUse" x="329" y="123.495" width="37" height="23" fill="black">
<rect fill="white" x="329" y="123.495" width="37" height="23"/>
<path d="M347.739 124.996L364.478 141.733L361.884 144.327L347.907 130.351L333.761 144.495L331 141.733L347.739 124.996Z"/>
</mask>
<path d="M347.739 124.996L364.478 141.733L361.884 144.327L347.907 130.351L333.761 144.495L331 141.733L347.739 124.996Z" fill="#F6F8FF"/>
<path d="M347.739 124.996L348.446 124.289L347.739 123.582L347.032 124.289L347.739 124.996ZM364.478 141.733L365.185 142.441L365.893 141.733L365.186 141.026L364.478 141.733ZM361.884 144.327L361.177 145.034L361.884 145.741L362.591 145.034L361.884 144.327ZM347.907 130.351L348.614 129.643L347.907 128.936L347.2 129.643L347.907 130.351ZM333.761 144.495L333.053 145.202L333.761 145.909L334.468 145.202L333.761 144.495ZM331 141.733L330.293 141.026L329.586 141.733L330.293 142.44L331 141.733ZM347.739 124.996L347.032 125.703L363.771 142.441L364.478 141.733L365.186 141.026L348.446 124.289L347.739 124.996ZM364.478 141.733L363.772 141.026L361.177 143.62L361.884 144.327L362.591 145.034L365.185 142.441L364.478 141.733ZM361.884 144.327L362.591 143.62L348.614 129.643L347.907 130.351L347.2 131.058L361.177 145.034L361.884 144.327ZM347.907 130.351L347.2 129.643L333.054 143.788L333.761 144.495L334.468 145.202L348.614 131.058L347.907 130.351ZM333.761 144.495L334.468 143.788L331.707 141.026L331 141.733L330.293 142.44L333.053 145.202L333.761 144.495ZM331 141.733L331.707 142.441L348.446 125.703L347.739 124.996L347.032 124.289L330.293 141.026L331 141.733Z" fill="#F6F8FF" mask="url(#path-3-outside-1_1646_4162)"/>
<mask id="path-5-outside-2_1646_4162" maskUnits="userSpaceOnUse" x="329" y="97.9961" width="37" height="23" fill="black">
<rect fill="white" x="329" y="97.9961" width="37" height="23"/>
<path d="M347.739 99.4971L364.478 116.234L361.884 118.828L347.907 104.852L333.761 118.996L331 116.234L347.739 99.4971Z"/>
</mask>
<path d="M347.739 99.4971L364.478 116.234L361.884 118.828L347.907 104.852L333.761 118.996L331 116.234L347.739 99.4971Z" fill="#F6F8FF" fill-opacity="0.5"/>
<path d="M347.739 99.4971L348.446 98.7899L347.739 98.0829L347.032 98.7899L347.739 99.4971ZM364.478 116.234L365.185 116.942L365.893 116.234L365.186 115.527L364.478 116.234ZM361.884 118.828L361.177 119.535L361.884 120.242L362.591 119.535L361.884 118.828ZM347.907 104.852L348.614 104.144L347.907 103.437L347.2 104.144L347.907 104.852ZM333.761 118.996L333.053 119.703L333.761 120.41L334.468 119.703L333.761 118.996ZM331 116.234L330.293 115.527L329.586 116.234L330.293 116.941L331 116.234ZM347.739 99.4971L347.032 100.204L363.771 116.942L364.478 116.234L365.186 115.527L348.446 98.7899L347.739 99.4971ZM364.478 116.234L363.772 115.527L361.177 118.121L361.884 118.828L362.591 119.535L365.185 116.942L364.478 116.234ZM361.884 118.828L362.591 118.121L348.614 104.144L347.907 104.852L347.2 105.559L361.177 119.535L361.884 118.828ZM347.907 104.852L347.2 104.144L333.054 118.289L333.761 118.996L334.468 119.703L348.614 105.559L347.907 104.852ZM333.761 118.996L334.468 118.289L331.707 115.527L331 116.234L330.293 116.941L333.053 119.703L333.761 118.996ZM331 116.234L331.707 116.942L348.446 100.204L347.739 99.4971L347.032 98.7899L330.293 115.527L331 116.234Z" fill="#F6F8FF" fill-opacity="0.5" mask="url(#path-5-outside-2_1646_4162)"/>
<mask id="path-7-outside-3_1646_4162" maskUnits="userSpaceOnUse" x="329" y="72.4971" width="37" height="23" fill="black">
<rect fill="white" x="329" y="72.4971" width="37" height="23"/>
<path d="M347.739 73.998L364.478 90.7354L361.884 93.3291L347.907 79.3525L333.761 93.4971L331 90.7354L347.739 73.998Z"/>
</mask>
<path d="M347.739 73.998L364.478 90.7354L361.884 93.3291L347.907 79.3525L333.761 93.4971L331 90.7354L347.739 73.998Z" fill="#F6F8FF" fill-opacity="0.5"/>
<path d="M347.739 73.998L348.446 73.2909L347.739 72.5839L347.032 73.2909L347.739 73.998ZM364.478 90.7354L365.185 91.4426L365.893 90.7354L365.186 90.0282L364.478 90.7354ZM361.884 93.3291L361.177 94.0362L361.884 94.7432L362.591 94.0363L361.884 93.3291ZM347.907 79.3525L348.614 78.6454L347.907 77.9384L347.2 78.6454L347.907 79.3525ZM333.761 93.4971L333.053 94.2041L333.761 94.9114L334.468 94.2042L333.761 93.4971ZM331 90.7354L330.293 90.0282L329.586 90.7352L330.293 91.4423L331 90.7354ZM347.739 73.998L347.032 74.7052L363.771 91.4425L364.478 90.7354L365.186 90.0282L348.446 73.2909L347.739 73.998ZM364.478 90.7354L363.772 90.0281L361.177 92.6219L361.884 93.3291L362.591 94.0363L365.185 91.4426L364.478 90.7354ZM361.884 93.3291L362.591 92.622L348.614 78.6454L347.907 79.3525L347.2 80.0596L361.177 94.0362L361.884 93.3291ZM347.907 79.3525L347.2 78.6454L333.054 92.7899L333.761 93.4971L334.468 94.2042L348.614 80.0597L347.907 79.3525ZM333.761 93.4971L334.468 92.7901L331.707 90.0284L331 90.7354L330.293 91.4423L333.053 94.2041L333.761 93.4971ZM331 90.7354L331.707 91.4425L348.446 74.7052L347.739 73.998L347.032 73.2909L330.293 90.0282L331 90.7354Z" fill="#F6F8FF" fill-opacity="0.5" mask="url(#path-7-outside-3_1646_4162)"/>
<mask id="path-9-outside-4_1646_4162" maskUnits="userSpaceOnUse" x="329" y="46.998" width="37" height="23" fill="black">
<rect fill="white" x="329" y="46.998" width="37" height="23"/>
<path d="M347.739 48.499L364.478 65.2363L361.884 67.8301L347.907 53.8535L333.761 67.998L331 65.2363L347.739 48.499Z"/>
</mask>
<path d="M347.739 48.499L364.478 65.2363L361.884 67.8301L347.907 53.8535L333.761 67.998L331 65.2363L347.739 48.499Z" fill="#F6F8FF" fill-opacity="0.5"/>
<path d="M347.739 48.499L348.446 47.7919L347.739 47.0849L347.032 47.7919L347.739 48.499ZM364.478 65.2363L365.185 65.9436L365.893 65.2364L365.186 64.5292L364.478 65.2363ZM361.884 67.8301L361.177 68.5372L361.884 69.2442L362.591 68.5373L361.884 67.8301ZM347.907 53.8535L348.614 53.1464L347.907 52.4394L347.2 53.1464L347.907 53.8535ZM333.761 67.998L333.053 68.705L333.761 69.4123L334.468 68.7052L333.761 67.998ZM331 65.2363L330.293 64.5292L329.586 65.2362L330.293 65.9433L331 65.2363ZM347.739 48.499L347.032 49.2062L363.771 65.9435L364.478 65.2363L365.186 64.5292L348.446 47.7919L347.739 48.499ZM364.478 65.2363L363.772 64.5291L361.177 67.1228L361.884 67.8301L362.591 68.5373L365.185 65.9436L364.478 65.2363ZM361.884 67.8301L362.591 67.123L348.614 53.1464L347.907 53.8535L347.2 54.5606L361.177 68.5372L361.884 67.8301ZM347.907 53.8535L347.2 53.1464L333.054 67.2909L333.761 67.998L334.468 68.7052L348.614 54.5607L347.907 53.8535ZM333.761 67.998L334.468 67.2911L331.707 64.5293L331 65.2363L330.293 65.9433L333.053 68.705L333.761 67.998ZM331 65.2363L331.707 65.9435L348.446 49.2062L347.739 48.499L347.032 47.7919L330.293 64.5292L331 65.2363Z" fill="#F6F8FF" fill-opacity="0.5" mask="url(#path-9-outside-4_1646_4162)"/>
<mask id="path-11-outside-5_1646_4162" maskUnits="userSpaceOnUse" x="329" y="21.499" width="37" height="23" fill="black">
<rect fill="white" x="329" y="21.499" width="37" height="23"/>
<path d="M347.739 23L364.478 39.7373L361.884 42.3311L347.907 28.3545L333.761 42.499L331 39.7373L347.739 23Z"/>
</mask>
<path d="M347.739 23L364.478 39.7373L361.884 42.3311L347.907 28.3545L333.761 42.499L331 39.7373L347.739 23Z" fill="#F6F8FF" fill-opacity="0.5"/>
<path d="M347.739 23L348.446 22.2929L347.739 21.5859L347.032 22.2929L347.739 23ZM364.478 39.7373L365.185 40.4445L365.893 39.7374L365.186 39.0302L364.478 39.7373ZM361.884 42.3311L361.177 43.0382L361.884 43.7451L362.591 43.0383L361.884 42.3311ZM347.907 28.3545L348.614 27.6474L347.907 26.9403L347.2 27.6473L347.907 28.3545ZM333.761 42.499L333.053 43.206L333.761 43.9133L334.468 43.2062L333.761 42.499ZM331 39.7373L330.293 39.0302L329.586 39.7371L330.293 40.4443L331 39.7373ZM347.739 23L347.032 23.7071L363.771 40.4445L364.478 39.7373L365.186 39.0302L348.446 22.2929L347.739 23ZM364.478 39.7373L363.772 39.0301L361.177 41.6238L361.884 42.3311L362.591 43.0383L365.185 40.4445L364.478 39.7373ZM361.884 42.3311L362.591 41.6239L348.614 27.6474L347.907 28.3545L347.2 29.0616L361.177 43.0382L361.884 42.3311ZM347.907 28.3545L347.2 27.6473L333.054 41.7919L333.761 42.499L334.468 43.2062L348.614 29.0616L347.907 28.3545ZM333.761 42.499L334.468 41.792L331.707 39.0303L331 39.7373L330.293 40.4443L333.053 43.206L333.761 42.499ZM331 39.7373L331.707 40.4445L348.446 23.7071L347.739 23L347.032 22.2929L330.293 39.0302L331 39.7373Z" fill="#F6F8FF" fill-opacity="0.5" mask="url(#path-11-outside-5_1646_4162)"/>
<path d="M86.1716 474.528L6.21743 477.32L43.776 406.68L86.1716 474.528Z" stroke="#D755E0" stroke-opacity="0.7" stroke-width="2"/>
<path d="M56.1549 535.949L-14.8994 511.483L41.8164 462.18L56.1549 535.949Z" stroke="#D755E0" stroke-opacity="0.7" stroke-width="2"/>
<path d="M86.4556 509.647L77.006 563.238L35.3189 528.259L86.4556 509.647Z" stroke="#D755E0" stroke-opacity="0.7" stroke-width="2"/>
</svg>
