<svg width="198" height="215" viewBox="0 0 198 215" fill="none" xmlns="http://www.w3.org/2000/svg">
<path d="M84.9637 3.1333C86.5625 9.40949 66.5182 50.0596 67.3461 70.0895C68.0843 87.9505 84.975 94.8584 84.975 94.8584C84.975 94.8584 67.1005 82.0669 52.6181 82.4903C32.995 83.0639 -1.76387 108.058 1.74674 107.95C5.25735 107.842 26.3328 144.101 49.5179 141.62C64.1689 140.052 82.6472 121.976 82.6472 121.976C82.6472 121.976 64.2269 133.516 58.9047 149.764C51.8927 171.171 64.5209 218.111 66.1254 213.143C67.7298 208.175 103.832 201.836 114.718 182.131C123.366 166.476 118.677 139.492 119.994 136.639C119.994 136.639 117.516 164.82 136.705 177.239C155.177 189.193 195.197 182.467 196.655 184.179C198.114 185.891 192.157 147.923 179.183 130.251C167.78 114.717 148.036 111.53 148.036 111.53C196.974 114.593 202.191 55.7492 199.745 56.1764C197.298 56.6037 171.378 44.7299 154.242 50.5483C139.359 55.6015 125.968 79.5298 125.968 79.5298C125.968 79.5298 140.743 60.8935 132.972 44.5258C124.419 26.5073 84.9637 3.1333 84.9637 3.1333Z" stroke="#D755E0" stroke-opacity="0.7" stroke-width="3"/>
</svg>
