<svg width="40" height="40" viewBox="0 0 40 40" fill="none" xmlns="http://www.w3.org/2000/svg">
<mask id="mask0_301_1019" style="mask-type:luminance" maskUnits="userSpaceOnUse" x="0" y="-1" width="41" height="41">
<path d="M40.0002 -0.000244141H0V40H40.0002V-0.000244141Z" fill="white"/>
</mask>
<g mask="url(#mask0_301_1019)">
<mask id="mask1_301_1019" style="mask-type:luminance" maskUnits="userSpaceOnUse" x="0" y="0" width="41" height="41">
<path d="M40.0002 0.032959H0V40.0332H40.0002V0.032959Z" fill="white"/>
</mask>
<g mask="url(#mask1_301_1019)">
<path fill-rule="evenodd" clip-rule="evenodd" d="M10.0533 13.4176L10.9296 16.7263L9.38535 15.7985L8.1377 12.4087L10.0533 13.4176Z" fill="#001DA5" stroke="#001DA5" stroke-width="0.211448" stroke-miterlimit="1.5" stroke-linecap="square"/>
<path fill-rule="evenodd" clip-rule="evenodd" d="M15.8517 16.085L15.5382 17.4036L14.8972 16.6386L14.9726 15.3734L15.8517 16.085Z" fill="#001DA5" stroke="#001DA5" stroke-width="0.211448" stroke-miterlimit="1.5" stroke-linecap="square"/>
<path fill-rule="evenodd" clip-rule="evenodd" d="M20.7507 15.5432L19.5538 16.4187L19.3696 15.4781L20.2774 14.5197L20.7507 15.5432Z" fill="#001DA5" stroke="#001DA5" stroke-width="0.209245" stroke-miterlimit="1.5" stroke-linecap="square"/>
<path fill-rule="evenodd" clip-rule="evenodd" d="M23.5692 16.1859L22.8484 17.2989L23.7957 17.2844L24.6322 16.3894L23.5692 16.1859Z" fill="#001DA5" stroke="#001DA5" stroke-width="0.211751" stroke-miterlimit="1.5" stroke-linecap="square"/>
<path fill-rule="evenodd" clip-rule="evenodd" d="M27.6589 25.582L29.2543 26.7878L26.8988 27.8534L25.8577 26.5176L27.6589 25.582Z" fill="#001DA5" stroke="#001DA5" stroke-width="0.211632" stroke-miterlimit="1.5" stroke-linecap="square"/>
<path fill-rule="evenodd" clip-rule="evenodd" d="M20.7762 27.7039L21.0887 30.2466L19.7771 29.3466L19.4719 27.3286L20.7762 27.7039Z" fill="#001DA5" stroke="#001DA5" stroke-width="0.282333" stroke-miterlimit="1.5" stroke-linecap="square"/>
<path fill-rule="evenodd" clip-rule="evenodd" d="M9.19531 24.0027L10.698 23.3247L10.709 26.5724L9.19531 24.0027Z" fill="#001DA5" stroke="#001DA5" stroke-width="0.208741" stroke-miterlimit="1.5" stroke-linecap="square"/>
<path fill-rule="evenodd" clip-rule="evenodd" d="M19.0543 8.96289L19.8063 10.3209L16.0509 14.7866L18.0472 19.1349L17.7936 19.2671L15.595 15.0347L19.0543 8.96289Z" fill="#001DA5" stroke="#001DA5" stroke-width="0.211557" stroke-miterlimit="1.5" stroke-linecap="square"/>
<path fill-rule="evenodd" clip-rule="evenodd" d="M32.4503 16.8168L28.4716 17.1825L28.7796 18.2418L26.5713 19.953L22.342 19.0539L22.4829 19.3597L26.5457 20.4226L28.9542 18.4389L32.4503 16.8168Z" fill="#001DA5" stroke="#001DA5" stroke-width="0.202766" stroke-miterlimit="1.5" stroke-linecap="square"/>
<path fill-rule="evenodd" clip-rule="evenodd" d="M22.3611 8.25689L21.1293 7.83389L20.0774 9.04552L20.8998 10.4367C20.8998 10.4367 16.7196 15.414 16.6931 15.3207C16.6228 15.0734 20.4671 10.4193 20.4671 10.4193L19.643 9.05778L21.0743 7.62158L22.3611 8.25689Z" fill="#001DA5" stroke="#001DA5" stroke-width="0.211557" stroke-miterlimit="1.5" stroke-linecap="square"/>
<path d="M19.5928 21.7383L21.7258 22.2071L23.165 24.7496" stroke="#001DA5" stroke-width="0.282333" stroke-miterlimit="1.5" stroke-linecap="square"/>
<path d="M10.9055 11.6606L12.242 12.3658" stroke="#001DA5" stroke-width="0.287948" stroke-miterlimit="1.5" stroke-linecap="square"/>
<path d="M22.1418 12.2026L22.567 13.0436" stroke="#001DA5" stroke-width="0.373153" stroke-miterlimit="1.5" stroke-linecap="square"/>
<path d="M28.0691 22.7474L28.9675 24.3348" stroke="#001DA5" stroke-width="0.265025" stroke-miterlimit="1.5" stroke-linecap="square"/>
<path d="M18.2288 13.5198L18.8747 14.7975" stroke="#001DA5" stroke-width="0.295668" stroke-miterlimit="1.5" stroke-linecap="square"/>
<path d="M22.3813 10.6591L23.6706 13.2094" stroke="#001DA5" stroke-width="0.228589" stroke-miterlimit="1.5" stroke-linecap="square"/>
<path d="M17.418 14.6062L18.7072 17.1566" stroke="#001DA5" stroke-width="0.228589" stroke-miterlimit="1.5" stroke-linecap="square"/>
<path d="M14.3286 11.2306L17.3995 11.8798" stroke="#001DA5" stroke-width="0.282333" stroke-miterlimit="1.5" stroke-linecap="square"/>
<path d="M23.2731 25.6638L23.2546 28.0248" stroke="#001DA5" stroke-width="0.282333" stroke-miterlimit="1.5" stroke-linecap="square"/>
<path d="M23.2633 29.158L22.522 31.165" stroke="#001DA5" stroke-width="0.270942" stroke-miterlimit="1.5" stroke-linecap="square"/>
<path fill-rule="evenodd" clip-rule="evenodd" d="M10.8442 10.936L12.4377 11.5715L13.8368 10.5404L17.8245 11.2517L15.7192 15.1118L15.9345 15.8733L15.5449 17.4001L12.5171 16.4454L11.4223 17.0118L9.40072 15.8267L8.13989 12.4329L10.8442 10.936Z" stroke="#001DA5" stroke-width="0.211557" stroke-miterlimit="1.5" stroke-linecap="square"/>
<path fill-rule="evenodd" clip-rule="evenodd" d="M19.7236 20.8901L22.8767 21.6235L24.5124 24.5278L24.1501 29.0249L23.1025 31.6653L19.7834 29.3361L19.4704 27.3165L15.8763 25.8776L15.1362 24.4523L16.9517 20.4811L18.2163 21.126L19.7236 20.8901Z" stroke="#001DA5" stroke-width="0.282333" stroke-miterlimit="1.5" stroke-linecap="square"/>
<path d="M18.436 21.9713L20.4863 22.9374L22.1041 27.2737" stroke="#001DA5" stroke-width="0.282333" stroke-miterlimit="1.5" stroke-linecap="square"/>
<path d="M15.4833 17.4335L12.5195 16.4161L8.28727 19.0113L7.71265 23.7649L10.6521 26.6034L10.6443 23.3288L12.6053 22.2229L15.5979 23.4314L15.8 22.9978M15.4833 17.4335L17.2779 18.0193M15.4833 17.4335L15.5426 18.4315M15.8 22.9978L16.023 22.5191M15.8 22.9978L13.456 21.8225M15.5426 18.4315L12.2428 17.4936L9.01097 19.5678L8.44797 23.5367M15.5426 18.4315L15.731 18.7777L19.3831 20.9104L18.1971 21.1234L16.9797 20.4658L16.023 22.5191M16.023 22.5191L13.3648 21.2147L9.79628 23.0033" stroke="#001DA5" stroke-width="0.211557" stroke-miterlimit="1.5" stroke-linecap="square"/>
<path d="M24.4905 13.3647L22.5248 9.37949L22.9918 7.96951L21.2587 7.04626L19.0787 8.93607L15.6853 14.9854L15.9426 15.7275L15.6747 17.3292L15.668 18.7866L19.6029 20.9236M24.4905 13.3647L19.7276 17.985M24.4905 13.3647L26.1673 12.0866L29.9603 12.979L30.5032 14.7348L32.6496 16.7426M19.6029 20.9236L19.9829 20.8876M19.6029 20.9236L18.726 19.3121L19.5914 16.3574M32.6496 16.7426L30.0384 14.9997L29.257 13.1981L26.2442 12.5385L20.4438 18.0924M32.6496 16.7426L29.0002 18.3665L25.6618 21.0973L21.8864 20.1257L20.3332 20.9674L19.9829 20.8876M19.9829 20.8876L20.1845 19.009L22.9749 17.2033" stroke="#001DA5" stroke-width="0.211557" stroke-miterlimit="1.5" stroke-linecap="square"/>
<path d="M29.5795 23.8868L30.8182 23.1245L29.534 20.2179L27.4578 19.6338L25.6538 21.0682L22.0392 20.0449L20.3379 20.9364L22.828 21.5753L24.4884 24.4985L24.445 25.378L25.4435 25.749L27.5842 25.5773L29.2516 26.7894L29.5795 23.8868ZM29.5795 23.8868L28.0805 21.691L24.3204 21.6434" stroke="#001DA5" stroke-width="0.282333" stroke-miterlimit="1.5" stroke-linecap="square"/>
<path d="M20.3297 1.39226C20.5535 1.39226 20.7349 1.21082 20.7349 0.987022C20.7349 0.763216 20.5535 0.581787 20.3297 0.581787C20.106 0.581787 19.9246 0.763216 19.9246 0.987022C19.9246 1.21082 20.106 1.39226 20.3297 1.39226Z" fill="#001DA5" stroke="#001DA5" stroke-width="0.282182" stroke-miterlimit="1.5" stroke-linejoin="round"/>
<path d="M9.12686 5.03935C9.35062 5.03935 9.53205 4.85793 9.53205 4.63413C9.53205 4.41034 9.35062 4.22888 9.12686 4.22888C8.90307 4.22888 8.72168 4.41034 8.72168 4.63413C8.72168 4.85793 8.90307 5.03935 9.12686 5.03935Z" fill="#001DA5" stroke="#001DA5" stroke-width="0.282182" stroke-miterlimit="1.5" stroke-linejoin="round"/>
<path d="M31.507 4.97075C31.7307 4.97075 31.9122 4.78932 31.9122 4.56553C31.9122 4.3417 31.7307 4.16028 31.507 4.16028C31.2832 4.16028 31.1018 4.3417 31.1018 4.56553C31.1018 4.78932 31.2832 4.97075 31.507 4.97075Z" fill="#001DA5" stroke="#001DA5" stroke-width="0.282182" stroke-miterlimit="1.5" stroke-linejoin="round"/>
<path d="M2.26188 14.5052C2.48565 14.5052 2.66706 14.3237 2.66706 14.1C2.66706 13.8761 2.48565 13.6947 2.26188 13.6947C2.0381 13.6947 1.85669 13.8761 1.85669 14.1C1.85669 14.3237 2.0381 14.5052 2.26188 14.5052Z" fill="#001DA5" stroke="#001DA5" stroke-width="0.282182" stroke-miterlimit="1.5" stroke-linejoin="round"/>
<path d="M38.2776 13.9744C38.5015 13.9744 38.683 13.793 38.683 13.5692C38.683 13.3454 38.5015 13.1639 38.2776 13.1639C38.0541 13.1639 37.8726 13.3454 37.8726 13.5692C37.8726 13.793 38.0541 13.9744 38.2776 13.9744Z" fill="#001DA5" stroke="#001DA5" stroke-width="0.282182" stroke-miterlimit="1.5" stroke-linejoin="round"/>
<path d="M2.6215 27.3647C2.84528 27.3647 3.02668 27.1832 3.02668 26.9595C3.02668 26.7356 2.84528 26.5542 2.6215 26.5542C2.39772 26.5542 2.21631 26.7356 2.21631 26.9595C2.21631 27.1832 2.39772 27.3647 2.6215 27.3647Z" fill="#001DA5" stroke="#001DA5" stroke-width="0.282182" stroke-miterlimit="1.5" stroke-linejoin="round"/>
<path d="M38.2776 27.0224C38.5015 27.0224 38.683 26.841 38.683 26.6171C38.683 26.3933 38.5015 26.2119 38.2776 26.2119C38.0541 26.2119 37.8726 26.3933 37.8726 26.6171C37.8726 26.841 38.0541 27.0224 38.2776 27.0224Z" fill="#001DA5" stroke="#001DA5" stroke-width="0.282182" stroke-miterlimit="1.5" stroke-linejoin="round"/>
<path d="M9.1752 35.9044C9.399 35.9044 9.58042 35.7229 9.58042 35.499C9.58042 35.2752 9.399 35.0936 9.1752 35.0936C8.95144 35.0936 8.77002 35.2752 8.77002 35.499C8.77002 35.7229 8.95144 35.9044 9.1752 35.9044Z" fill="#001DA5" stroke="#001DA5" stroke-width="0.282182" stroke-miterlimit="1.5" stroke-linejoin="round"/>
<path d="M31.4794 35.9044C31.7032 35.9044 31.8846 35.7229 31.8846 35.499C31.8846 35.2752 31.7032 35.0936 31.4794 35.0936C31.2556 35.0936 31.0742 35.2752 31.0742 35.499C31.0742 35.7229 31.2556 35.9044 31.4794 35.9044Z" fill="#001DA5" stroke="#001DA5" stroke-width="0.282182" stroke-miterlimit="1.5" stroke-linejoin="round"/>
<path d="M20.4497 39.4845C20.6734 39.4845 20.8548 39.303 20.8548 39.0791C20.8548 38.8552 20.6734 38.6737 20.4497 38.6737C20.2259 38.6737 20.0444 38.8552 20.0444 39.0791C20.0444 39.303 20.2259 39.4845 20.4497 39.4845Z" fill="#001DA5" stroke="#001DA5" stroke-width="0.282182" stroke-miterlimit="1.5" stroke-linejoin="round"/>
<path d="M20.2699 38.0333C30.2111 38.0333 38.2699 29.9743 38.2699 20.0331C38.2699 10.0919 30.2111 2.03296 20.2699 2.03296C10.3287 2.03296 2.26978 10.0919 2.26978 20.0331C2.26978 29.9743 10.3287 38.0333 20.2699 38.0333Z" stroke="#001DA5" stroke-width="0.422798" stroke-miterlimit="1.5" stroke-linecap="round" stroke-linejoin="round"/>
<path fill-rule="evenodd" clip-rule="evenodd" d="M19.6317 3.45674L19.6157 3.03373C19.8327 3.0255 20.0508 3.02136 20.2698 3.02136C20.4889 3.02136 20.707 3.0255 20.924 3.03373L20.908 3.45674C20.6963 3.44871 20.4835 3.44468 20.2698 3.44468C20.0561 3.44468 19.8434 3.44871 19.6317 3.45674ZM21.7571 3.51059L21.7947 3.08889C22.2323 3.12787 22.6651 3.18342 23.0926 3.25494L23.0228 3.67247C22.6059 3.60274 22.1839 3.54859 21.7571 3.51059ZM23.858 3.83446L23.9493 3.42104C24.3776 3.51563 24.7997 3.62638 25.2153 3.7526L25.0922 4.15765C24.6871 4.03461 24.2755 3.92664 23.858 3.83446ZM25.8995 4.42591L26.0433 4.02774C26.4552 4.17648 26.8597 4.3407 27.2561 4.51969L27.0819 4.9055C26.6954 4.73105 26.301 4.57093 25.8995 4.42591ZM27.8479 5.27543L28.0417 4.89903C28.4305 5.09925 28.8105 5.31397 29.1812 5.54254L28.959 5.90288C28.5976 5.68003 28.227 5.4706 27.8479 5.27543ZM29.6715 6.36784L29.9119 6.01935C30.2714 6.26732 30.6209 6.52877 30.9597 6.80296L30.6934 7.13201C30.363 6.86463 30.0221 6.60968 29.6715 6.36784ZM31.341 7.68394L31.6237 7.36888C31.9485 7.66027 32.2621 7.96395 32.5636 8.27922L32.2576 8.57183C31.9635 8.26435 31.6578 7.96815 31.341 7.68394ZM32.8299 9.20152L33.1503 8.92486C33.4352 9.25486 33.7077 9.5959 33.9671 9.94727L33.6263 10.1986C33.3735 9.85596 33.1077 9.52332 32.8299 9.20152ZM34.1137 10.8959L34.467 10.6623C34.7071 11.0255 34.934 11.3985 35.1463 11.7805L34.7765 11.9863C34.5692 11.6138 34.3481 11.2501 34.1137 10.8959ZM35.1711 12.7401L35.551 12.5536C35.7427 12.9442 35.9198 13.3431 36.0817 13.7497L35.6885 13.9063C35.5304 13.5099 35.3577 13.1209 35.1711 12.7401ZM35.9825 14.7046L36.3835 14.5685C36.523 14.9799 36.6473 15.3983 36.7557 15.8231L36.3456 15.9277C36.2399 15.5136 36.1186 15.1056 35.9825 14.7046ZM36.5342 16.7572L36.9494 16.6739C37.0347 17.0991 37.1042 17.53 37.157 17.966L36.7367 18.0169C36.6852 17.5919 36.6175 17.1718 36.5342 16.7572ZM36.8177 18.864L37.24 18.8345C37.2678 19.2305 37.2816 19.6302 37.2816 20.0332C37.2816 20.0695 37.2816 20.1059 37.2813 20.1422L36.858 20.1396C36.8583 20.1041 36.8583 20.0686 36.8583 20.0332C36.8583 19.6401 36.8444 19.2502 36.8177 18.864ZM36.8312 20.9901L37.2539 21.0141C37.2288 21.453 37.1871 21.8874 37.1292 22.3167L36.71 22.2603C36.7662 21.8416 36.8068 21.418 36.8312 20.9901ZM36.5748 23.1003L36.9911 23.1782C36.9101 23.6095 36.8133 24.035 36.7005 24.4542L36.2917 24.3443C36.4014 23.9357 36.4963 23.5208 36.5748 23.1003ZM36.0496 25.1599L36.4522 25.2908C36.3168 25.7074 36.1657 26.1169 35.9998 26.5187L35.6086 26.3571C35.7702 25.9653 35.9175 25.5661 36.0496 25.1599ZM35.2635 27.1346L35.6459 27.3163C35.4582 27.7114 35.2557 28.0981 35.0393 28.4758L34.6719 28.2652C34.8832 27.897 35.0803 27.5199 35.2635 27.1346ZM34.2299 28.9923L34.5858 29.2214C34.3494 29.5887 34.0995 29.9465 33.8363 30.2938L33.4989 30.0381C33.7555 29.6994 33.9996 29.3505 34.2299 28.9923ZM32.9679 30.7029L33.2918 30.9755C33.0108 31.3094 32.7172 31.6324 32.4118 31.9438L32.1096 31.6473C32.4075 31.3437 32.6938 31.0286 32.9679 30.7029ZM31.4985 32.2393L31.7851 32.5508C31.4643 32.8461 31.1321 33.1293 30.7893 33.3995L30.5272 33.0671C30.8616 32.8034 31.1856 32.5273 31.4985 32.2393ZM29.8458 33.5766L30.0906 33.9219C29.7352 34.1739 29.3697 34.4123 28.9948 34.6372L28.7772 34.2738C29.1428 34.055 29.4992 33.8222 29.8458 33.5766ZM28.0364 34.6924L28.235 35.0663C27.8507 35.2705 27.4577 35.4601 27.0566 35.6352L26.8874 35.2471C27.2785 35.0764 27.6617 34.8915 28.0364 34.6924ZM26.0991 35.5668L26.2481 35.9631C25.8412 36.1161 25.427 36.2536 25.0061 36.3759L24.8883 35.9692C25.2987 35.8503 25.7025 35.7158 26.0991 35.5668ZM24.0654 36.1846L24.162 36.5967C23.7396 36.6959 23.3111 36.7793 22.8773 36.846L22.8128 36.4277C23.2358 36.3624 23.6535 36.2811 24.0654 36.1846ZM21.9689 36.5354L22.0118 36.9567C21.5811 37.0004 21.1456 37.0285 20.706 37.0394L20.6953 36.6164C21.1241 36.6055 21.5488 36.5784 21.9689 36.5354ZM19.8443 36.6164L19.8337 37.0394C19.3941 37.0285 18.9586 37.0004 18.5279 36.9567L18.5708 36.5354C18.9909 36.5784 19.4156 36.6055 19.8443 36.6164ZM17.7269 36.4277L17.6624 36.846C17.2286 36.7793 16.8001 36.6959 16.3777 36.5967L16.4743 36.1846C16.8862 36.2811 17.3039 36.3624 17.7269 36.4277ZM15.6514 35.9692L15.5336 36.3759C15.1127 36.254 14.6985 36.1161 14.2916 35.9631L14.4406 35.5668C14.8372 35.7158 15.241 35.8503 15.6514 35.9692ZM13.6522 35.2471L13.483 35.6352C13.082 35.4601 12.6889 35.2705 12.3046 35.0663L12.5033 34.6924C12.878 34.8915 13.2612 35.0764 13.6522 35.2471ZM11.7625 34.2738L11.5449 34.6372C11.17 34.4126 10.8045 34.1739 10.4491 33.9219L10.6938 33.5766C11.0405 33.8222 11.3969 34.055 11.7625 34.2738ZM10.0125 33.0671L9.75039 33.3995C9.40752 33.1293 9.07536 32.8461 8.7545 32.5508L9.04125 32.2393C9.35412 32.5273 9.67812 32.8034 10.0125 33.0671ZM8.43009 31.6473L8.1279 31.9438C7.82245 31.6325 7.52889 31.3094 7.24786 30.9755L7.5718 30.7029C7.84585 31.0286 8.13216 31.3437 8.43009 31.6473ZM7.0408 30.0381L6.70338 30.2937C6.4402 29.9464 6.19006 29.5887 5.95364 29.2213L6.30965 28.9923C6.54018 29.3505 6.78416 29.6994 7.0408 30.0381ZM5.86772 28.2652L5.50046 28.4758C5.28395 28.0981 5.0815 27.7114 4.89387 27.3163L5.27627 27.1346C5.45921 27.5199 5.65663 27.897 5.86772 28.2652ZM4.93123 26.357L4.53996 26.5187C4.37395 26.1169 4.22287 25.7073 4.08743 25.2908L4.49001 25.1599C4.62206 25.566 4.76934 25.9653 4.93123 26.357ZM4.24803 24.3443L3.83922 24.4542C3.72655 24.035 3.62952 23.6095 3.54875 23.1782L3.96484 23.1003C4.04358 23.5207 4.13817 23.9356 4.24803 24.3443ZM3.82988 22.2603L3.4103 22.3167C3.35259 21.8874 3.31091 21.4529 3.28593 21.0141L3.70857 20.99C3.73295 21.418 3.77356 21.8416 3.82988 22.2603ZM3.68174 20.1395L3.25838 20.1422C3.25815 20.1059 3.25806 20.0695 3.25806 20.0332C3.25806 19.6302 3.27208 19.2305 3.2997 18.8345L3.72201 18.8639C3.69505 19.2502 3.68137 19.6401 3.68137 20.0332C3.68137 20.0686 3.68147 20.1041 3.68174 20.1395ZM3.80288 18.017L3.38264 17.966C3.43553 17.53 3.50499 17.0992 3.59027 16.674L4.00534 16.7572C3.92216 17.1718 3.8545 17.5919 3.80288 18.017ZM4.19418 15.9277L3.78395 15.8231C3.89226 15.3983 4.01658 14.9799 4.15622 14.5685L4.5571 14.7046C4.42096 15.1056 4.29975 15.5136 4.19418 15.9277ZM4.85127 13.9063L4.45797 13.7497C4.61989 13.3431 4.79705 12.9441 4.98874 12.5536L5.36879 12.7401C5.18188 13.1209 5.00916 13.5099 4.85127 13.9063ZM5.76314 11.9863L5.39321 11.7805C5.60569 11.3985 5.8325 11.0255 6.07288 10.6623L6.42591 10.8959C6.19152 11.2501 5.97037 11.6138 5.76314 11.9863ZM6.91343 10.1986L6.57279 9.94723C6.83201 9.5959 7.10447 9.25486 7.38936 8.92486L7.70981 9.20152C7.43193 9.52332 7.16628 9.85593 6.91343 10.1986ZM8.28202 8.57183L7.9761 8.27925C8.27762 7.96395 8.59116 7.66027 8.91591 7.36888L9.19863 7.68394C8.88188 7.96815 8.57612 8.26435 8.28202 8.57183ZM9.84624 7.13201L9.57994 6.80293C9.91878 6.52874 10.2683 6.26729 10.6279 6.01935L10.8682 6.36784C10.5176 6.60968 10.1767 6.86463 9.84624 7.13201ZM11.5807 5.90288L11.3585 5.54257C11.7291 5.314 12.1092 5.09925 12.4979 4.89903L12.6917 5.27543C12.3127 5.47064 11.9421 5.68003 11.5807 5.90288ZM13.4578 4.9055L13.2837 4.51965C13.68 4.3407 14.0845 4.17648 14.4963 4.02774L14.6402 4.42591C14.2386 4.57089 13.8443 4.73102 13.4578 4.9055ZM15.4475 4.15765L15.3244 3.75263C15.7399 3.62638 16.1621 3.51563 16.5904 3.42104L16.6817 3.83446C16.2642 3.92664 15.8525 4.03461 15.4475 4.15765ZM17.5169 3.67247L17.447 3.25494C17.8745 3.18342 18.3074 3.12787 18.745 3.08889L18.7826 3.51059C18.3558 3.54859 17.9337 3.60274 17.5169 3.67247Z" fill="#001DA5"/>
<path fill-rule="evenodd" clip-rule="evenodd" d="M4.58104 20.0331H4.29883C4.29883 19.9368 4.29967 19.8407 4.3014 19.7448L4.58358 19.7499C4.58189 19.8441 4.58104 19.9385 4.58104 20.0331ZM4.59117 19.4666L4.30912 19.4565C4.31258 19.3603 4.31688 19.2642 4.32203 19.1684L4.60383 19.1836C4.59879 19.2777 4.59455 19.3721 4.59117 19.4666ZM4.62161 18.9009L4.34008 18.8806C4.34699 18.7846 4.35478 18.6887 4.36338 18.5932L4.64444 18.6185C4.63601 18.7124 4.62839 18.8065 4.62161 18.9009ZM4.67241 18.3366L4.39186 18.3062C4.40222 18.2105 4.41343 18.115 4.42552 18.0198L4.7055 18.0552C4.69365 18.1488 4.68261 18.2426 4.67241 18.3366ZM4.74367 17.7745L4.4644 17.7339C4.47822 17.6386 4.49292 17.5436 4.50843 17.4489L4.78695 17.4945C4.77171 17.5876 4.75725 17.6809 4.74367 17.7745ZM4.83535 17.2154L4.55771 17.1647C4.57501 17.0699 4.59317 16.9755 4.61216 16.8814L4.88879 16.9372C4.87016 17.0296 4.85232 17.1224 4.83535 17.2154ZM4.94735 16.6601L4.67174 16.5992C4.6925 16.5052 4.7141 16.4115 4.73649 16.3181L5.01095 16.384C4.98893 16.4757 4.96773 16.5677 4.94735 16.6601ZM5.0796 16.1091L4.80639 16.0382C4.83057 15.9451 4.8556 15.8522 4.88141 15.7597L5.15326 15.8355C5.12789 15.9264 5.10334 16.0176 5.0796 16.1091ZM5.2319 15.5634L4.9615 15.4826C4.98907 15.3903 5.01745 15.2985 5.04664 15.207L5.31551 15.2927C5.28686 15.3826 5.25899 15.4728 5.2319 15.5634ZM5.40411 15.0236L5.13683 14.933C5.16779 14.8418 5.19952 14.751 5.23203 14.6606L5.49758 14.7562C5.46565 14.845 5.43449 14.9341 5.40411 15.0236ZM5.59597 14.4905L5.33221 14.3901C5.36642 14.3002 5.40147 14.2106 5.43727 14.1215L5.69916 14.2267C5.66397 14.3142 5.62956 14.4022 5.59597 14.4905ZM5.80716 13.9648L5.54727 13.8548C5.58476 13.7662 5.62303 13.678 5.66207 13.5902L5.91994 13.7049C5.88157 13.7911 5.84401 13.8778 5.80716 13.9648ZM6.03746 13.4471L5.78173 13.3277C5.8224 13.2406 5.86389 13.1538 5.90612 13.0675L6.15961 13.1915C6.11813 13.2763 6.07742 13.3615 6.03746 13.4471ZM6.28644 12.9382L6.03522 12.8096C6.07911 12.724 6.12368 12.6388 6.16906 12.5541L6.41788 12.6872C6.37331 12.7704 6.32952 12.8541 6.28644 12.9382ZM6.55382 12.4387L6.30744 12.301C6.35438 12.217 6.40207 12.1335 6.45046 12.0505L6.69427 12.1927C6.64672 12.2742 6.59992 12.3562 6.55382 12.4387ZM6.83915 11.9492L6.59799 11.8027C6.64794 11.7205 6.69861 11.6388 6.74998 11.5576L6.98847 11.7085C6.93801 11.7882 6.88826 11.8685 6.83915 11.9492ZM7.14213 11.4705L6.90638 11.3153C6.95928 11.2349 7.01289 11.1551 7.06718 11.0758L7.30005 11.2353C7.24671 11.3131 7.19404 11.3916 7.14213 11.4705ZM7.4622 11.003L7.23225 10.8393C7.28803 10.761 7.34445 10.6831 7.40158 10.6059L7.62852 10.7736C7.57241 10.8495 7.51697 10.926 7.4622 11.003ZM7.79898 10.5474L7.57508 10.3755C7.63364 10.2993 7.69284 10.2235 7.75275 10.1483L7.97346 10.3242C7.91463 10.3981 7.85648 10.4724 7.79898 10.5474ZM8.152 10.1042L7.93448 9.92436C7.99571 9.85026 8.05762 9.77673 8.1202 9.70375L8.33448 9.88748C8.27301 9.95914 8.21219 10.0314 8.152 10.1042ZM8.52078 9.67405L8.30989 9.48653C8.37377 9.41466 8.43828 9.34341 8.50344 9.27276L8.71095 9.46407C8.6469 9.5335 8.58354 9.6035 8.52078 9.67405ZM8.90483 9.25752L8.70082 9.06251C8.76727 8.99302 8.83429 8.92413 8.90195 8.85586L9.10245 9.05452C9.03593 9.12158 8.97009 9.18928 8.90483 9.25752ZM9.30365 8.85508L9.10682 8.65286C9.1757 8.5858 9.24516 8.51935 9.31527 8.45358L9.50844 8.65933C9.43959 8.72398 9.37132 8.78924 9.30365 8.85508ZM9.71669 8.4673L9.52727 8.2581C9.59853 8.19359 9.67036 8.12971 9.74277 8.06649L9.92839 8.27907C9.85727 8.34121 9.78669 8.40394 9.71669 8.4673ZM10.1435 8.09466L9.96172 7.87876C10.0352 7.81685 10.1093 7.75562 10.184 7.69503L10.3619 7.91419C10.2885 7.97369 10.2157 8.03384 10.1435 8.09466ZM10.5834 7.73764L10.4096 7.51533C10.4853 7.4561 10.5616 7.39758 10.6384 7.33974L10.8082 7.56515C10.7327 7.62198 10.6578 7.67949 10.5834 7.73764ZM11.036 7.3968L10.8703 7.1683C10.9481 7.11191 11.0264 7.05613 11.1053 7.0011L11.2668 7.23255C11.1893 7.2866 11.1124 7.34136 11.036 7.3968ZM11.5006 7.07249L11.3432 6.83817C11.423 6.78462 11.5033 6.73176 11.5841 6.6796L11.7372 6.9167C11.6578 6.96794 11.5789 7.01986 11.5006 7.07249ZM11.9766 6.76522L11.8279 6.52537C11.9095 6.47474 11.9917 6.42479 12.0743 6.37561L12.2187 6.61813C12.1375 6.66643 12.0568 6.71547 11.9766 6.76522ZM12.4634 6.47542L12.3235 6.23032C12.407 6.18267 12.4909 6.13577 12.5753 6.0896L12.7107 6.33721C12.6279 6.38255 12.5454 6.42861 12.4634 6.47542ZM12.9605 6.2035L12.8296 5.95349C12.9147 5.90892 13.0003 5.8651 13.0863 5.82202L13.2127 6.07437C13.1281 6.1167 13.0441 6.15974 12.9605 6.2035ZM13.4671 5.9499L13.3454 5.69526C13.4321 5.65384 13.5192 5.61313 13.6067 5.57324L13.7238 5.83001C13.6378 5.86923 13.5523 5.90916 13.4671 5.9499ZM13.9827 5.7149L13.8703 5.45599C13.9585 5.41775 14.047 5.38026 14.136 5.34358L14.2436 5.60446C14.1562 5.64053 14.0692 5.67731 13.9827 5.7149ZM14.5065 5.49886L14.4036 5.23602C14.4931 5.20104 14.583 5.16683 14.6733 5.13341L14.7712 5.39808C14.6826 5.43093 14.5943 5.46449 14.5065 5.49886ZM15.0378 5.30216L14.9446 5.03577C15.0353 5.00403 15.1264 4.97315 15.2178 4.94307L15.3061 5.21113C15.2162 5.2407 15.1268 5.27104 15.0378 5.30216ZM15.5759 5.12504L15.4926 4.85539C15.5844 4.82701 15.6765 4.79948 15.769 4.77276L15.8474 5.0439C15.7566 5.07014 15.6661 5.0972 15.5759 5.12504ZM16.1202 4.96773L16.0469 4.6952C16.1396 4.67024 16.2327 4.64609 16.326 4.62276L16.3944 4.89657C16.3027 4.9195 16.2113 4.94321 16.1202 4.96773ZM16.6699 4.83047L16.6065 4.55543C16.7001 4.53386 16.794 4.51313 16.8882 4.49325L16.9466 4.76937C16.854 4.78891 16.7618 4.80927 16.6699 4.83047ZM17.2242 4.71335L17.171 4.43619C17.2653 4.4181 17.3598 4.4008 17.4547 4.38437L17.5029 4.66245C17.4098 4.67861 17.3168 4.69557 17.2242 4.71335ZM17.7825 4.6166L17.7394 4.3377C17.8343 4.32304 17.9294 4.30919 18.0248 4.29622L18.0629 4.57589C17.9691 4.58862 17.8757 4.6022 17.7825 4.6166ZM18.3439 4.54023L18.311 4.25994C18.4063 4.24877 18.5019 4.2384 18.5977 4.22889L18.6256 4.50975C18.5314 4.51909 18.4375 4.52925 18.3439 4.54023ZM18.9077 4.48431L18.8849 4.20301C18.9806 4.19529 19.0765 4.18838 19.1726 4.18235L19.1903 4.46403C19.0959 4.46995 19.0017 4.47669 18.9077 4.48431ZM19.4732 4.44882L19.4605 4.16688C19.5564 4.16254 19.6524 4.15912 19.7487 4.15655L19.7563 4.43866C19.6617 4.4412 19.5673 4.44459 19.4732 4.44882ZM20.0395 4.43361L20.037 4.1514C20.085 4.15099 20.1331 4.15076 20.1812 4.15076C20.2293 4.15076 20.2774 4.15099 20.3253 4.1514L20.3229 4.43361C20.2757 4.43321 20.2284 4.43297 20.1812 4.43297C20.1339 4.43297 20.0867 4.43321 20.0395 4.43361ZM20.6061 4.43866L20.6136 4.15655C20.7099 4.15912 20.8059 4.16254 20.9018 4.16684L20.8892 4.44879C20.795 4.44459 20.7007 4.4412 20.6061 4.43866ZM21.1721 4.46403L21.1898 4.18235C21.2859 4.18838 21.3818 4.19529 21.4774 4.20301L21.4546 4.48431C21.3607 4.47669 21.2665 4.46995 21.1721 4.46403ZM21.7368 4.50975L21.7647 4.22889C21.8605 4.2384 21.9561 4.24877 22.0514 4.25994L22.0185 4.54023C21.9248 4.52925 21.831 4.51909 21.7368 4.50975ZM22.2995 4.57589L22.3375 4.29622C22.433 4.30922 22.5281 4.32304 22.623 4.3377L22.5799 4.6166C22.4867 4.6022 22.3932 4.58862 22.2995 4.57589ZM22.8594 4.66245L22.9076 4.38434C23.0025 4.4008 23.0971 4.4181 23.1914 4.43619L23.1381 4.71335C23.0455 4.69554 22.9526 4.67857 22.8594 4.66245ZM23.4158 4.76937L23.4741 4.49322C23.5683 4.51313 23.6622 4.53386 23.7558 4.5554L23.6925 4.83043C23.6005 4.80927 23.5083 4.78891 23.4158 4.76937ZM23.9679 4.89657L24.0363 4.62276C24.1297 4.64609 24.2228 4.67024 24.3155 4.6952L24.2422 4.96773C24.1511 4.94321 24.0597 4.9195 23.9679 4.89657ZM24.515 5.0439L24.5934 4.77276C24.6858 4.79948 24.778 4.82701 24.8698 4.85539L24.7865 5.12504C24.6963 5.0972 24.6058 5.07014 24.515 5.0439ZM25.0563 5.21113L25.1446 4.94307C25.236 4.97315 25.3271 5.00407 25.4178 5.03577L25.3246 5.30216C25.2356 5.27104 25.1461 5.2407 25.0563 5.21113ZM25.5912 5.39811L25.6891 5.13341C25.7794 5.16683 25.8693 5.20104 25.9587 5.23606L25.8559 5.49886C25.7681 5.46449 25.6798 5.43093 25.5912 5.39811ZM26.1188 5.60446L26.2264 5.34358C26.3153 5.38026 26.4039 5.41775 26.492 5.45599L26.3797 5.7149C26.2931 5.67731 26.2062 5.64053 26.1188 5.60446ZM26.6385 5.83001L26.7556 5.57324C26.8431 5.61313 26.9303 5.65381 27.017 5.69522L26.8952 5.94987C26.8101 5.90916 26.7245 5.8692 26.6385 5.83001ZM27.1497 6.07437L27.276 5.82199C27.362 5.8651 27.4476 5.90889 27.5328 5.95346L27.4018 6.2035C27.3182 6.15974 27.2342 6.11666 27.1497 6.07437ZM27.6516 6.33721L27.7871 6.0896C27.8715 6.13577 27.9554 6.18267 28.0389 6.23032L27.8989 6.47542C27.8169 6.42861 27.7345 6.38255 27.6516 6.33721ZM28.1437 6.6181L28.288 6.37558C28.3707 6.42479 28.4528 6.47471 28.5345 6.52534L28.3858 6.76518C28.3055 6.71547 28.2248 6.66643 28.1437 6.6181ZM28.6252 6.91667L28.7782 6.67957C28.859 6.73172 28.9393 6.78459 29.0191 6.83817L28.8618 7.07246C28.7834 7.01986 28.7046 6.96791 28.6252 6.91667ZM29.0956 7.23255L29.2571 7.0011C29.3359 7.05613 29.4143 7.11188 29.4921 7.1683L29.3264 7.3968C29.25 7.34136 29.173 7.2866 29.0956 7.23255ZM29.5542 7.56519L29.724 7.33974C29.8008 7.39761 29.8771 7.45614 29.9528 7.51533L29.7789 7.73767C29.7045 7.67949 29.6296 7.62202 29.5542 7.56519ZM30.0005 7.91419L30.1783 7.69503C30.253 7.75562 30.3271 7.81685 30.4007 7.87876L30.2189 8.09466C30.1466 8.03384 30.0739 7.97369 30.0005 7.91419ZM30.4339 8.27907L30.6196 8.06649C30.692 8.12971 30.7638 8.19359 30.8351 8.2581L30.6457 8.4673C30.5757 8.40394 30.5051 8.34118 30.4339 8.27907ZM30.8539 8.65933L31.0471 8.45358C31.1172 8.51939 31.1867 8.5858 31.2556 8.65286L31.0587 8.85511C30.9911 8.78924 30.9228 8.72401 30.8539 8.65933ZM31.26 9.05449L31.4604 8.85586C31.528 8.92413 31.5951 8.99298 31.6615 9.06251L31.4575 9.25752C31.3923 9.18928 31.3264 9.12158 31.26 9.05449ZM31.6514 9.46407L31.8589 9.27276C31.9241 9.34341 31.9886 9.41466 32.0525 9.48653L31.8416 9.67405C31.7788 9.6035 31.7155 9.5335 31.6514 9.46407ZM32.0279 9.88744L32.2422 9.70375C32.3047 9.77673 32.3666 9.85026 32.4279 9.92436L32.2103 10.1042C32.1502 10.0314 32.0894 9.95914 32.0279 9.88744ZM32.3889 10.3242L32.6096 10.1483C32.6695 10.2235 32.7287 10.2992 32.7873 10.3755L32.5634 10.5473C32.5059 10.4724 32.4477 10.398 32.3889 10.3242ZM32.7338 10.7736L32.9608 10.6058C33.0179 10.6831 33.0743 10.761 33.1301 10.8393L32.9002 11.0029C32.8454 10.9259 32.7899 10.8495 32.7338 10.7736ZM33.0623 11.2352L33.2952 11.0758C33.3495 11.1551 33.4031 11.2349 33.456 11.3152L33.2202 11.4705C33.1683 11.3915 33.1157 11.3131 33.0623 11.2352ZM33.3739 11.7084L33.6124 11.5576C33.6637 11.6387 33.7144 11.7205 33.7644 11.8027L33.5232 11.9492C33.4741 11.8685 33.4243 11.7882 33.3739 11.7084ZM33.6681 12.1927L33.9119 12.0505C33.9603 12.1335 34.0081 12.217 34.0548 12.301L33.8085 12.4387C33.7624 12.3562 33.7156 12.2742 33.6681 12.1927ZM33.9444 12.6872L34.1933 12.5541C34.2387 12.6388 34.2834 12.724 34.3271 12.8096L34.0758 12.9382C34.0328 12.8541 33.9891 12.7704 33.9444 12.6872ZM34.2028 13.1915L34.4561 13.0675C34.4985 13.1538 34.5398 13.2405 34.5808 13.3277L34.3251 13.4471C34.2848 13.3615 34.2441 13.2763 34.2028 13.1915ZM34.4423 13.7049L34.7003 13.5902C34.7393 13.678 34.7775 13.7662 34.8151 13.8548L34.555 13.9648C34.5185 13.8777 34.4809 13.7911 34.4423 13.7049ZM34.6631 14.2267L34.9252 14.1215C34.9608 14.2106 34.996 14.3002 35.0302 14.3901L34.7664 14.4905C34.7328 14.4022 34.6983 14.3142 34.6631 14.2267ZM34.8649 14.7562L35.1304 14.6606C35.163 14.751 35.1944 14.8418 35.2256 14.9329L34.9584 15.0236C34.9279 14.9341 34.8968 14.845 34.8649 14.7562ZM35.0468 15.2927L35.3157 15.2069C35.3448 15.2984 35.3733 15.3903 35.4007 15.4825L35.1304 15.5634C35.1033 15.4728 35.0756 15.3826 35.0468 15.2927ZM35.209 15.8355L35.481 15.7597C35.5067 15.8522 35.5318 15.945 35.5558 16.0382L35.2828 16.1091C35.2591 16.0176 35.2344 15.9264 35.209 15.8355ZM35.3512 16.384L35.6259 16.3181C35.6483 16.4115 35.6699 16.5052 35.6906 16.5992L35.4149 16.6601C35.3946 16.5677 35.3736 16.4757 35.3512 16.384ZM35.4735 16.9372L35.7502 16.8814C35.7692 16.9756 35.7875 17.07 35.8047 17.1647L35.527 17.2154C35.5101 17.1224 35.4921 17.0297 35.4735 16.9372ZM35.5754 17.4945L35.8538 17.4489C35.8694 17.5436 35.884 17.6386 35.8979 17.7339L35.6188 17.7745C35.6049 17.6809 35.5907 17.5876 35.5754 17.4945ZM35.6567 18.0552L35.9368 18.0197C35.949 18.1149 35.9602 18.2104 35.9707 18.3062L35.6899 18.3366C35.6798 18.2426 35.6686 18.1487 35.6567 18.0552ZM35.718 18.6185L35.9991 18.5932C36.0076 18.6887 36.0154 18.7846 36.0222 18.8806L35.7407 18.9009C35.7339 18.8065 35.7265 18.7124 35.718 18.6185ZM35.7587 19.1836L36.0404 19.1685C36.0455 19.2643 36.0499 19.3603 36.0533 19.4566L35.7712 19.4666C35.7678 19.3721 35.7638 19.2778 35.7587 19.1836ZM35.7787 19.7498L36.0611 19.7448C36.0628 19.8407 36.0635 19.9368 36.0635 20.0331H35.7814C35.7814 19.9385 35.7803 19.844 35.7787 19.7498ZM35.7787 20.3164L36.0611 20.3215C36.0594 20.4178 36.0567 20.5138 36.0533 20.6097L35.7712 20.5996C35.7746 20.5054 35.777 20.411 35.7787 20.3164ZM35.7587 20.8826L36.0404 20.8978C36.035 20.9939 36.0293 21.0898 36.0222 21.1855L35.7407 21.1653C35.7475 21.0713 35.7536 20.977 35.7587 20.8826ZM35.718 21.4477L35.9991 21.473C35.9903 21.569 35.9808 21.6646 35.9707 21.76L35.6899 21.7296C35.7001 21.6359 35.7096 21.5419 35.718 21.4477ZM35.6567 22.011L35.9368 22.0465C35.9246 22.142 35.9117 22.2373 35.8979 22.3323L35.6188 22.2917C35.6323 22.1984 35.6449 22.1048 35.6567 22.011ZM35.5754 22.5717L35.8538 22.6173C35.8383 22.7124 35.822 22.8071 35.8047 22.9016L35.527 22.8508C35.544 22.7581 35.5602 22.665 35.5754 22.5717ZM35.4735 23.129L35.7502 23.1848C35.7312 23.2792 35.7113 23.3733 35.6906 23.467L35.4149 23.4062C35.4352 23.3141 35.4549 23.2217 35.4735 23.129ZM35.3512 23.6822L35.6259 23.7481C35.6032 23.8417 35.5802 23.935 35.5558 24.028L35.2828 23.9571C35.3065 23.8658 35.3292 23.7742 35.3512 23.6822ZM35.209 24.2307L35.481 24.3066C35.4552 24.3993 35.4285 24.4917 35.4007 24.5837L35.1304 24.5029C35.1575 24.4125 35.1836 24.3217 35.209 24.2307ZM35.0468 24.7735L35.3157 24.8593C35.2866 24.951 35.2564 25.0424 35.2256 25.1333L34.9584 25.0426C34.9885 24.9533 35.018 24.8636 35.0468 24.7735ZM34.8649 25.31L35.1304 25.4056C35.0976 25.4962 35.0644 25.5864 35.0302 25.6761L34.7664 25.5757C34.7999 25.4875 34.8327 25.399 34.8649 25.31ZM34.6631 25.8395L34.9252 25.9448C34.8893 26.034 34.8524 26.1229 34.8151 26.2114L34.555 26.1014C34.592 26.0145 34.6279 25.9273 34.6631 25.8395ZM34.4423 26.3613L34.7003 26.476C34.661 26.564 34.6214 26.6514 34.5808 26.7385L34.3247 26.6191C34.3647 26.5336 34.404 26.4477 34.4423 26.3613ZM34.2028 26.8747L34.4561 26.9987C34.4138 27.0852 34.3708 27.1712 34.3271 27.2567L34.0758 27.128C34.1188 27.044 34.1612 26.9596 34.2028 26.8747ZM33.9444 27.379L34.1933 27.5122C34.148 27.597 34.1019 27.6813 34.0548 27.7652L33.8085 27.6275C33.8546 27.5451 33.9001 27.4623 33.9444 27.379ZM33.6681 27.8736L33.9119 28.0157C33.8634 28.0988 33.8143 28.1814 33.7644 28.2635L33.5232 28.117C33.5722 28.0363 33.6205 27.9552 33.6681 27.8736ZM33.3739 28.3578L33.6124 28.5087C33.5609 28.5899 33.5088 28.6708 33.456 28.751L33.2202 28.5958C33.2721 28.517 33.3234 28.4376 33.3739 28.3578ZM33.0623 28.831L33.2952 28.9904C33.2409 29.0698 33.1858 29.1486 33.1301 29.2269L32.9002 29.0633C32.9549 28.9864 33.0089 28.9089 33.0623 28.831ZM32.7338 29.2926L32.9608 29.4604C32.9036 29.5377 32.8458 29.6145 32.7873 29.6907L32.5634 29.5189C32.6208 29.444 32.6777 29.3686 32.7338 29.2926ZM32.3889 29.7421L32.6096 29.9179C32.5497 29.9931 32.4891 30.0678 32.4279 30.1418L32.2103 29.962C32.2705 29.8893 32.33 29.8159 32.3889 29.7421ZM32.0279 30.1788L32.2422 30.3625C32.1796 30.4355 32.1164 30.5079 32.0525 30.5797L31.8416 30.3922C31.9043 30.3216 31.9664 30.2505 32.0279 30.1788ZM31.6514 30.6022L31.8589 30.7935C31.7938 30.8641 31.728 30.9342 31.6616 31.0037L31.4575 30.8087C31.5228 30.7404 31.5874 30.6716 31.6514 30.6022ZM31.26 31.0117L31.4604 31.2104C31.3927 31.2786 31.3244 31.3463 31.2556 31.4134L31.0587 31.2111C31.1264 31.1452 31.1934 31.0788 31.26 31.0117ZM30.8539 31.4069L31.0471 31.6126C30.977 31.6784 30.9064 31.7436 30.8351 31.8081L30.6456 31.5989C30.7157 31.5355 30.7851 31.4715 30.8539 31.4069ZM30.4339 31.7871L30.6196 31.9997C30.5472 32.0629 30.4742 32.1255 30.4007 32.1874L30.2189 31.9716C30.2912 31.9107 30.3629 31.8492 30.4339 31.7871ZM30.0005 32.152L30.1783 32.3712C30.1037 32.4317 30.0285 32.4917 29.9528 32.5509L29.7789 32.3286C29.8533 32.2704 29.9272 32.2115 30.0005 32.152ZM29.5542 32.5011L29.724 32.7265C29.6472 32.7843 29.5699 32.8414 29.4921 32.8979L29.3264 32.6695C29.4029 32.614 29.4788 32.5579 29.5542 32.5011ZM29.0956 32.8337L29.2571 33.0651C29.1783 33.1201 29.099 33.1744 29.0191 33.228L28.8618 32.9937C28.9402 32.9411 29.0181 32.8877 29.0956 32.8337ZM28.6252 33.1496L28.7782 33.3867C28.6975 33.4388 28.6162 33.4902 28.5345 33.5409L28.3858 33.301C28.466 33.2512 28.5459 33.2007 28.6252 33.1496ZM28.1437 33.4481L28.288 33.6906C28.2054 33.7398 28.1224 33.7882 28.0389 33.8359L27.8989 33.5908C27.981 33.544 28.0625 33.4964 28.1437 33.4481ZM27.6516 33.729L27.7871 33.9768C27.7028 34.0228 27.618 34.0682 27.5328 34.1126L27.4019 33.8627C27.4856 33.8189 27.5688 33.7743 27.6516 33.729ZM27.1497 33.992L27.276 34.2443C27.1901 34.2873 27.1037 34.3293 27.017 34.371L26.8952 34.1163C26.9805 34.0756 27.0653 34.034 27.1497 33.992ZM26.6385 34.2362L26.7556 34.4929C26.6681 34.5329 26.5803 34.5718 26.492 34.6101L26.3797 34.3513C26.4664 34.3137 26.5527 34.2755 26.6385 34.2362ZM26.1188 34.4617L26.2264 34.7225C26.1375 34.7594 26.0483 34.795 25.9587 34.8302L25.8559 34.5674C25.9439 34.5329 26.0315 34.4976 26.1188 34.4617ZM25.5912 34.668L25.6891 34.9328C25.5991 34.966 25.5086 34.9989 25.4177 35.0304L25.3246 34.7642C25.4138 34.733 25.5027 34.7008 25.5912 34.668ZM25.0563 34.8549L25.1446 35.1232C25.0533 35.1533 24.9617 35.1824 24.8698 35.2109L24.7865 34.9413C24.8768 34.9132 24.9667 34.8847 25.0563 34.8549ZM24.515 35.0222L24.5934 35.2935C24.5011 35.3203 24.4085 35.346 24.3155 35.3711L24.2422 35.0984C24.3334 35.074 24.4244 35.0486 24.515 35.0222ZM23.9679 35.1695L24.0363 35.4435C23.9431 35.4666 23.8497 35.4893 23.7558 35.5109L23.6925 35.2359C23.7846 35.2146 23.8765 35.1926 23.9679 35.1695ZM23.4158 35.2969L23.4741 35.5729C23.3802 35.5929 23.2859 35.6119 23.1914 35.6301L23.1381 35.3528C23.231 35.3352 23.3235 35.3162 23.4158 35.2969ZM22.8594 35.4039L22.9076 35.682C22.813 35.6982 22.7181 35.7138 22.623 35.7287L22.5799 35.4496C22.6733 35.4351 22.7665 35.4198 22.8594 35.4039ZM22.2995 35.4903L22.3375 35.77C22.2424 35.7829 22.147 35.7951 22.0514 35.8062L22.0185 35.5258C22.1124 35.515 22.2061 35.5031 22.2995 35.4903ZM21.7368 35.5567L21.7647 35.8374C21.6692 35.8469 21.5734 35.8554 21.4774 35.8631L21.4547 35.5821C21.549 35.5743 21.643 35.5658 21.7368 35.5567ZM21.1721 35.6024L21.1898 35.8838C21.094 35.8899 20.998 35.895 20.9018 35.8994L20.8892 35.6173C20.9837 35.6132 21.078 35.6081 21.1721 35.6024ZM20.6061 35.6274L20.6136 35.9095C20.5177 35.9123 20.4216 35.9139 20.3253 35.915L20.3228 35.6325C20.4174 35.6318 20.5118 35.6301 20.6061 35.6274ZM20.0395 35.6325L20.037 35.915C19.9407 35.9139 19.8446 35.9123 19.7487 35.9095L19.7563 35.6274C19.8505 35.6301 19.9449 35.6318 20.0395 35.6325ZM19.4732 35.6173L19.4605 35.8994C19.3643 35.895 19.2684 35.8899 19.1726 35.8838L19.1903 35.6024C19.2843 35.6081 19.3787 35.6132 19.4732 35.6173ZM18.9077 35.5821L18.8849 35.8631C18.789 35.8554 18.6932 35.8469 18.5977 35.8374L18.6256 35.5567C18.7194 35.5658 18.8135 35.5743 18.9077 35.5821ZM18.3439 35.5258L18.311 35.8062C18.2153 35.7951 18.12 35.7829 18.0248 35.77L18.0629 35.4903C18.1563 35.5031 18.25 35.515 18.3439 35.5258ZM17.7825 35.4496L17.7394 35.7287C17.6442 35.7138 17.5493 35.6982 17.4547 35.682L17.5029 35.4039C17.5958 35.4198 17.689 35.4351 17.7825 35.4496ZM17.2242 35.3528L17.171 35.6301C17.0764 35.6119 16.9822 35.5929 16.8882 35.5729L16.9466 35.2969C17.0388 35.3162 17.1314 35.3352 17.2242 35.3528ZM16.6699 35.2359L16.6065 35.5109C16.5127 35.4893 16.4192 35.4666 16.326 35.4435L16.3944 35.1695C16.4859 35.1926 16.5778 35.2146 16.6699 35.2359ZM16.1202 35.0984L16.0469 35.3711C15.9539 35.346 15.8613 35.3203 15.769 35.2935L15.8474 35.0222C15.9379 35.0486 16.0289 35.074 16.1202 35.0984ZM15.5759 34.9413L15.4926 35.2109C15.4006 35.1824 15.309 35.1533 15.2178 35.1232L15.306 34.8549C15.3957 34.8847 15.4856 34.9132 15.5759 34.9413ZM15.0378 34.7642L14.9446 35.0304C14.8538 34.9989 14.7633 34.966 14.6732 34.9328L14.7712 34.668C14.8597 34.7008 14.9486 34.733 15.0378 34.7642ZM14.5065 34.5674L14.4036 34.8302C14.314 34.795 14.2248 34.7594 14.136 34.7225L14.2436 34.4617C14.3308 34.4976 14.4184 34.5329 14.5065 34.5674ZM13.9827 34.3513L13.8703 34.6101C13.782 34.5718 13.6942 34.5329 13.6067 34.4929L13.7238 34.2362C13.8097 34.2755 13.896 34.3137 13.9827 34.3513ZM13.4671 34.1163L13.3454 34.371C13.2586 34.3293 13.1722 34.2873 13.0863 34.2443L13.2126 33.992C13.297 34.034 13.3818 34.0756 13.4671 34.1163ZM12.9605 33.8627L12.8296 34.1129C12.7444 34.0682 12.6596 34.0228 12.5753 33.9768L12.7107 33.729C12.7935 33.7743 12.8768 33.8189 12.9605 33.8627ZM12.4634 33.5908L12.3235 33.8359C12.24 33.7882 12.1569 33.7398 12.0743 33.6906L12.2187 33.4481C12.2998 33.4964 12.3814 33.544 12.4634 33.5908ZM11.9766 33.301L11.8279 33.5409C11.7461 33.4902 11.6649 33.4388 11.5841 33.3867L11.7372 33.1495C11.8165 33.2007 11.8963 33.2512 11.9766 33.301ZM11.5005 32.9937L11.3432 33.228C11.2634 33.1744 11.184 33.1201 11.1053 33.0651L11.2668 32.8337C11.3442 32.8877 11.4221 32.9411 11.5005 32.9937ZM11.036 32.6695L10.8703 32.8979C10.7924 32.8414 10.7151 32.7843 10.6384 32.7265L10.8082 32.5011C10.8836 32.5579 10.9595 32.614 11.036 32.6695ZM10.5834 32.3286L10.4096 32.5509C10.3338 32.4917 10.2587 32.4318 10.184 32.3712L10.3619 32.1521C10.4352 32.2116 10.509 32.2704 10.5834 32.3286ZM10.1435 31.9716L9.96172 32.1875C9.88816 32.1256 9.81521 32.063 9.74277 31.9997L9.92843 31.7872C9.99951 31.8493 10.0712 31.9107 10.1435 31.9716ZM9.71669 31.5989L9.52727 31.8081C9.45598 31.7436 9.38534 31.6784 9.31527 31.6126L9.50841 31.4069C9.57723 31.4715 9.64669 31.5355 9.71669 31.5989ZM9.30365 31.2111L9.10682 31.4134C9.03793 31.3463 8.96962 31.2786 8.90199 31.2104L9.10245 31.0117C9.16893 31.0788 9.23598 31.1452 9.30365 31.2111ZM8.90483 30.8087L8.70082 31.0037C8.63441 30.9342 8.5686 30.8641 8.50344 30.7935L8.71095 30.6022C8.77495 30.6716 8.8396 30.7404 8.90483 30.8087ZM8.52078 30.3921L8.30989 30.5797C8.24602 30.5079 8.18279 30.4354 8.1202 30.3624L8.33445 30.1787C8.39591 30.2505 8.45803 30.3216 8.52078 30.3921ZM8.152 29.962L7.93448 30.1418C7.87325 30.0678 7.81266 29.9931 7.75275 29.9179L7.97349 29.7421C8.03232 29.8159 8.09186 29.8893 8.152 29.962ZM7.79898 29.5189L7.57508 29.6907C7.51656 29.6145 7.45871 29.5377 7.40158 29.4603L7.62852 29.2926C7.68464 29.3686 7.7415 29.444 7.79898 29.5189ZM7.4622 29.0633L7.23225 29.2269C7.17654 29.1486 7.1215 29.0698 7.06718 28.9904L7.30005 28.831C7.35342 28.9089 7.40747 28.9864 7.4622 29.0633ZM7.14209 28.5957L6.90638 28.751C6.85355 28.6707 6.80143 28.5899 6.74998 28.5086L6.98847 28.3578C7.039 28.4376 7.09018 28.5169 7.14209 28.5957ZM6.83915 28.117L6.59799 28.2635C6.54807 28.1814 6.49889 28.0988 6.45046 28.0157L6.69427 27.8735C6.74185 27.9552 6.79015 28.0363 6.83915 28.117ZM6.55382 27.6275L6.30744 27.7652C6.26057 27.6813 6.21444 27.597 6.16903 27.5122L6.41785 27.379C6.46242 27.4623 6.50777 27.5451 6.55382 27.6275ZM6.28644 27.128L6.03522 27.2567C5.99146 27.1711 5.94838 27.0851 5.90612 26.9987L6.15961 26.8747C6.20113 26.9596 6.24343 27.044 6.28644 27.128ZM6.03746 26.6191L5.78173 26.7385C5.74109 26.6514 5.70116 26.5639 5.66207 26.476L5.91994 26.3613C5.95834 26.4477 5.99749 26.5336 6.03746 26.6191ZM5.80716 26.1014L5.54727 26.2114C5.50981 26.1229 5.47313 26.034 5.43727 25.9447L5.69916 25.8395C5.73438 25.9272 5.77038 26.0145 5.80716 26.1014ZM5.59597 25.5757L5.33221 25.6761C5.298 25.5863 5.26461 25.4961 5.23203 25.4056L5.49758 25.31C5.52959 25.399 5.56237 25.4875 5.59597 25.5757ZM5.40411 25.0426L5.13683 25.1333C5.10598 25.0423 5.07591 24.951 5.04664 24.8593L5.31551 24.7735C5.34427 24.8635 5.37376 24.9533 5.40411 25.0426ZM5.2319 24.5028L4.9615 24.5837C4.934 24.4916 4.90728 24.3993 4.88141 24.3066L5.15326 24.2307C5.17866 24.3217 5.2049 24.4125 5.2319 24.5028ZM5.0796 23.9571L4.80639 24.028C4.78228 23.935 4.75901 23.8417 4.73649 23.7481L5.01091 23.6822C5.033 23.7742 5.05589 23.8658 5.0796 23.9571ZM4.94735 23.4062L4.67174 23.467C4.65104 23.3733 4.6312 23.2792 4.61213 23.1848L4.88879 23.129C4.90748 23.2217 4.92699 23.3141 4.94735 23.4062ZM4.83535 22.8508L4.55771 22.9016C4.54043 22.8071 4.52404 22.7124 4.50843 22.6173L4.78695 22.5717C4.80226 22.665 4.81838 22.7581 4.83535 22.8508ZM4.74367 22.2917L4.4644 22.3323C4.45059 22.2373 4.43761 22.142 4.42552 22.0465L4.7055 22.011C4.71739 22.1048 4.73012 22.1984 4.74367 22.2917ZM4.67241 21.7296L4.39186 21.76C4.3815 21.6646 4.37198 21.5689 4.36338 21.473L4.64444 21.4477C4.65294 21.5419 4.66229 21.6359 4.67241 21.7296ZM4.62161 21.1654L4.34008 21.1856C4.33324 21.0899 4.32721 20.9939 4.32203 20.8978L4.60383 20.8826C4.60895 20.9771 4.61484 21.0713 4.62161 21.1654ZM4.59117 20.5996L4.30912 20.6097C4.3057 20.5138 4.30313 20.4177 4.3014 20.3214L4.58358 20.3164C4.58527 20.411 4.58781 20.5054 4.59117 20.5996Z" fill="#001DA5"/>
<path d="M20.1812 35.1415C28.5254 35.1415 35.2896 28.3773 35.2896 20.0332C35.2896 11.689 28.5254 4.92468 20.1812 4.92468C11.837 4.92468 5.07275 11.689 5.07275 20.0332C5.07275 28.3773 11.837 35.1415 20.1812 35.1415Z" stroke="#001DA5" stroke-width="0.281919" stroke-miterlimit="1.5" stroke-linejoin="round"/>
<path fill-rule="evenodd" clip-rule="evenodd" d="M31.9199 8.78145L31.0654 9.53533C29.0649 7.44289 26.5948 6.08473 23.5952 5.3002L23.7273 4.15076C26.8963 5.03702 29.652 6.44849 31.9199 8.78145Z" fill="#001DA5"/>
<path fill-rule="evenodd" clip-rule="evenodd" d="M22.0003 36.2876L21.9224 35.1507C24.8002 34.8375 27.3813 33.7045 29.8297 31.8022L30.6613 32.6067C28.0291 34.5814 25.2318 35.9087 22.0003 36.2876Z" fill="#001DA5"/>
<path fill-rule="evenodd" clip-rule="evenodd" d="M5.09888 26.244L6.16823 25.8502C7.27642 28.5246 9.088 30.6842 11.6008 32.5006L11.0619 33.5244C8.428 31.5519 6.36936 29.2393 5.09888 26.244Z" fill="#001DA5"/>
<path fill-rule="evenodd" clip-rule="evenodd" d="M14.9015 4.78027L15.1874 5.70924C14.4502 5.93927 13.2802 6.45537 12.6676 6.86295L12.2468 5.99796C12.6366 5.67416 14.4674 4.79921 14.9015 4.78027Z" fill="#001DA5"/>
<path fill-rule="evenodd" clip-rule="evenodd" d="M35.1773 26.2124L34.2751 25.8502C33.9849 26.5657 33.3731 27.6887 32.916 28.2654L33.743 28.7566C34.098 28.395 35.1221 26.6434 35.1773 26.2124Z" fill="#001DA5"/>
<path fill-rule="evenodd" clip-rule="evenodd" d="M6.12059 11.9014L7.11364 12.3504C6.39485 13.0792 5.06219 17.2145 5.1521 18.1862L4.11811 17.9369C4.03873 17.0249 5.49477 12.2448 6.12059 11.9014Z" fill="#001DA5"/>
<path fill-rule="evenodd" clip-rule="evenodd" d="M36.4291 19.3926L35.3505 19.5474C35.5652 18.5465 34.4672 14.3428 33.8691 13.5716L34.8753 13.2263C35.4321 13.9529 36.7726 18.7666 36.4291 19.3926Z" fill="#001DA5"/>
<path d="M13.009 31.9807C13.0641 31.8962 13.1185 31.8117 13.1722 31.7273C13.2258 31.6428 13.2781 31.5595 13.329 31.4772L13.4288 31.3158C13.2518 31.3804 13.0575 31.4467 12.8458 31.5146C12.6342 31.5825 12.524 31.6235 12.5153 31.6376C12.5075 31.6503 12.5097 31.664 12.5219 31.6788C12.5341 31.6937 12.561 31.714 12.6025 31.7396C12.613 31.7461 12.6341 31.7587 12.6659 31.7774C12.6976 31.796 12.7237 31.8116 12.7441 31.8242C12.7694 31.8399 12.826 31.8734 12.9138 31.9248C12.9543 31.9488 12.986 31.9675 13.009 31.9807ZM12.9085 32.1315C12.8036 32.0667 12.6939 31.9973 12.5792 31.9235C12.5501 31.9045 12.532 31.8929 12.525 31.8885C12.4617 31.8494 12.4078 31.8183 12.3633 31.7951C12.3188 31.772 12.2833 31.7566 12.2569 31.749C12.2501 31.7128 12.2483 31.6811 12.2516 31.6539C12.2548 31.6267 12.2633 31.6018 12.2772 31.5793C12.3146 31.5189 12.4914 31.4405 12.8074 31.3443C12.9576 31.2981 13.0775 31.2605 13.1674 31.2315C13.1862 31.2247 13.2132 31.2155 13.2484 31.2043C13.5229 31.1125 13.6868 31.0831 13.7403 31.1161C13.7614 31.1292 13.7719 31.1456 13.7718 31.1655C13.7716 31.1853 13.7594 31.215 13.7351 31.2544C13.7286 31.2649 13.7081 31.2941 13.6737 31.3418C13.5077 31.5726 13.3534 31.8033 13.2107 32.034L13.1814 32.0815C13.2335 32.1137 13.2809 32.1384 13.3237 32.1556C13.3665 32.1728 13.4047 32.1826 13.4383 32.1849C13.4352 32.2102 13.4311 32.2322 13.4259 32.2509C13.4207 32.2695 13.414 32.2855 13.4057 32.2989C13.3814 32.3383 13.3513 32.3586 13.3155 32.3598C13.2798 32.361 13.232 32.3431 13.1722 32.3062C13.1568 32.2966 13.1314 32.2795 13.0961 32.2548C13.0909 32.2506 13.0869 32.2476 13.0841 32.2459C13.0526 32.2984 13.0164 32.3598 12.9753 32.4302C12.9342 32.5005 12.9085 32.5441 12.8981 32.561C12.8685 32.6088 12.8414 32.638 12.8169 32.6486C12.7924 32.6592 12.7643 32.6547 12.7327 32.6352C12.7122 32.6225 12.6918 32.6041 12.6714 32.5798C12.6509 32.5555 12.6295 32.5253 12.6072 32.4891C12.6475 32.4664 12.6923 32.4258 12.7415 32.3673C12.7908 32.3088 12.8465 32.2302 12.9085 32.1315Z" fill="#001DA5" stroke="#001DA5" stroke-width="0.211509" stroke-miterlimit="2" stroke-linejoin="round"/>
<path d="M13.5622 32.7219C13.5803 32.7682 13.606 32.8083 13.6392 32.8422C13.6725 32.8761 13.7148 32.9054 13.7662 32.9301C13.904 32.9965 14.0363 33.013 14.1627 32.9799C14.2893 32.9467 14.3803 32.8724 14.4359 32.7569C14.4793 32.6667 14.4837 32.5824 14.449 32.5037C14.4143 32.4251 14.3445 32.3605 14.2394 32.31C14.1776 32.2802 14.1091 32.2558 14.0339 32.2366C13.9587 32.2174 13.9178 32.2061 13.9111 32.2029C13.8902 32.1929 13.8771 32.1801 13.8717 32.1647C13.8663 32.1492 13.8686 32.1311 13.8786 32.1102C13.8836 32.0998 13.9401 32.0253 14.048 31.8869C14.1559 31.7484 14.2579 31.6156 14.354 31.4884C14.4111 31.5204 14.4619 31.5483 14.5065 31.5721C14.551 31.5958 14.5927 31.617 14.6314 31.6356C14.7417 31.6887 14.8339 31.7278 14.908 31.7529C14.9822 31.7781 15.045 31.7925 15.0965 31.7961C15.0979 31.8216 15.0971 31.8448 15.0939 31.8657C15.0907 31.8867 15.0853 31.905 15.0778 31.9206C15.0549 31.9683 15.0207 31.9921 14.9754 31.9918C14.9301 31.9916 14.8415 31.9597 14.7097 31.8963C14.6612 31.873 14.6112 31.8482 14.5596 31.822C14.508 31.7958 14.4544 31.7679 14.3988 31.7384C14.372 31.7751 14.3367 31.8228 14.2929 31.8815C14.249 31.9402 14.1977 32.0078 14.1389 32.0841C14.1902 32.0977 14.2347 32.1111 14.2724 32.1242C14.3101 32.1373 14.3424 32.1503 14.3692 32.1632C14.5212 32.2364 14.6229 32.333 14.6743 32.4532C14.7256 32.5733 14.7196 32.6993 14.6562 32.8312C14.6206 32.905 14.5737 32.9687 14.5154 33.0222C14.457 33.0758 14.3912 33.1157 14.318 33.142C14.2033 33.1841 14.0875 33.2015 13.9707 33.1944C13.8539 33.1873 13.7393 33.1567 13.6268 33.1025C13.5419 33.0617 13.4812 33.018 13.4448 32.9716C13.4084 32.9252 13.4001 32.8815 13.4198 32.8405C13.4288 32.8219 13.4451 32.8027 13.4689 32.7829C13.4926 32.7632 13.5237 32.7428 13.5622 32.7219Z" fill="#001DA5" stroke="#001DA5" stroke-width="0.211509" stroke-miterlimit="2" stroke-linejoin="round"/>
<path d="M15.2621 32.7218C15.2489 32.7169 15.2305 32.7106 15.2069 32.7031C15.1832 32.6956 15.1679 32.6905 15.1609 32.6879C15.1292 32.676 15.1086 32.6632 15.0991 32.6495C15.0897 32.6358 15.089 32.6181 15.0971 32.5964C15.1009 32.5864 15.1071 32.5752 15.1157 32.563C15.1242 32.5507 15.1356 32.5375 15.1497 32.5234C15.1559 32.5257 15.1662 32.5301 15.1806 32.5363C15.195 32.5426 15.2065 32.5474 15.215 32.5505C15.2351 32.5581 15.2677 32.569 15.3127 32.5832C15.3181 32.5852 15.3225 32.5864 15.3259 32.5868C15.3291 32.5783 15.3343 32.5657 15.3415 32.5489C15.3486 32.5322 15.3536 32.5199 15.3566 32.5122C15.3792 32.4518 15.3952 32.3971 15.4048 32.3481C15.4143 32.2992 15.4175 32.2542 15.4143 32.2133C15.4537 32.2095 15.4881 32.2083 15.5176 32.2096C15.5471 32.211 15.5712 32.2152 15.5897 32.2221C15.6215 32.234 15.6408 32.2525 15.6477 32.2776C15.6547 32.3027 15.6497 32.3378 15.6329 32.3827C15.6256 32.402 15.5994 32.4615 15.5541 32.5611C15.5375 32.5981 15.5243 32.6276 15.5143 32.6495C15.5616 32.6601 15.6038 32.6706 15.6409 32.681C15.6781 32.6914 15.711 32.702 15.7397 32.7127C15.7652 32.7223 15.7819 32.7338 15.7896 32.7473C15.7973 32.7609 15.7973 32.778 15.7895 32.7989C15.7851 32.8105 15.7762 32.8238 15.7627 32.8386C15.7492 32.8534 15.7318 32.8692 15.7105 32.8859C15.6921 32.8737 15.6721 32.8623 15.6506 32.8515C15.6289 32.8408 15.6023 32.8295 15.5706 32.8176C15.5651 32.8155 15.5487 32.81 15.5211 32.801C15.4936 32.792 15.47 32.7843 15.4504 32.7778C15.3981 32.896 15.3558 32.9936 15.3234 33.0706C15.291 33.1477 15.2655 33.211 15.247 33.2605C15.2066 33.3681 15.1879 33.447 15.1907 33.4971C15.1936 33.5471 15.2175 33.5806 15.2624 33.5974C15.2748 33.602 15.2886 33.6046 15.3039 33.605C15.3192 33.6055 15.3357 33.6033 15.3534 33.5984C15.3546 33.6165 15.3545 33.632 15.3533 33.6447C15.352 33.6575 15.3497 33.6685 15.3462 33.6778C15.332 33.7158 15.3046 33.741 15.2641 33.7537C15.2236 33.7663 15.1782 33.7632 15.1279 33.7444C15.0443 33.713 14.9925 33.6621 14.9726 33.5914C14.9527 33.5209 14.9642 33.4283 15.0072 33.3137C15.0193 33.2812 15.0555 33.1965 15.1156 33.0596C15.1757 32.9228 15.2245 32.8102 15.2621 32.7218Z" fill="#001DA5" stroke="#001DA5" stroke-width="0.211509" stroke-miterlimit="2" stroke-linejoin="round"/>
<path d="M16.0297 33.9801C15.9938 33.9889 15.9603 33.9936 15.9293 33.9939C15.8983 33.9943 15.8688 33.9906 15.841 33.9831C15.8043 33.9726 15.782 33.956 15.7738 33.9326C15.7657 33.9096 15.7705 33.8659 15.7883 33.8022C15.7925 33.7871 15.8306 33.6711 15.9026 33.4542C15.9745 33.2374 16.0389 33.027 16.0956 32.8231C16.1502 32.6272 16.1827 32.4933 16.1933 32.4216C16.2038 32.3498 16.204 32.2907 16.1937 32.244C16.2339 32.2355 16.2688 32.2311 16.2985 32.2307C16.3282 32.2304 16.355 32.2336 16.3789 32.2402C16.4156 32.2504 16.438 32.2685 16.4463 32.2944C16.4545 32.3203 16.4499 32.3643 16.4326 32.4264C16.4302 32.4352 16.4096 32.4962 16.3708 32.6094C16.332 32.7226 16.2961 32.8338 16.2631 32.9431C16.338 32.9176 16.4089 32.9024 16.476 32.8974C16.543 32.8925 16.6056 32.8981 16.6637 32.9143C16.7968 32.9514 16.889 33.0215 16.9405 33.1246C16.9921 33.2278 16.9973 33.3531 16.9563 33.5004C16.9485 33.5283 16.9341 33.5756 16.913 33.6422C16.8918 33.7089 16.8757 33.7621 16.8646 33.8019C16.8347 33.9096 16.8167 33.9919 16.8107 34.0488C16.8047 34.106 16.8078 34.1555 16.8201 34.1975C16.7784 34.2056 16.7424 34.2104 16.712 34.2114C16.6817 34.2124 16.6558 34.2097 16.6343 34.2039C16.5969 34.1934 16.5738 34.1768 16.5651 34.1545C16.5563 34.1318 16.5597 34.0925 16.5752 34.0366C16.5854 34 16.6069 33.9323 16.6396 33.8332C16.6724 33.7342 16.6977 33.6524 16.7157 33.5879C16.7607 33.4262 16.7727 33.3058 16.7519 33.2266C16.731 33.1474 16.674 33.0948 16.5808 33.0689C16.5306 33.0549 16.4777 33.05 16.422 33.0543C16.3663 33.0585 16.299 33.0728 16.2202 33.0972C16.1992 33.1601 16.1786 33.2256 16.1584 33.2937C16.1381 33.3619 16.118 33.4318 16.098 33.5035C16.0612 33.6358 16.0382 33.7362 16.0289 33.8049C16.0197 33.8734 16.0199 33.932 16.0297 33.9801Z" fill="#001DA5" stroke="#001DA5" stroke-width="0.211509" stroke-miterlimit="2" stroke-linejoin="round"/>
<path d="M20.3877 34.6635C20.2415 34.5098 20.0401 34.2727 19.7837 33.9527C19.5273 33.6324 19.3353 33.4007 19.2078 33.2574C19.1981 33.5682 19.1928 33.8964 19.1919 34.2422C19.1922 34.334 19.1919 34.3899 19.1913 34.4099C19.1885 34.4915 19.178 34.5447 19.1598 34.5694C19.1416 34.5941 19.109 34.6056 19.0619 34.6039C19.0313 34.6029 18.9996 34.5965 18.967 34.5846C18.9343 34.5728 18.9017 34.5558 18.8694 34.5342C18.9166 34.4597 18.9516 34.3513 18.9746 34.2094C18.9976 34.0675 19.0152 33.8164 19.0273 33.4561C19.033 33.2867 19.0266 33.1661 19.0079 33.0943C18.9892 33.0225 18.9539 32.9717 18.9019 32.9418C18.9398 32.9001 18.973 32.8704 19.0017 32.8528C19.0305 32.8351 19.0589 32.8268 19.087 32.8277C19.1134 32.8286 19.1391 32.8379 19.1642 32.8558C19.1892 32.8735 19.2196 32.9046 19.2554 32.9488C19.2617 32.9565 19.2764 32.9752 19.2994 33.0049C19.6032 33.3923 19.9448 33.8122 20.3242 34.2642C20.3308 34.1413 20.3363 34.0326 20.3407 33.9384C20.3452 33.8442 20.3485 33.7637 20.3508 33.6967C20.3581 33.4769 20.3551 33.3091 20.3416 33.1932C20.3282 33.0774 20.3028 32.9841 20.2654 32.9133C20.3033 32.8948 20.3375 32.8812 20.368 32.8728C20.3984 32.8643 20.4269 32.8605 20.4533 32.8613C20.5005 32.8629 20.5324 32.8779 20.5493 32.9061C20.5661 32.9344 20.573 32.9944 20.5699 33.0861C20.568 33.1407 20.5588 33.2746 20.5421 33.4879C20.5253 33.7012 20.5143 33.888 20.5089 34.0482C20.5054 34.1525 20.5046 34.25 20.5065 34.3411C20.5084 34.4322 20.5125 34.5176 20.519 34.5972L20.3877 34.6635Z" fill="#001DA5" stroke="#001DA5" stroke-width="0.211509" stroke-miterlimit="2" stroke-linejoin="round"/>
<path d="M20.9756 32.9042C21.0092 32.8793 21.0428 32.8595 21.0765 32.8446C21.1101 32.8297 21.1437 32.8203 21.1774 32.8162C21.2209 32.811 21.2521 32.8199 21.2711 32.843C21.2902 32.8661 21.3043 32.9159 21.3135 32.9922C21.3175 33.0259 21.3251 33.1265 21.3361 33.2943C21.3472 33.462 21.3607 33.612 21.3766 33.7441C21.4061 33.9896 21.462 34.159 21.544 34.2525C21.626 34.3456 21.7495 34.3825 21.9145 34.3625C22.1066 34.3395 22.2379 34.2572 22.3082 34.1153C22.3786 33.9737 22.3961 33.7558 22.3607 33.4619C22.3385 33.278 22.31 33.129 22.275 33.015C22.24 32.901 22.1985 32.8206 22.1504 32.774C22.1836 32.745 22.2144 32.7225 22.2429 32.7066C22.2713 32.6907 22.2979 32.6812 22.3225 32.6782C22.3866 32.6705 22.4343 32.6987 22.4657 32.7628C22.4972 32.8269 22.5273 32.9788 22.5562 33.2185C22.6105 33.6692 22.5875 33.9984 22.4873 34.2067C22.387 34.415 22.1949 34.5363 21.9109 34.5705C21.6769 34.5986 21.5009 34.5586 21.383 34.4502C21.265 34.3422 21.1894 34.1498 21.156 33.8731C21.1486 33.8115 21.1403 33.7239 21.1312 33.61C21.1221 33.4962 21.1144 33.4134 21.1082 33.3617C21.0946 33.2492 21.0772 33.1562 21.0558 33.0826C21.0344 33.0089 21.0077 32.9495 20.9756 32.9042Z" fill="#001DA5" stroke="#001DA5" stroke-width="0.211509" stroke-miterlimit="2" stroke-linejoin="round"/>
<path d="M24.0314 34.055C23.9987 34.0865 23.9664 34.1122 23.9347 34.1315C23.903 34.1508 23.872 34.1644 23.8416 34.1725C23.8008 34.183 23.7692 34.1793 23.7469 34.1607C23.7245 34.142 23.7052 34.1017 23.6889 34.0394C23.6783 33.9984 23.6501 33.8731 23.6043 33.6634C23.5586 33.4535 23.514 33.2654 23.4706 33.099C23.4595 33.0566 23.4349 32.9673 23.3968 32.8311C23.3787 32.765 23.3646 32.7126 23.3546 32.6742L23.2634 32.698C23.1458 32.7287 23.0522 32.7587 22.9825 32.788C22.9127 32.8173 22.8612 32.8482 22.8279 32.8809C22.8003 32.8505 22.7788 32.8238 22.7635 32.8009C22.748 32.778 22.7379 32.7569 22.7329 32.7377C22.7235 32.7017 22.7293 32.6731 22.7502 32.6519C22.7711 32.6305 22.8124 32.6119 22.874 32.5958C22.906 32.5875 22.9985 32.5672 23.1516 32.5349C23.3047 32.5027 23.4413 32.4709 23.5613 32.4396C23.7061 32.4018 23.82 32.3661 23.9031 32.3325C23.9862 32.2988 24.0469 32.2638 24.0852 32.2273C24.1079 32.2487 24.1259 32.269 24.139 32.2883C24.1521 32.3075 24.1611 32.3263 24.1659 32.3447C24.1772 32.3879 24.1694 32.4239 24.1428 32.4526C24.1161 32.4814 24.0691 32.5045 24.0019 32.522C23.9771 32.5285 23.9166 32.542 23.8202 32.5625C23.7239 32.583 23.6471 32.5998 23.5898 32.6129C23.6208 32.7545 23.651 32.8875 23.6805 33.0119C23.7099 33.1364 23.7382 33.2507 23.7654 33.3547C23.8174 33.5541 23.8644 33.709 23.9065 33.8195C23.9486 33.93 23.9902 34.0086 24.0314 34.055Z" fill="#001DA5" stroke="#001DA5" stroke-width="0.211509" stroke-miterlimit="2" stroke-linejoin="round"/>
<path d="M25.5203 32.4861C25.5327 32.4972 25.5436 32.5091 25.5531 32.5218C25.5625 32.5346 25.5699 32.5475 25.575 32.5605C25.5938 32.6082 25.5934 32.6471 25.5736 32.677C25.5539 32.7071 25.5075 32.7365 25.4344 32.7653C25.4275 32.768 25.4114 32.7744 25.386 32.7844C25.2946 32.8186 25.2105 32.851 25.1335 32.8813C25.1205 32.8864 25.0987 32.8955 25.0682 32.9084C25.0378 32.9213 25.0141 32.9311 24.9972 32.9378C25.0791 33.1454 25.1476 33.3017 25.2028 33.4066C25.2579 33.5115 25.3083 33.5834 25.3538 33.6223C25.3245 33.6561 25.2959 33.6843 25.2679 33.7069C25.2399 33.7295 25.2128 33.746 25.1867 33.7563C25.1452 33.7726 25.1123 33.7734 25.0882 33.7585C25.0641 33.7435 25.0402 33.706 25.0166 33.646C25.0068 33.6214 24.9579 33.4843 24.8696 33.2347C24.7814 32.9851 24.6935 32.7491 24.6058 32.5268C24.5721 32.4414 24.5393 32.3679 24.5075 32.3063C24.4756 32.2447 24.4426 32.1908 24.4084 32.1447C24.4482 32.1308 24.4855 32.1176 24.5202 32.1053C24.5549 32.0929 24.586 32.0813 24.6137 32.0704C24.703 32.0352 24.809 31.9885 24.9318 31.9303C25.0546 31.8721 25.1352 31.8354 25.1737 31.8202C25.2329 31.7968 25.2772 31.7874 25.3065 31.7918C25.3358 31.7963 25.3571 31.8154 25.3705 31.8493C25.3796 31.8723 25.3852 31.8985 25.3875 31.9279C25.3897 31.9572 25.3886 31.991 25.3841 32.0292C25.3435 32.023 25.2905 32.0274 25.2254 32.0425C25.1602 32.0575 25.0826 32.0828 24.9926 32.1183C24.9603 32.131 24.9221 32.1468 24.8779 32.1655C24.8337 32.1843 24.7845 32.2057 24.73 32.2299L24.793 32.393C24.8033 32.4192 24.827 32.4814 24.864 32.5796C24.8917 32.6523 24.914 32.711 24.9308 32.756C24.9429 32.7529 24.9552 32.7492 24.9677 32.7447C24.9802 32.7402 24.9968 32.7339 25.0175 32.7257C25.176 32.6632 25.2896 32.6153 25.3582 32.5821C25.4268 32.5488 25.4808 32.5168 25.5203 32.4861Z" fill="#001DA5" stroke="#001DA5" stroke-width="0.211509" stroke-miterlimit="2" stroke-linejoin="round"/>
<path d="M26.653 31.3957C26.605 31.3986 26.5511 31.4103 26.4915 31.431C26.4318 31.4517 26.3595 31.4843 26.2747 31.529C26.2396 31.5475 26.175 31.5829 26.0811 31.6351C26.058 31.6482 26.0403 31.658 26.0279 31.6646L26.2744 32.1543C26.295 32.1453 26.3166 32.1349 26.3392 32.1229C26.3619 32.111 26.3978 32.0922 26.4468 32.0663C26.5441 32.0151 26.6232 31.9706 26.6842 31.9329C26.7452 31.8952 26.788 31.8643 26.8127 31.8401C26.8322 31.8559 26.8483 31.8706 26.861 31.884C26.8736 31.8974 26.8833 31.9104 26.8898 31.9228C26.9083 31.9579 26.9103 31.9891 26.8957 32.0164C26.8811 32.0437 26.8478 32.0711 26.7959 32.0984C26.7791 32.1073 26.7372 32.1284 26.6702 32.1618C26.6032 32.1952 26.5455 32.2246 26.4972 32.25C26.4607 32.2693 26.4326 32.2843 26.413 32.295C26.3935 32.3058 26.3755 32.316 26.359 32.3256C26.4026 32.4082 26.4479 32.4967 26.4952 32.591C26.5425 32.6852 26.5936 32.7889 26.6485 32.902C26.6558 32.8982 26.667 32.8928 26.682 32.8858C26.779 32.8375 26.848 32.8026 26.889 32.781C26.9673 32.7398 27.0316 32.7001 27.082 32.6619C27.1324 32.6237 27.1738 32.5829 27.2062 32.5397C27.2369 32.559 27.2613 32.5773 27.2792 32.5945C27.2972 32.6117 27.3107 32.6291 27.3199 32.6466C27.3404 32.6854 27.3419 32.7194 27.3246 32.7486C27.3073 32.7778 27.2628 32.8113 27.1911 32.849C27.156 32.8675 27.1027 32.8942 27.0313 32.929C26.9599 32.9637 26.907 32.9902 26.8726 33.0083C26.7951 33.0491 26.7185 33.0918 26.6428 33.1363C26.6271 33.1454 26.6174 33.151 26.6138 33.153C26.5882 33.1664 26.567 33.1701 26.5502 33.164C26.5335 33.1579 26.5174 33.1402 26.502 33.1109C26.4939 33.0956 26.4751 33.0554 26.4456 32.9906C26.3379 32.7576 26.2319 32.542 26.1275 32.3437C26.0239 32.1469 25.9374 31.9911 25.8681 31.8762C25.7987 31.7614 25.7411 31.6782 25.6953 31.6266L25.8347 31.5532C26.0059 31.4631 26.1789 31.365 26.3539 31.2589C26.3915 31.2362 26.4143 31.2228 26.4224 31.2186C26.4816 31.1874 26.5257 31.1726 26.5546 31.1742C26.5835 31.1758 26.6068 31.1935 26.6245 31.2271C26.6345 31.2462 26.6419 31.2696 26.6468 31.2974C26.6516 31.3252 26.6537 31.358 26.653 31.3957Z" fill="#001DA5" stroke="#001DA5" stroke-width="0.211509" stroke-miterlimit="2" stroke-linejoin="round"/>
<path d="M27.6972 32.2351C27.7374 32.2315 27.7753 32.2234 27.8111 32.2108C27.8468 32.1982 27.882 32.1806 27.9166 32.1579C27.9988 32.104 28.0515 32.043 28.0746 31.9749C28.0978 31.9069 28.0885 31.841 28.0467 31.7774C27.9968 31.7014 27.8772 31.6538 27.6876 31.6347C27.6865 31.6345 27.6859 31.6344 27.6859 31.6344C27.683 31.6343 27.6783 31.634 27.6719 31.6332C27.3989 31.6075 27.2264 31.5397 27.1543 31.4298C27.1212 31.3793 27.0996 31.3223 27.0895 31.2587C27.0795 31.1951 27.0815 31.1295 27.0955 31.0619C27.1176 30.9615 27.1536 30.8723 27.2035 30.7946C27.2534 30.7169 27.3156 30.6536 27.3903 30.6046C27.4443 30.5692 27.4906 30.5517 27.5294 30.552C27.5681 30.5523 27.5993 30.5704 27.6229 30.6064C27.631 30.6188 27.6373 30.6382 27.6417 30.6645C27.6461 30.6908 27.6487 30.7234 27.6495 30.7624C27.6153 30.769 27.5823 30.7786 27.5504 30.7911C27.5186 30.8036 27.4881 30.8193 27.4591 30.8384C27.3706 30.8964 27.3143 30.9617 27.2902 31.0344C27.2662 31.107 27.2768 31.1779 27.3222 31.247C27.3494 31.2885 27.3843 31.3195 27.4269 31.34C27.4695 31.3605 27.5342 31.3759 27.6211 31.3862C27.6339 31.3877 27.6526 31.3898 27.6771 31.3924C27.9685 31.4268 28.1501 31.4986 28.2218 31.6078C28.2489 31.6493 28.2683 31.6949 28.2797 31.7448C28.2911 31.7947 28.2947 31.8487 28.2903 31.9069C28.282 32.0043 28.2518 32.0951 28.1997 32.1792C28.1476 32.2633 28.0779 32.3339 27.9908 32.391C27.9321 32.4296 27.8809 32.4485 27.8375 32.4478C27.794 32.4472 27.7594 32.4271 27.7336 32.3877C27.7217 32.3697 27.7128 32.3482 27.7067 32.323C27.7006 32.2979 27.6974 32.2686 27.6972 32.2351Z" fill="#001DA5" stroke="#001DA5" stroke-width="0.211509" stroke-miterlimit="2" stroke-linejoin="round"/>
</g>
</g>
</svg>
