<svg width="140" height="140" viewBox="0 0 140 140" fill="none" xmlns="http://www.w3.org/2000/svg">
<rect width="140" height="140" fill="#D9D9D9"/>
<mask id="mask0_619_4019" style="mask-type:luminance" maskUnits="userSpaceOnUse" x="0" y="0" width="140" height="140">
<path d="M140 0H0V140H140V0Z" fill="white"/>
</mask>
<g mask="url(#mask0_619_4019)">
<path d="M140 0.116211H0V140.116H140V0.116211Z" fill="#001DA5"/>
<mask id="mask1_619_4019" style="mask-type:luminance" maskUnits="userSpaceOnUse" x="0" y="0" width="140" height="141">
<path d="M140 0.116211H0V140.116H140V0.116211Z" fill="white"/>
</mask>
<g mask="url(#mask1_619_4019)">
<path fill-rule="evenodd" clip-rule="evenodd" d="M35.1863 46.962L38.2534 58.5425L32.8485 55.295L28.4817 43.4308L35.1863 46.962Z" fill="white" stroke="white" stroke-width="0.740062" stroke-miterlimit="1.5" stroke-linecap="square"/>
<path fill-rule="evenodd" clip-rule="evenodd" d="M55.4807 56.2979L54.3836 60.913L52.1401 58.2356L52.404 53.8074L55.4807 56.2979Z" fill="white" stroke="white" stroke-width="0.740062" stroke-miterlimit="1.5" stroke-linecap="square"/>
<path fill-rule="evenodd" clip-rule="evenodd" d="M72.6277 54.402L68.4387 57.4661L67.794 54.1741L70.9711 50.8195L72.6277 54.402Z" fill="white" stroke="white" stroke-width="0.732352" stroke-miterlimit="1.5" stroke-linecap="square"/>
<path fill-rule="evenodd" clip-rule="evenodd" d="M82.4919 56.6515L79.969 60.5469L83.2845 60.4961L86.2124 57.3638L82.4919 56.6515Z" fill="white" stroke="white" stroke-width="0.741125" stroke-miterlimit="1.5" stroke-linecap="square"/>
<path fill-rule="evenodd" clip-rule="evenodd" d="M96.8059 89.5374L102.39 93.7576L94.1454 97.487L90.5015 92.8118L96.8059 89.5374Z" fill="white" stroke="white" stroke-width="0.740709" stroke-miterlimit="1.5" stroke-linecap="square"/>
<path fill-rule="evenodd" clip-rule="evenodd" d="M72.717 96.9642L73.8105 105.863L69.2199 102.714L68.1519 95.6506L72.717 96.9642Z" fill="white" stroke="white" stroke-width="0.98816" stroke-miterlimit="1.5" stroke-linecap="square"/>
<path fill-rule="evenodd" clip-rule="evenodd" d="M32.1833 84.01L37.4428 81.637L37.4811 93.0039L32.1833 84.01Z" fill="white" stroke="white" stroke-width="0.730589" stroke-miterlimit="1.5" stroke-linecap="square"/>
<path fill-rule="evenodd" clip-rule="evenodd" d="M66.6903 31.3708L69.3222 36.1237L56.1783 51.7536L63.1655 66.9726L62.278 67.4353L54.5827 52.6219L66.6903 31.3708Z" fill="white" stroke="white" stroke-width="0.740446" stroke-miterlimit="1.5" stroke-linecap="square"/>
<path fill-rule="evenodd" clip-rule="evenodd" d="M113.575 58.8589L99.6499 60.1391L100.728 63.8466L92.9989 69.8355L78.1965 66.6888L78.6896 67.7592L92.9092 71.4791L101.339 64.5364L113.575 58.8589Z" fill="white" stroke="white" stroke-width="0.709676" stroke-miterlimit="1.5" stroke-linecap="square"/>
<path fill-rule="evenodd" clip-rule="evenodd" d="M78.2633 28.8999L73.9519 27.4194L70.2706 31.6601L73.1487 36.5292C73.1487 36.5292 58.5183 53.9495 58.4254 53.623C58.1792 52.7574 71.6343 36.4682 71.6343 36.4682L68.7499 31.703L73.7595 26.6763L78.2633 28.8999Z" fill="white" stroke="white" stroke-width="0.740446" stroke-miterlimit="1.5" stroke-linecap="square"/>
<path d="M68.5746 76.0846L76.0403 77.7254L81.0772 86.624" stroke="white" stroke-width="0.98816" stroke-miterlimit="1.5" stroke-linecap="square"/>
<path d="M38.1696 40.8133L42.8473 43.2813" stroke="white" stroke-width="1.00781" stroke-miterlimit="1.5" stroke-linecap="square"/>
<path d="M77.4959 42.7101L78.9839 45.6534" stroke="white" stroke-width="1.30603" stroke-miterlimit="1.5" stroke-linecap="square"/>
<path d="M98.2412 79.6163L101.386 85.1721" stroke="white" stroke-width="0.927584" stroke-miterlimit="1.5" stroke-linecap="square"/>
<path d="M63.8004 47.3196L66.0612 51.7917" stroke="white" stroke-width="1.03483" stroke-miterlimit="1.5" stroke-linecap="square"/>
<path d="M78.3342 37.3073L82.8467 46.2334" stroke="white" stroke-width="0.800056" stroke-miterlimit="1.5" stroke-linecap="square"/>
<path d="M60.9623 51.1226L65.4748 60.0488" stroke="white" stroke-width="0.800056" stroke-miterlimit="1.5" stroke-linecap="square"/>
<path d="M50.1502 39.3075L60.8983 41.5798" stroke="white" stroke-width="0.98816" stroke-miterlimit="1.5" stroke-linecap="square"/>
<path d="M81.4551 89.8237L81.3905 98.0872" stroke="white" stroke-width="0.98816" stroke-miterlimit="1.5" stroke-linecap="square"/>
<path d="M81.4208 102.053L78.8262 109.077" stroke="white" stroke-width="0.948292" stroke-miterlimit="1.5" stroke-linecap="square"/>
<path fill-rule="evenodd" clip-rule="evenodd" d="M37.9543 38.2764L43.5318 40.5008L48.4283 36.8919L62.3853 39.3815L55.0169 52.8916L55.7705 55.5569L54.4068 60.9005L43.8095 57.5593L39.9777 59.5417L32.9023 55.3937L28.4894 43.5157L37.9543 38.2764Z" stroke="white" stroke-width="0.740446" stroke-miterlimit="1.5" stroke-linecap="square"/>
<path fill-rule="evenodd" clip-rule="evenodd" d="M69.0323 73.1157L80.068 75.6826L85.7928 85.8476L84.5249 101.587L80.8584 110.829L69.2415 102.676L68.1459 95.608L55.5666 90.5717L52.9766 85.5834L59.3308 71.684L63.7567 73.9414L69.0323 73.1157Z" stroke="white" stroke-width="0.98816" stroke-miterlimit="1.5" stroke-linecap="square"/>
<path d="M64.5255 76.8998L71.7013 80.2811L77.3638 95.458" stroke="white" stroke-width="0.98816" stroke-miterlimit="1.5" stroke-linecap="square"/>
<path d="M54.1915 61.0177L43.8186 57.4568L29.0057 66.5397L26.9945 83.1773L37.2825 93.112L37.2554 81.651L44.1188 77.7804L54.5928 82.0102L55.3 80.4924M54.1915 61.0177L60.4726 63.0679M54.1915 61.0177L54.3992 64.5105M55.3 80.4924L56.0805 78.8171M55.3 80.4924L47.096 76.3788M54.3992 64.5105L42.85 61.2281L31.5386 68.4875L29.5681 82.3786M54.3992 64.5105L55.0586 65.7222L67.8409 73.1865L63.69 73.9322L59.4288 71.6307L56.0805 78.8171M56.0805 78.8171L46.7768 74.2517L34.2871 80.5117" stroke="white" stroke-width="0.740446" stroke-miterlimit="1.5" stroke-linecap="square"/>
<path d="M85.7172 46.7773L78.8374 32.8291L80.4718 27.8942L74.4058 24.6628L66.7761 31.2771L54.8993 52.4497L55.7998 55.0469L54.8619 60.6528L54.8385 65.7538L68.6108 73.2334M85.7172 46.7773L69.047 62.9484M85.7172 46.7773L91.5859 42.3041L104.861 45.4274L106.762 51.5726L114.274 58.5997M68.6108 73.2334L69.9406 73.1073M68.6108 73.2334L65.5415 67.593L68.5705 57.2516M114.274 58.5997L105.135 52.4997L102.4 46.1941L91.8551 43.8854L71.554 63.3241M114.274 58.5997L101.501 64.2834L89.8168 73.8414L76.6029 70.4407L71.1668 73.3864L69.9406 73.1073M69.9406 73.1073L70.6464 66.5322L80.4127 60.2124" stroke="white" stroke-width="0.740446" stroke-miterlimit="1.5" stroke-linecap="square"/>
<path d="M103.527 83.6045L107.862 80.9363L103.367 70.7632L96.1009 68.7189L89.7871 73.7392L77.1359 70.1579L71.1813 73.2782L79.8968 75.5141L85.708 85.7452L85.5561 88.8235L89.0509 90.1219L96.5434 89.521L102.379 93.7633L103.527 83.6045ZM103.527 83.6045L98.2805 75.919L85.1202 75.7526" stroke="white" stroke-width="0.98816" stroke-miterlimit="1.5" stroke-linecap="square"/>
<path d="M71.1537 4.87374C71.9369 4.87374 72.5718 4.23873 72.5718 3.45542C72.5718 2.67211 71.9369 2.03711 71.1537 2.03711C70.3704 2.03711 69.7356 2.67211 69.7356 3.45542C69.7356 4.23873 70.3704 4.87374 71.1537 4.87374Z" fill="white" stroke="white" stroke-width="0.987633" stroke-miterlimit="1.5" stroke-linejoin="round"/>
<path d="M31.9433 17.6385C32.7264 17.6385 33.3614 17.0035 33.3614 16.2203C33.3614 15.437 32.7264 14.8019 31.9433 14.8019C31.16 14.8019 30.5251 15.437 30.5251 16.2203C30.5251 17.0035 31.16 17.6385 31.9433 17.6385Z" fill="white" stroke="white" stroke-width="0.987633" stroke-miterlimit="1.5" stroke-linejoin="round"/>
<path d="M110.274 17.3984C111.057 17.3984 111.692 16.7634 111.692 15.9801C111.692 15.1968 111.057 14.5618 110.274 14.5618C109.49 14.5618 108.856 15.1968 108.856 15.9801C108.856 16.7634 109.49 17.3984 110.274 17.3984Z" fill="white" stroke="white" stroke-width="0.987633" stroke-miterlimit="1.5" stroke-linejoin="round"/>
<path d="M7.91723 50.7688C8.70044 50.7688 9.33537 50.1338 9.33537 49.3505C9.33537 48.5671 8.70044 47.9321 7.91723 47.9321C7.13401 47.9321 6.49908 48.5671 6.49908 49.3505C6.49908 50.1338 7.13401 50.7688 7.91723 50.7688Z" fill="white" stroke="white" stroke-width="0.987633" stroke-miterlimit="1.5" stroke-linejoin="round"/>
<path d="M133.971 48.911C134.755 48.911 135.39 48.276 135.39 47.4927C135.39 46.7094 134.755 46.0744 133.971 46.0744C133.189 46.0744 132.554 46.7094 132.554 47.4927C132.554 48.276 133.189 48.911 133.971 48.911Z" fill="white" stroke="white" stroke-width="0.987633" stroke-miterlimit="1.5" stroke-linejoin="round"/>
<path d="M9.17509 95.7766C9.95831 95.7766 10.5932 95.1416 10.5932 94.3583C10.5932 93.5749 9.95831 92.9399 9.17509 92.9399C8.39187 92.9399 7.75694 93.5749 7.75694 94.3583C7.75694 95.1416 8.39187 95.7766 9.17509 95.7766Z" fill="white" stroke="white" stroke-width="0.987633" stroke-miterlimit="1.5" stroke-linejoin="round"/>
<path d="M133.971 94.5789C134.755 94.5789 135.39 93.944 135.39 93.1606C135.39 92.3773 134.755 91.7423 133.971 91.7423C133.189 91.7423 132.554 92.3773 132.554 93.1606C132.554 93.944 133.189 94.5789 133.971 94.5789Z" fill="white" stroke="white" stroke-width="0.987633" stroke-miterlimit="1.5" stroke-linejoin="round"/>
<path d="M32.1132 125.666C32.8965 125.666 33.5315 125.03 33.5315 124.247C33.5315 123.463 32.8965 122.828 32.1132 122.828C31.3301 122.828 30.6951 123.463 30.6951 124.247C30.6951 125.03 31.3301 125.666 32.1132 125.666Z" fill="white" stroke="white" stroke-width="0.987633" stroke-miterlimit="1.5" stroke-linejoin="round"/>
<path d="M110.178 125.666C110.961 125.666 111.596 125.03 111.596 124.247C111.596 123.463 110.961 122.828 110.178 122.828C109.394 122.828 108.759 123.463 108.759 124.247C108.759 125.03 109.394 125.666 110.178 125.666Z" fill="white" stroke="white" stroke-width="0.987633" stroke-miterlimit="1.5" stroke-linejoin="round"/>
<path d="M71.5736 138.196C72.3567 138.196 72.9917 137.561 72.9917 136.777C72.9917 135.994 72.3567 135.358 71.5736 135.358C70.7903 135.358 70.1553 135.994 70.1553 136.777C70.1553 137.561 70.7903 138.196 71.5736 138.196Z" fill="white" stroke="white" stroke-width="0.987633" stroke-miterlimit="1.5" stroke-linejoin="round"/>
<path d="M70.9445 133.117C105.738 133.117 133.944 104.91 133.944 70.1163C133.944 35.3224 105.738 7.11621 70.9445 7.11621C36.1504 7.11621 7.9443 35.3224 7.9443 70.1163C7.9443 104.91 36.1504 133.117 70.9445 133.117Z" stroke="white" stroke-width="1.47979" stroke-miterlimit="1.5" stroke-linecap="round" stroke-linejoin="round"/>
<path fill-rule="evenodd" clip-rule="evenodd" d="M68.711 12.0994L68.6548 10.6189C69.4144 10.5901 70.1777 10.5756 70.9444 10.5756C71.711 10.5756 72.4743 10.5901 73.2338 10.6189L73.1778 12.0994C72.4368 12.0713 71.6922 12.0572 70.9444 12.0572C70.1964 12.0572 69.4519 12.0713 68.711 12.0994ZM76.1499 12.2878L76.2812 10.8119C77.8128 10.9483 79.3279 11.1427 80.8241 11.3931L80.5796 12.8544C79.1207 12.6104 77.6434 12.4208 76.1499 12.2878ZM83.5028 13.4214L83.8223 11.9744C85.3213 12.3055 86.7989 12.6931 88.2532 13.1349L87.8226 14.5525C86.4047 14.1219 84.9642 13.744 83.5028 13.4214ZM90.6481 15.4914L91.1515 14.0978C92.593 14.6184 94.0086 15.1932 95.3961 15.8197L94.7863 17.17C93.4336 16.5594 92.0534 15.999 90.6481 15.4914ZM97.4676 18.4647L98.1458 17.1474C99.5065 17.8481 100.837 18.5996 102.134 19.3996L101.356 20.6608C100.091 19.8809 98.7942 19.1479 97.4676 18.4647ZM103.85 22.2882L104.691 21.0685C105.95 21.9364 107.173 22.8514 108.359 23.8111L107.427 24.9628C106.27 24.0269 105.077 23.1346 103.85 22.2882ZM109.693 26.8945L110.683 25.7918C111.819 26.8116 112.917 27.8745 113.972 28.978L112.901 30.0021C111.872 28.9259 110.802 27.8892 109.693 26.8945ZM114.904 32.206L116.026 31.2377C117.023 32.3927 117.976 33.5863 118.884 34.8161L117.692 35.6958C116.807 34.4965 115.877 33.3323 114.904 32.206ZM119.398 38.1363L120.634 37.3187C121.474 38.59 122.269 39.8954 123.012 41.2323L121.717 41.9526C120.992 40.6489 120.218 39.3761 119.398 38.1363ZM123.098 44.591L124.428 43.9381C125.099 45.3051 125.719 46.7015 126.286 48.1247L124.91 48.6728C124.356 47.2851 123.751 45.9236 123.098 44.591ZM125.938 51.4666L127.342 50.9902C127.83 52.4302 128.265 53.8947 128.645 55.3814L127.209 55.7475C126.839 54.298 126.415 52.8703 125.938 51.4666ZM127.869 58.6507L129.323 58.3592C129.621 59.8474 129.864 61.3555 130.049 62.8814L128.578 63.0598C128.398 61.5722 128.161 60.1017 127.869 58.6507ZM128.861 66.0244L130.34 65.9212C130.437 67.3072 130.485 68.7062 130.485 70.1166C130.485 70.2438 130.485 70.3711 130.484 70.4983L129.002 70.489C129.004 70.3649 129.004 70.2407 129.004 70.1166C129.004 68.7408 128.955 67.3763 128.861 66.0244ZM128.909 73.4656L130.388 73.5499C130.3 75.0859 130.155 76.6062 129.952 78.1088L128.484 77.9115C128.681 76.446 128.823 74.9634 128.909 73.4656ZM128.012 80.8515L129.468 81.1241C129.185 82.6336 128.846 84.123 128.451 85.5902L127.021 85.2056C127.405 83.7752 127.737 82.3231 128.012 80.8515ZM126.173 88.06L127.582 88.5181C127.108 89.9762 126.58 91.4096 125.999 92.8159L124.63 92.2501C125.195 90.8789 125.711 89.4815 126.173 88.06ZM123.422 94.9715L124.76 95.6072C124.103 96.99 123.395 98.3437 122.637 99.6656L121.351 98.9287C122.091 97.6398 122.781 96.32 123.422 94.9715ZM119.804 101.473L121.05 102.275C120.223 103.561 119.348 104.813 118.427 106.028L117.246 105.134C118.144 103.948 118.998 102.727 119.804 101.473ZM115.387 107.46L116.521 108.414C115.538 109.583 114.51 110.714 113.441 111.803L112.383 110.766C113.426 109.703 114.428 108.6 115.387 107.46ZM110.244 112.838L111.248 113.928C110.125 114.962 108.962 115.953 107.762 116.898L106.845 115.735C108.015 114.812 109.149 113.846 110.244 112.838ZM104.46 117.518L105.317 118.727C104.073 119.609 102.794 120.443 101.481 121.23L100.72 119.958C101.999 119.193 103.247 118.378 104.46 117.518ZM98.1272 121.423L98.8224 122.732C97.4774 123.447 96.1017 124.111 94.6979 124.723L94.1058 123.365C95.4744 122.768 96.8157 122.12 98.1272 121.423ZM91.3466 124.484L91.868 125.871C90.4441 126.407 88.9944 126.888 87.5213 127.316L87.109 125.892C88.5452 125.476 89.9586 125.006 91.3466 124.484ZM84.2287 126.646L84.5668 128.089C83.0884 128.436 81.5888 128.728 80.0703 128.961L79.8447 127.497C81.3251 127.268 82.787 126.984 84.2287 126.646ZM76.8911 127.874L77.0414 129.349C75.5337 129.502 74.0095 129.6 72.471 129.638L72.4336 128.157C73.9341 128.119 75.4208 128.025 76.8911 127.874ZM69.4551 128.157L69.4178 129.638C67.8792 129.6 66.355 129.502 64.8475 129.349L64.9977 127.874C66.4679 128.025 67.9546 128.119 69.4551 128.157ZM62.044 127.497L61.8183 128.961C60.2999 128.728 58.8004 128.436 57.3219 128.089L57.6601 126.646C59.1016 126.984 60.5635 127.268 62.044 127.497ZM54.7798 125.892L54.3676 127.316C52.8944 126.889 51.4448 126.407 50.0208 125.871L50.5421 124.484C51.9303 125.006 53.3437 125.476 54.7798 125.892ZM47.7829 123.365L47.1907 124.723C45.787 124.111 44.4113 123.447 43.0663 122.732L43.7615 121.423C45.073 122.12 46.4143 122.768 47.7829 123.365ZM41.1687 119.958L40.4073 121.23C39.0952 120.444 37.816 119.609 36.5719 118.727L37.4285 117.518C38.6417 118.378 39.8893 119.193 41.1687 119.958ZM35.0437 115.735L34.1265 116.898C32.9265 115.953 31.7639 114.962 30.6409 113.928L31.6446 112.838C32.7396 113.846 33.8736 114.812 35.0437 115.735ZM29.5055 110.766L28.4478 111.803C27.3788 110.714 26.3513 109.583 25.3677 108.414L26.5015 107.46C27.4607 108.6 28.4628 109.703 29.5055 110.766ZM24.643 105.134L23.4621 106.028C22.5409 104.813 21.6655 103.561 20.838 102.275L22.084 101.473C22.8909 102.727 23.7448 103.948 24.643 105.134ZM20.5372 98.9287L19.2519 99.6655C18.4941 98.3436 17.7855 96.99 17.1288 95.6072L18.4672 94.9715C19.1075 96.32 19.7984 97.6397 20.5372 98.9287ZM17.2596 92.25L15.8901 92.8158C15.3091 91.4094 14.7803 89.9759 14.3063 88.518L15.7153 88.0598C16.1775 89.4814 16.693 90.8788 17.2596 92.25ZM14.8684 85.2056L13.4376 85.5901C13.0432 84.1229 12.7036 82.6335 12.4209 81.1241L13.8772 80.8513C14.1528 82.3229 14.4839 83.7751 14.8684 85.2056ZM13.4048 77.9115L11.9363 78.1088C11.7344 76.6062 11.5885 75.0857 11.501 73.5498L12.9803 73.4655C13.0656 74.9633 13.2077 76.446 13.4048 77.9115ZM12.8864 70.4888L11.4046 70.4981C11.4038 70.3711 11.4035 70.2438 11.4035 70.1166C11.4035 68.7062 11.4526 67.3071 11.5492 65.9211L13.0273 66.0242C12.933 67.3762 12.8851 68.7408 12.8851 70.1166C12.8851 70.2407 12.8854 70.3648 12.8864 70.4888ZM13.3104 63.0599L11.8395 62.8814C12.0246 61.3555 12.2678 59.8475 12.5662 58.3594L14.019 58.6507C13.7278 60.1018 13.491 61.5722 13.3104 63.0599ZM14.6799 55.7475L13.2441 55.3814C13.6232 53.8947 14.0583 52.4302 14.547 50.9904L15.9501 51.4666C15.4736 52.8703 15.0494 54.298 14.6799 55.7475ZM16.9797 48.6728L15.6032 48.1247C16.1699 46.7015 16.7899 45.305 17.4608 43.9381L18.791 44.5909C18.1368 45.9236 17.5323 47.2851 16.9797 48.6728ZM20.1712 41.9525L18.8765 41.2322C19.6202 39.8953 20.414 38.5898 21.2553 37.3186L22.4909 38.1362C21.6705 39.376 20.8965 40.6488 20.1712 41.9525ZM24.1972 35.6957L23.005 34.816C23.9123 33.5863 24.8659 32.3927 25.863 31.2377L26.9845 32.206C26.012 33.3323 25.0822 34.4964 24.1972 35.6957ZM28.9873 30.0021L27.9166 28.9781C28.9719 27.8745 30.0692 26.8116 31.2059 25.7918L32.1954 26.8945C31.0867 27.8892 30.0166 28.9259 28.9873 30.0021ZM34.462 24.9628L33.5299 23.811C34.7159 22.8513 35.9391 21.9362 37.1976 21.0685L38.0388 22.2882C36.8117 23.1346 35.6185 24.0269 34.462 24.9628ZM40.5324 20.6608L39.7547 19.3997C41.052 18.5998 42.3822 17.8481 43.7428 17.1474L44.4212 18.4647C43.0944 19.148 41.7974 19.8809 40.5324 20.6608ZM47.1025 17.17L46.4929 15.8195C47.8802 15.1932 49.2959 14.6184 50.7372 14.0978L51.2406 15.4914C49.8353 15.9989 48.4552 16.5593 47.1025 17.17ZM54.0661 14.5525L53.6354 13.135C55.0898 12.6931 56.5675 12.3055 58.0664 11.9744L58.386 13.4214C56.9246 13.744 55.4839 14.1219 54.0661 14.5525ZM61.3091 12.8544L61.0646 11.3931C62.5608 11.1427 64.0759 10.9483 65.6075 10.8119L65.739 12.2878C64.2454 12.4208 62.768 12.6104 61.3091 12.8544Z" fill="white"/>
<path fill-rule="evenodd" clip-rule="evenodd" d="M16.0338 70.1164H15.0461C15.0461 69.7793 15.049 69.4429 15.0551 69.1073L16.0427 69.125C16.0368 69.4548 16.0338 69.7852 16.0338 70.1164ZM16.0693 68.1337L15.0821 68.0984C15.0942 67.7614 15.1093 67.4254 15.1273 67.09L16.1136 67.1431C16.0959 67.4725 16.0811 67.8028 16.0693 68.1337ZM16.1758 66.1535L15.1905 66.0826C15.2146 65.7466 15.2419 65.4111 15.272 65.0766L16.2557 65.1653C16.2262 65.4939 16.1995 65.8233 16.1758 66.1535ZM16.3536 64.1786L15.3717 64.0723C15.408 63.7372 15.4472 63.4029 15.4895 63.0697L16.4694 63.1938C16.4279 63.5212 16.3893 63.8494 16.3536 64.1786ZM16.603 62.2113L15.6256 62.0692C15.674 61.7357 15.7254 61.4031 15.7797 61.0717L16.7545 61.2314C16.7012 61.5571 16.6506 61.8837 16.603 62.2113ZM16.9239 60.2544L15.9522 60.0769C16.0127 59.7453 16.0763 59.4149 16.1428 59.0853L17.1109 59.2807C17.0457 59.6043 16.9833 59.9288 16.9239 60.2544ZM17.3159 58.3107L16.3513 58.0977C16.4239 57.7687 16.4995 57.4408 16.5779 57.1139L17.5385 57.3444C17.4614 57.6654 17.3872 57.9875 17.3159 58.3107ZM17.7788 56.3825L16.8225 56.1343C16.9072 55.8082 16.9948 55.4832 17.0851 55.1594L18.0366 55.4249C17.9478 55.743 17.8618 56.0621 17.7788 56.3825ZM18.3118 54.4725L17.3654 54.1895C17.4619 53.8668 17.5612 53.5452 17.6634 53.2249L18.6045 53.5252C18.5042 53.8397 18.4066 54.1555 18.3118 54.4725ZM18.9145 52.5833L17.9791 52.266C18.0874 51.9469 18.1985 51.6292 18.3123 51.3129L19.2417 51.6474C19.1299 51.958 19.0209 52.27 18.9145 52.5833ZM19.586 50.7173L18.6629 50.3659C18.7826 50.0512 18.9053 49.7378 19.0306 49.4258L19.9472 49.794C19.8241 50.1004 19.7036 50.4082 19.586 50.7173ZM20.3252 48.8773L19.4156 48.4923C19.5468 48.1823 19.6807 47.8736 19.8174 47.5662L20.7199 47.9678C20.5856 48.2695 20.4542 48.5728 20.3252 48.8773ZM21.1312 47.0656L20.2362 46.6477C20.3786 46.3426 20.5238 46.0389 20.6716 45.7369L21.5588 46.171C21.4136 46.4678 21.2711 46.7659 21.1312 47.0656ZM22.0027 45.2843L21.1234 44.8342C21.277 44.5345 21.433 44.2363 21.5919 43.9398L22.4627 44.4059C22.3067 44.6971 22.1535 44.9899 22.0027 45.2843ZM22.9385 43.5361L22.0762 43.0541C22.2405 42.7603 22.4074 42.468 22.5768 42.1775L23.4301 42.6751C23.2637 42.9604 23.0998 43.2475 22.9385 43.5361ZM23.9372 41.8229L23.0931 41.31C23.2679 41.0224 23.4453 40.7363 23.6251 40.4521L24.4598 40.9803C24.2832 41.2594 24.109 41.5405 23.9372 41.8229ZM24.9976 40.1472L24.1725 39.6041C24.3576 39.3229 24.5452 39.0436 24.7353 38.7661L25.5503 39.3241C25.3636 39.5966 25.1793 39.8712 24.9976 40.1472ZM26.1178 38.511L25.313 37.9382C25.5082 37.6641 25.7057 37.3917 25.9057 37.1212L26.6999 37.7084C26.5035 37.974 26.3095 38.2416 26.1178 38.511ZM27.2965 36.9165L26.5129 36.3149C26.7178 36.0481 26.925 35.7829 27.1347 35.5198L27.9072 36.1353C27.7013 36.3939 27.4978 36.6542 27.2965 36.9165ZM28.5321 35.3652L27.7708 34.7359C27.9851 34.4766 28.2018 34.2192 28.4208 33.9638L29.1708 34.6068C28.9556 34.8577 28.7428 35.1105 28.5321 35.3652ZM29.8228 33.8598L29.0847 33.2035C29.3083 32.952 29.5341 32.7026 29.7621 32.4553L30.4884 33.1249C30.2643 33.3679 30.0425 33.6129 29.8228 33.8598ZM31.167 32.402L30.453 31.7195C30.6855 31.4763 30.9201 31.2352 31.1569 30.9962L31.8586 31.6915C31.6258 31.9262 31.3954 32.1632 31.167 32.402ZM32.5629 30.9935L31.8739 30.2857C32.115 30.051 32.3581 29.8184 32.6035 29.5883L33.2796 30.3083C33.0386 30.5346 32.7997 30.763 32.5629 30.9935ZM34.0085 29.6363L33.3455 28.9041C33.5949 28.6783 33.8463 28.4547 34.0998 28.2334L34.7494 28.9774C34.5005 29.195 34.2535 29.4145 34.0085 29.6363ZM35.5022 28.332L34.8661 27.5764C35.1234 27.3597 35.3828 27.1454 35.644 26.9333L36.2666 27.7004C36.0098 27.9086 35.7551 28.1191 35.5022 28.332ZM37.0421 27.0825L36.4336 26.3044C36.6986 26.0971 36.9655 25.8923 37.2344 25.6898L37.8287 26.4788C37.5646 26.6777 37.3024 26.8789 37.0421 27.0825ZM38.626 25.8895L38.046 25.0898C38.3184 24.8924 38.5924 24.6972 38.8685 24.5046L39.4339 25.3146C39.1627 25.5038 38.8935 25.6955 38.626 25.8895ZM40.252 24.7545L39.7013 23.9343C39.9806 23.7469 40.2616 23.5619 40.5444 23.3793L41.0801 24.2092C40.8024 24.3885 40.5263 24.5703 40.252 24.7545ZM41.918 23.679L41.3975 22.8395C41.6833 22.6623 41.971 22.4875 42.2602 22.3154L42.7654 23.1642C42.4814 23.3332 42.1988 23.5049 41.918 23.679ZM43.622 22.6647L43.1324 21.8069C43.4244 21.6401 43.7182 21.4759 44.0136 21.3144L44.4876 22.181C44.1975 22.3397 43.909 22.5009 43.622 22.6647ZM45.3618 21.713L44.9035 20.838C45.2015 20.682 45.501 20.5286 45.8021 20.3778L46.2444 21.261C45.9485 21.4092 45.6544 21.5599 45.3618 21.713ZM47.1349 20.8254L46.7089 19.9342C47.0122 19.7892 47.3172 19.6467 47.6236 19.5071L48.0334 20.4058C47.7324 20.5431 47.4329 20.6828 47.1349 20.8254ZM48.9393 20.0029L48.5462 19.0967C48.8546 18.9629 49.1645 18.8317 49.4758 18.7033L49.8525 19.6164C49.5467 19.7426 49.2423 19.8713 48.9393 20.0029ZM50.7726 19.2468L50.4127 18.3269C50.7259 18.2044 51.0405 18.0847 51.3564 17.9677L51.6993 18.894C51.3891 19.009 51.0802 19.1265 50.7726 19.2468ZM52.6321 18.5583L52.3062 17.626C52.6236 17.5149 52.9422 17.4068 53.2623 17.3015L53.5712 18.2397C53.2568 18.3432 52.9438 18.4494 52.6321 18.5583ZM54.5156 17.9384L54.224 16.9947C54.5453 16.8953 54.8678 16.799 55.1914 16.7054L55.4657 17.6544C55.1479 17.7463 54.8312 17.841 54.5156 17.9384ZM56.4207 17.3878L56.164 16.434C56.4884 16.3466 56.8142 16.2621 57.141 16.1804L57.3805 17.1388C57.0594 17.219 56.7394 17.302 56.4207 17.3878ZM58.3446 16.9074L58.1228 15.9448C58.4504 15.8693 58.779 15.7968 59.1087 15.7272L59.3129 16.6936C58.9891 16.762 58.6663 16.8332 58.3446 16.9074ZM60.2847 16.4975L60.0983 15.5274C60.4283 15.4641 60.7594 15.4036 61.0914 15.3461L61.2601 16.3194C60.9341 16.3759 60.6088 16.4353 60.2847 16.4975ZM62.2387 16.1589L62.0877 15.1827C62.4199 15.1314 62.7528 15.0829 63.0868 15.0375L63.2199 16.0164C62.8919 16.061 62.5648 16.1085 62.2387 16.1589ZM64.2035 15.8916L64.0883 14.9106C64.422 14.8715 64.7565 14.8352 65.0919 14.8019L65.1893 15.7849C64.8599 15.8176 64.5312 15.8532 64.2035 15.8916ZM66.177 15.6959L66.0972 14.7113C66.4319 14.6843 66.7676 14.6601 67.104 14.639L67.1659 15.6249C66.8354 15.6456 66.5058 15.6692 66.177 15.6959ZM68.156 15.5717L68.1118 14.5849C68.4472 14.5697 68.7834 14.5577 69.1204 14.5487L69.1468 15.5361C68.8158 15.545 68.4855 15.5568 68.156 15.5717ZM70.1381 15.5184L70.1293 14.5307C70.2974 14.5293 70.4656 14.5284 70.6339 14.5284C70.8024 14.5284 70.9706 14.5293 71.1385 14.5307L71.1299 15.5184C70.9648 15.517 70.7994 15.5162 70.6339 15.5162C70.4686 15.5162 70.3032 15.517 70.1381 15.5184ZM72.1211 15.5361L72.1476 14.5487C72.4845 14.5577 72.8207 14.5697 73.1561 14.5847L73.112 15.5715C72.7824 15.5568 72.4521 15.545 72.1211 15.5361ZM74.1021 15.6249L74.164 14.639C74.5004 14.6601 74.836 14.6843 75.1708 14.7113L75.091 15.6959C74.7621 15.6692 74.4325 15.6456 74.1021 15.6249ZM76.0788 15.7849L76.1762 14.8019C76.5117 14.8352 76.8462 14.8715 77.1798 14.9106L77.0645 15.8916C76.7368 15.8532 76.4082 15.8176 76.0788 15.7849ZM78.0481 16.0164L78.1812 15.0375C78.5152 15.0831 78.8482 15.1314 79.1803 15.1827L79.0294 16.1589C78.7032 16.1085 78.3761 16.061 78.0481 16.0164ZM80.0078 16.3194L80.1764 15.346C80.5085 15.4036 80.8396 15.4641 81.1696 15.5274L80.9831 16.4975C80.659 16.4352 80.3339 16.3758 80.0078 16.3194ZM81.9552 16.6936L82.1592 15.7271C82.4888 15.7968 82.8175 15.8693 83.145 15.9447L82.9234 16.9073C82.6016 16.8332 82.2789 16.762 81.9552 16.6936ZM83.8875 17.1388L84.127 16.1804C84.4538 16.2621 84.7796 16.3466 85.1042 16.434L84.8473 17.3878C84.5286 17.302 84.2086 17.219 83.8875 17.1388ZM85.8023 17.6544L86.0765 16.7054C86.4002 16.799 86.7227 16.8953 87.044 16.9947L86.7524 17.9384C86.4368 17.841 86.1202 17.7463 85.8023 17.6544ZM87.697 18.2397L88.0057 17.3015C88.3258 17.4068 88.6445 17.515 88.962 17.626L88.636 18.5583C88.3242 18.4494 88.0112 18.3432 87.697 18.2397ZM89.5688 18.8942L89.9118 17.9677C90.2277 18.0847 90.5423 18.2044 90.8553 18.327L90.4954 19.2468C90.188 19.1265 89.8791 19.009 89.5688 18.8942ZM91.4156 19.6164L91.7922 18.7033C92.1035 18.8317 92.4134 18.9629 92.7218 19.0967L92.3287 20.0029C92.0257 19.8713 91.7213 19.7426 91.4156 19.6164ZM93.2345 20.4058L93.6443 19.5071C93.9507 19.6467 94.2557 19.7891 94.5591 19.934L94.133 20.8253C93.835 20.6828 93.5355 20.543 93.2345 20.4058ZM95.0236 21.261L95.4658 20.3777C95.7669 20.5286 96.0664 20.6819 96.3644 20.8379L95.9061 21.713C95.6135 21.5599 95.3194 21.4091 95.0236 21.261ZM96.7803 22.181L97.2544 21.3144C97.5498 21.4759 97.8436 21.6401 98.1357 21.8069L97.646 22.6647C97.359 22.5009 97.0705 22.3397 96.7803 22.181ZM98.5025 23.1641L99.0078 22.3153C99.297 22.4875 99.5846 22.6622 99.8704 22.8394L99.3499 23.6789C99.0691 23.5049 98.7866 23.3332 98.5025 23.1641ZM100.188 24.2091L100.723 23.3792C101.006 23.5618 101.287 23.7468 101.567 23.9343L101.016 24.7543C100.742 24.5703 100.466 24.3884 100.188 24.2091ZM101.834 25.3146L102.4 24.5046C102.675 24.6972 102.95 24.8923 103.222 25.0898L102.642 25.8895C102.375 25.6955 102.105 25.5038 101.834 25.3146ZM103.439 26.4789L104.034 25.6898C104.302 25.8924 104.569 26.0972 104.834 26.3044L104.226 27.0826C103.966 26.8789 103.703 26.6778 103.439 26.4789ZM105.001 27.7004L105.624 26.9333C105.885 27.1454 106.145 27.3597 106.402 27.5764L105.766 28.332C105.513 28.1191 105.258 27.9086 105.001 27.7004ZM106.518 28.9774L107.168 28.2334C107.422 28.4547 107.673 28.6783 107.922 28.9041L107.26 29.6363C107.015 29.4145 106.768 29.1948 106.518 28.9774ZM107.988 30.3083L108.664 29.5883C108.91 29.8186 109.153 30.051 109.394 30.2857L108.705 30.9936C108.468 30.763 108.229 30.5347 107.988 30.3083ZM109.409 31.6914L110.111 30.9962C110.348 31.2352 110.583 31.4761 110.815 31.7195L110.101 32.402C109.873 32.1632 109.642 31.9262 109.409 31.6914ZM110.78 33.1249L111.506 32.4553C111.734 32.7026 111.96 32.952 112.183 33.2035L111.445 33.8598C111.226 33.6129 111.004 33.3679 110.78 33.1249ZM112.097 34.6067L112.847 33.9638C113.066 34.2192 113.283 34.4766 113.497 34.7359L112.736 35.3652C112.525 35.1105 112.312 34.8577 112.097 34.6067ZM113.361 36.1352L114.133 35.5198C114.343 35.7829 114.55 36.048 114.755 36.3149L113.971 36.9164C113.77 36.654 113.567 36.3937 113.361 36.1352ZM114.568 37.7083L115.362 37.1211C115.562 37.3917 115.76 37.6641 115.955 37.9382L115.15 38.5109C114.959 38.2414 114.764 37.974 114.568 37.7083ZM115.718 39.324L116.533 38.7659C116.723 39.0436 116.91 39.3228 117.095 39.604L116.27 40.1472C116.089 39.871 115.904 39.5966 115.718 39.324ZM116.808 40.9802L117.643 40.4521C117.823 40.7362 118 41.0222 118.175 41.3099L117.331 41.8229C117.159 41.5403 116.985 41.2594 116.808 40.9802ZM117.838 42.6749L118.691 42.1773C118.861 42.468 119.028 42.7602 119.191 43.054L118.329 43.536C118.168 43.2473 118.004 42.9603 117.838 42.6749ZM118.805 44.4059L119.676 43.9398C119.835 44.2364 119.992 44.5345 120.144 44.8342L119.265 45.2843C119.114 44.99 118.962 44.6971 118.805 44.4059ZM119.709 46.1709L120.596 45.7368C120.744 46.0388 120.889 46.3425 121.032 46.6476L120.137 47.0654C119.996 46.7658 119.854 46.4677 119.709 46.1709ZM120.547 47.9677L121.451 47.5662C121.587 47.8735 121.721 48.1823 121.853 48.4923L120.942 48.8773C120.814 48.5727 120.683 48.2695 120.547 47.9677ZM121.32 49.794L122.238 49.4257C122.362 49.7377 122.486 50.0512 122.605 50.3659L121.682 50.7173C121.565 50.4082 121.444 50.1004 121.32 49.794ZM122.027 51.6472L122.956 51.3127C123.07 51.6291 123.18 51.9468 123.289 52.2657L122.354 52.5832C122.247 52.2699 122.138 51.9579 122.027 51.6472ZM122.663 53.525L123.604 53.2248C123.706 53.5451 123.806 53.8667 123.902 54.1894L122.956 54.4724C122.861 54.1554 122.764 53.8396 122.663 53.525ZM123.231 55.4249L124.183 55.1594C124.273 55.4831 124.361 55.8081 124.445 56.1342L123.489 56.3823C123.407 56.062 123.32 55.7429 123.231 55.4249ZM123.729 57.3444L124.69 57.1139C124.768 57.4407 124.844 57.7687 124.917 58.0977L123.952 58.3107C123.881 57.9875 123.807 57.6654 123.729 57.3444ZM124.157 59.2808L125.125 59.0856C125.192 59.415 125.256 59.7454 125.316 60.077L124.344 60.2545C124.285 59.9289 124.222 59.6044 124.157 59.2808ZM124.514 61.2314L125.488 61.0717C125.542 61.4031 125.593 61.7357 125.642 62.0693L124.665 62.2113C124.617 61.8837 124.567 61.5571 124.514 61.2314ZM124.798 63.1937L125.778 63.0695C125.821 63.4028 125.86 63.7371 125.897 64.0722L124.914 64.1785C124.879 63.8494 124.84 63.5211 124.798 63.1937ZM125.013 65.1652L125.996 65.0766C126.026 65.4111 126.053 65.7466 126.077 66.0827L125.092 66.1535C125.068 65.8233 125.042 65.4938 125.013 65.1652ZM125.155 67.1432L126.141 67.0901C126.159 67.4255 126.174 67.7615 126.186 68.0985L125.199 68.1337C125.187 67.8028 125.173 67.4726 125.155 67.1432ZM125.225 69.1248L126.213 69.1072C126.219 69.4428 126.222 69.7792 126.222 70.1163H125.234C125.234 69.7851 125.231 69.4545 125.225 69.1248ZM125.225 71.1078L126.213 71.1256C126.207 71.4626 126.198 71.7988 126.186 72.1343L125.199 72.0991C125.211 71.7694 125.219 71.439 125.225 71.1078ZM125.155 73.0896L126.141 73.1426C126.122 73.4791 126.102 73.8149 126.077 74.1498L125.092 74.079C125.116 73.7501 125.137 73.4201 125.155 73.0896ZM125.013 75.0675L125.996 75.156C125.966 75.4918 125.932 75.8265 125.897 76.1606L124.914 76.0541C124.95 75.7261 124.983 75.3972 125.013 75.0675ZM124.798 77.0389L125.778 77.1632C125.736 77.4975 125.691 77.8309 125.642 78.1634L124.665 78.0214C124.713 77.6949 124.757 77.3674 124.798 77.0389ZM124.514 79.0012L125.488 79.1611C125.433 79.4937 125.377 79.8253 125.316 80.1559L124.344 79.9783C124.403 79.6536 124.46 79.328 124.514 79.0012ZM124.157 80.9518L125.125 81.1472C125.059 81.4775 124.989 81.8068 124.917 82.1349L123.952 81.922C124.023 81.5997 124.092 81.2762 124.157 80.9518ZM123.729 82.8882L124.69 83.1188C124.611 83.4465 124.53 83.7729 124.445 84.0983L123.489 83.8502C123.572 83.5307 123.652 83.21 123.729 82.8882ZM123.231 84.8078L124.183 85.0733C124.093 85.3979 123.999 85.7213 123.902 86.0433L122.956 85.7604C123.051 85.4441 123.142 85.1264 123.231 84.8078ZM122.663 86.7077L123.604 87.0079C123.503 87.3289 123.397 87.6486 123.289 87.967L122.354 87.6496C122.459 87.3369 122.563 87.023 122.663 86.7077ZM122.027 88.5855L122.956 88.92C122.841 89.237 122.725 89.5526 122.605 89.8668L121.682 89.5154C121.799 89.2067 121.914 88.8968 122.027 88.5855ZM121.32 90.4388L122.238 90.807C122.112 91.1195 121.983 91.4307 121.853 91.7403L120.942 91.3554C121.071 91.0512 121.197 90.7458 121.32 90.4388ZM120.547 92.2649L121.451 92.6665C121.313 92.9742 121.175 93.2804 121.032 93.5851L120.136 93.1673C120.276 92.868 120.414 92.5673 120.547 92.2649ZM119.709 94.0617L120.596 94.4959C120.448 94.7984 120.297 95.0994 120.144 95.3987L119.265 94.9484C119.415 94.6544 119.564 94.3588 119.709 94.0617ZM118.805 95.8267L119.676 96.2929C119.517 96.5897 119.356 96.8849 119.191 97.1785L118.329 96.6965C118.491 96.4082 118.65 96.1183 118.805 95.8267ZM117.838 97.5579L118.691 98.0553C118.522 98.3461 118.35 98.6352 118.175 98.9227L117.331 98.4098C117.502 98.1274 117.671 97.8434 117.838 97.5579ZM116.808 99.2524L117.643 99.7806C117.463 100.065 117.28 100.348 117.095 100.629L116.27 100.086C116.452 99.8097 116.631 99.532 116.808 99.2524ZM115.718 100.909L116.533 101.467C116.343 101.744 116.15 102.02 115.955 102.294L115.15 101.722C115.342 101.453 115.531 101.182 115.718 100.909ZM114.568 102.524L115.362 103.112C115.162 103.382 114.96 103.651 114.755 103.918L113.971 103.316C114.173 103.054 114.371 102.79 114.568 102.524ZM113.361 104.098L114.133 104.713C113.924 104.976 113.712 105.237 113.497 105.497L112.736 104.867C112.946 104.613 113.155 104.356 113.361 104.098ZM112.097 105.626L112.847 106.269C112.628 106.524 112.407 106.778 112.183 107.029L111.445 106.373C111.665 106.126 111.882 105.877 112.097 105.626ZM110.78 107.108L111.506 107.777C111.278 108.025 111.047 108.27 110.815 108.513L110.101 107.831C110.329 107.592 110.556 107.351 110.78 107.108ZM109.409 108.541L110.111 109.237C109.874 109.475 109.635 109.712 109.394 109.947L108.705 109.239C108.942 109.009 109.177 108.776 109.409 108.541ZM107.988 109.924L108.664 110.644C108.419 110.875 108.172 111.103 107.922 111.329L107.259 110.596C107.505 110.374 107.748 110.15 107.988 109.924ZM106.518 111.255L107.168 111.999C106.915 112.22 106.659 112.44 106.402 112.656L105.766 111.901C106.019 111.688 106.27 111.473 106.518 111.255ZM105.001 112.532L105.624 113.299C105.363 113.511 105.099 113.721 104.834 113.928L104.226 113.15C104.486 112.947 104.745 112.741 105.001 112.532ZM103.439 113.754L104.034 114.543C103.765 114.745 103.494 114.945 103.222 115.143L102.642 114.343C102.91 114.149 103.175 113.953 103.439 113.754ZM101.834 114.918L102.4 115.728C102.124 115.921 101.846 116.111 101.567 116.298L101.016 115.478C101.291 115.294 101.563 115.107 101.834 114.918ZM100.188 116.024L100.723 116.854C100.441 117.036 100.157 117.216 99.8704 117.393L99.3499 116.554C99.6308 116.379 99.9102 116.203 100.188 116.024ZM98.5025 117.069L99.0078 117.917C98.7187 118.089 98.428 118.259 98.1357 118.426L97.6458 117.568C97.9331 117.404 98.2186 117.238 98.5025 117.069ZM96.7803 118.052L97.2544 118.919C96.9594 119.08 96.6627 119.239 96.3645 119.394L95.9062 118.52C96.1992 118.366 96.4906 118.21 96.7803 118.052ZM95.0236 118.972L95.4658 119.855C95.1651 120.006 94.8628 120.153 94.5591 120.299L94.133 119.407C94.4313 119.265 94.7283 119.119 95.0236 118.972ZM93.2345 119.827L93.6443 120.725C93.3382 120.865 93.0307 121.001 92.7218 121.135L92.3285 120.23C92.632 120.098 92.934 119.964 93.2345 119.827ZM91.4156 120.616L91.7922 121.529C91.4812 121.658 91.1689 121.783 90.8553 121.906L90.4954 120.986C90.8035 120.865 91.1101 120.742 91.4156 120.616ZM89.5688 121.338L89.9118 122.265C89.5965 122.381 89.2797 122.496 88.9618 122.606L88.6359 121.675C88.9481 121.566 89.2591 121.453 89.5688 121.338ZM87.697 121.992L88.0057 122.931C87.6864 123.037 87.3658 123.139 87.044 123.238L86.7524 122.295C87.0684 122.196 87.3833 122.097 87.697 121.992ZM85.8023 122.578L86.0765 123.527C85.7536 123.621 85.4294 123.711 85.1042 123.799L84.8473 122.845C85.1667 122.759 85.4851 122.67 85.8023 122.578ZM83.8875 123.094L84.127 124.053C83.8008 124.133 83.4736 124.213 83.1452 124.288L82.9235 123.326C83.2459 123.251 83.5674 123.174 83.8875 123.094ZM81.9552 123.539L82.1592 124.505C81.8304 124.575 81.5005 124.642 81.1696 124.706L80.9831 123.735C81.3081 123.673 81.6322 123.607 81.9552 123.539ZM80.0078 123.914L80.1764 124.887C79.8454 124.944 79.5133 124.998 79.1802 125.051L79.0293 124.074C79.3564 124.023 79.6826 123.97 80.0078 123.914ZM78.0481 124.216L78.1812 125.195C77.8484 125.24 77.5145 125.283 77.1797 125.322L77.0645 124.341C77.3932 124.303 77.7211 124.261 78.0481 124.216ZM76.0788 124.448L76.1762 125.431C75.842 125.464 75.5069 125.494 75.1708 125.521L75.0912 124.537C75.4212 124.51 75.7503 124.48 76.0788 124.448ZM74.1021 124.608L74.164 125.593C73.8289 125.615 73.4929 125.633 73.1561 125.648L73.112 124.661C73.4427 124.646 73.7728 124.629 74.1021 124.608ZM72.1211 124.696L72.1476 125.684C71.8119 125.693 71.4755 125.699 71.1385 125.702L71.1298 124.714C71.4608 124.712 71.7913 124.706 72.1211 124.696ZM70.1381 124.714L70.1293 125.702C69.7924 125.699 69.456 125.693 69.1204 125.684L69.1468 124.696C69.4766 124.706 69.8069 124.712 70.1381 124.714ZM68.156 124.661L68.1118 125.648C67.775 125.633 67.4391 125.615 67.1039 125.593L67.1658 124.608C67.4951 124.629 67.8252 124.646 68.156 124.661ZM66.177 124.537L66.0972 125.521C65.7613 125.494 65.4261 125.464 65.0919 125.431L65.1893 124.448C65.5177 124.48 65.847 124.51 66.177 124.537ZM64.2035 124.341L64.0883 125.322C63.7535 125.283 63.4198 125.24 63.0868 125.195L63.22 124.216C63.5469 124.261 63.8748 124.303 64.2035 124.341ZM62.2387 124.074L62.0877 125.051C61.7547 124.998 61.4226 124.944 61.0915 124.887L61.2602 123.914C61.5853 123.97 61.9115 124.023 62.2387 124.074ZM60.2847 123.735L60.0983 124.706C59.7674 124.642 59.4375 124.575 59.1087 124.505L59.3129 123.539C59.6358 123.607 59.9598 123.673 60.2847 123.735ZM58.3446 123.326L58.1228 124.288C57.7944 124.213 57.4672 124.133 57.141 124.053L57.3805 123.094C57.7006 123.174 58.0221 123.251 58.3446 123.326ZM56.4207 122.845L56.164 123.799C55.8385 123.711 55.5144 123.621 55.1914 123.527L55.4657 122.578C55.7828 122.67 56.1011 122.759 56.4207 122.845ZM54.5156 122.295L54.224 123.238C53.9022 123.139 53.5816 123.037 53.2623 122.931L53.571 121.992C53.8848 122.097 54.1996 122.196 54.5156 122.295ZM52.6321 121.675L52.3062 122.606C51.9883 122.496 51.6715 122.381 51.3562 122.265L51.6992 121.338C52.0089 121.453 52.3199 121.566 52.6321 121.675ZM50.7726 120.986L50.4127 121.906C50.0991 121.783 49.7868 121.658 49.4759 121.529L49.8526 120.616C50.1579 120.742 50.4645 120.865 50.7726 120.986ZM48.9393 120.23L48.5462 121.135C48.2371 121.001 47.9297 120.865 47.6236 120.725L48.0334 119.827C48.334 119.964 48.6359 120.098 48.9393 120.23ZM47.1349 119.407L46.7089 120.299C46.4051 120.153 46.1028 120.006 45.8021 119.855L46.2442 118.972C46.5396 119.119 46.8364 119.265 47.1349 119.407ZM45.3618 118.52L44.9035 119.395C44.6053 119.239 44.3086 119.08 44.0134 118.919L44.4876 118.052C44.7774 118.21 45.0689 118.366 45.3618 118.52ZM43.622 117.568L43.1324 118.426C42.84 118.259 42.5493 118.089 42.2602 117.917L42.7655 117.069C43.0494 117.238 43.3348 117.404 43.622 117.568ZM41.918 116.554L41.3975 117.393C41.1114 117.216 40.827 117.036 40.5445 116.854L41.0801 116.024C41.3577 116.203 41.6371 116.379 41.918 116.554ZM40.2519 115.478L39.7013 116.298C39.4219 116.111 39.1442 115.921 38.8685 115.728L39.4339 114.918C39.7047 115.107 39.9775 115.294 40.2519 115.478ZM38.626 114.343L38.046 115.143C37.7736 114.945 37.503 114.745 37.2344 114.543L37.8286 113.754C38.0926 113.953 38.3584 114.149 38.626 114.343ZM37.0421 113.15L36.4336 113.928C36.1685 113.721 35.9054 113.511 35.6441 113.3L36.2666 112.532C36.5232 112.741 36.7817 112.947 37.0421 113.15ZM35.5022 111.901L34.8661 112.656C34.6086 112.44 34.3533 112.221 34.0998 111.999L34.7496 111.255C34.9984 111.473 35.2493 111.688 35.5022 111.901ZM34.0085 110.596L33.3455 111.329C33.096 111.103 32.8488 110.875 32.6035 110.644L33.2795 109.924C33.5204 110.15 33.7635 110.374 34.0085 110.596ZM32.5629 109.239L31.8739 109.947C31.6328 109.712 31.3938 109.475 31.157 109.237L31.8586 108.541C32.0913 108.776 32.326 109.009 32.5629 109.239ZM31.167 107.831L30.453 108.513C30.2205 108.27 29.9902 108.025 29.7621 107.777L30.4884 107.108C30.7124 107.351 30.9387 107.592 31.167 107.831ZM29.8228 106.373L29.0847 107.029C28.8612 106.778 28.6399 106.524 28.4208 106.269L29.1707 105.626C29.3858 105.877 29.6032 106.126 29.8228 106.373ZM28.5321 104.867L27.7708 105.497C27.5565 105.237 27.3444 104.976 27.1347 104.713L27.9073 104.098C28.1132 104.356 28.3216 104.613 28.5321 104.867ZM27.2965 103.316L26.5129 103.918C26.3081 103.651 26.1056 103.382 25.9057 103.111L26.6999 102.524C26.8964 102.79 27.0954 103.054 27.2965 103.316ZM26.1178 101.722L25.313 102.294C25.118 102.02 24.9254 101.744 24.7353 101.467L25.5503 100.909C25.7371 101.182 25.9263 101.453 26.1178 101.722ZM24.9975 100.085L24.1725 100.629C23.9875 100.348 23.8051 100.065 23.6251 99.7805L24.4598 99.2524C24.6366 99.5318 24.8157 99.8094 24.9975 100.085ZM23.9372 98.4097L23.0931 98.9226C22.9184 98.6351 22.7463 98.346 22.5768 98.0551L23.4301 97.5577C23.5966 97.8434 23.7656 98.1274 23.9372 98.4097ZM22.9385 96.6965L22.0762 97.1785C21.9121 96.885 21.7507 96.5897 21.5917 96.2929L22.4626 95.8267C22.6186 96.1183 22.7773 96.4082 22.9385 96.6965ZM22.0027 94.9484L21.1234 95.3987C20.9703 95.0993 20.8195 94.7983 20.6716 94.4959L21.5588 94.0617C21.7041 94.3588 21.8522 94.6544 22.0027 94.9484ZM21.1312 93.1672L20.2362 93.585C20.094 93.2803 19.9542 92.9741 19.8174 92.6664L20.7199 92.2649C20.8543 92.5672 20.9914 92.8679 21.1312 93.1672ZM20.3252 91.3554L19.4156 91.7403C19.2845 91.4307 19.1561 91.1195 19.0306 90.8069L19.9472 90.4388C20.0705 90.7457 20.1965 91.0512 20.3252 91.3554ZM19.586 89.5153L18.6629 89.8667C18.5432 89.5525 18.4263 89.2368 18.3123 88.92L19.2417 88.5855C19.3537 88.8968 19.4685 89.2067 19.586 89.5153ZM18.9145 87.6494L17.9791 87.9669C17.8711 87.6485 17.7658 87.3288 17.6634 87.0078L18.6045 86.7076C18.7051 87.0228 18.8083 87.3367 18.9145 87.6494ZM18.3118 85.7602L17.3654 86.0432C17.2692 85.721 17.1757 85.3978 17.0851 85.0733L18.0366 84.8077C18.1255 85.1263 18.2173 85.444 18.3118 85.7602ZM17.7788 83.8503L16.8225 84.0983C16.7381 83.7729 16.6567 83.4465 16.5779 83.1188L17.5384 82.8882C17.6157 83.21 17.6958 83.5307 17.7788 83.8503ZM17.3159 81.9221L16.3513 82.135C16.2788 81.8068 16.2094 81.4776 16.1426 81.1472L17.1109 80.9519C17.1764 81.2764 17.2446 81.5997 17.3159 81.9221ZM16.9239 79.9783L15.9522 80.1559C15.8917 79.8253 15.8343 79.4937 15.7797 79.1611L16.7545 79.0013C16.8081 79.328 16.8645 79.6536 16.9239 79.9783ZM16.603 78.0215L15.6256 78.1634C15.5772 77.8309 15.5318 77.4975 15.4895 77.1632L16.4694 77.0389C16.511 77.3674 16.5556 77.6949 16.603 78.0215ZM16.3536 76.0541L15.3717 76.1604C15.3354 75.8265 15.3021 75.4917 15.272 75.1559L16.2557 75.0673C16.2855 75.3972 16.3182 75.726 16.3536 76.0541ZM16.1758 74.0792L15.1905 74.15C15.1665 73.815 15.1454 73.4792 15.1273 73.1426L16.1136 73.0896C16.1315 73.4203 16.1521 73.7501 16.1758 74.0792ZM16.0693 72.0991L15.0821 72.1343C15.0701 71.7988 15.0611 71.4625 15.0551 71.1255L16.0427 71.1078C16.0486 71.439 16.0575 71.7694 16.0693 72.0991Z" fill="white"/>
<path d="M70.634 122.995C99.8384 122.995 123.513 99.3208 123.513 70.1164C123.513 40.912 99.8384 17.2371 70.634 17.2371C41.4296 17.2371 17.7547 40.912 17.7547 70.1164C17.7547 99.3208 41.4296 122.995 70.634 122.995Z" stroke="white" stroke-width="0.986712" stroke-miterlimit="1.5" stroke-linejoin="round"/>
<path fill-rule="evenodd" clip-rule="evenodd" d="M111.719 30.7358L108.728 33.3743C101.727 26.0509 93.0813 21.2973 82.5828 18.5515L83.045 14.5284C94.1365 17.6303 103.781 22.5705 111.719 30.7358Z" fill="white"/>
<path fill-rule="evenodd" clip-rule="evenodd" d="M77.0002 127.006L76.7275 123.027C86.8 121.931 95.8338 117.965 104.403 111.308L107.314 114.123C98.1009 121.035 88.3104 125.68 77.0002 127.006Z" fill="white"/>
<path fill-rule="evenodd" clip-rule="evenodd" d="M17.8452 91.8544L21.5879 90.4763C25.4666 99.8366 31.8071 107.395 40.6017 113.753L38.7155 117.336C29.4971 110.432 22.2919 102.338 17.8452 91.8544Z" fill="white"/>
<path fill-rule="evenodd" clip-rule="evenodd" d="M52.1548 16.7319L53.1553 19.9832C50.5753 20.7883 46.4803 22.5947 44.3359 24.0212L42.8634 20.9937C44.2277 19.8604 50.6353 16.7981 52.1548 16.7319Z" fill="white"/>
<path fill-rule="evenodd" clip-rule="evenodd" d="M123.12 91.7438L119.962 90.4763C118.946 92.9805 116.805 96.9109 115.205 98.9293L118.099 100.649C119.342 99.3832 122.926 93.2524 123.12 91.7438Z" fill="white"/>
<path fill-rule="evenodd" clip-rule="evenodd" d="M21.4212 41.6552L24.8968 43.2267C22.381 45.7777 17.7167 60.2512 18.0315 63.652L14.4125 62.7793C14.1347 59.5873 19.2308 42.8574 21.4212 41.6552Z" fill="white"/>
<path fill-rule="evenodd" clip-rule="evenodd" d="M127.502 67.8746L123.727 68.4165C124.478 64.9134 120.635 50.2004 118.542 47.5013L122.064 46.2928C124.012 48.8357 128.704 65.6838 127.502 67.8746Z" fill="white"/>
<path d="M45.5317 111.933C45.7247 111.637 45.9152 111.341 46.103 111.046C46.2908 110.75 46.4738 110.458 46.6518 110.17L47.001 109.605C46.3816 109.831 45.7016 110.063 44.9607 110.301C44.2201 110.539 43.8345 110.683 43.8041 110.732C43.7766 110.776 43.7843 110.824 43.8271 110.876C43.8697 110.928 43.9637 110.999 44.1091 111.089C44.1459 111.112 44.2199 111.156 44.331 111.221C44.442 111.286 44.5333 111.341 44.6046 111.385C44.6933 111.44 44.8913 111.557 45.1985 111.737C45.3404 111.821 45.4514 111.886 45.5317 111.933ZM45.18 112.46C44.8131 112.234 44.4291 111.991 44.0275 111.732C43.9257 111.666 43.8624 111.625 43.8377 111.61C43.6162 111.473 43.4276 111.364 43.2719 111.283C43.1161 111.202 42.9919 111.148 42.8994 111.122C42.8758 110.995 42.8695 110.884 42.8808 110.789C42.8921 110.694 42.9219 110.607 42.9707 110.528C43.1015 110.316 43.7201 110.042 44.8264 109.705C45.3519 109.544 45.7717 109.412 46.0862 109.31C46.1521 109.286 46.2466 109.255 46.3697 109.215C47.3304 108.894 47.9043 108.791 48.0914 108.907C48.1653 108.952 48.202 109.01 48.2015 109.079C48.2011 109.149 48.1583 109.253 48.0731 109.39C48.0503 109.427 47.9787 109.529 47.8583 109.696C47.2772 110.504 46.7372 111.312 46.2379 112.119L46.1353 112.285C46.3175 112.398 46.4834 112.484 46.6332 112.545C46.7831 112.605 46.9168 112.639 47.0343 112.647C47.0237 112.736 47.0092 112.813 46.9911 112.878C46.9727 112.943 46.9492 112.999 46.9202 113.046C46.8351 113.184 46.73 113.255 46.6048 113.259C46.4796 113.264 46.3124 113.201 46.1031 113.072C46.0491 113.038 45.9602 112.978 45.8368 112.892C45.8187 112.877 45.8047 112.867 45.7948 112.861C45.6846 113.044 45.5577 113.259 45.414 113.506C45.2702 113.752 45.1801 113.905 45.1436 113.964C45.0401 114.131 44.9454 114.233 44.8595 114.27C44.7737 114.307 44.6753 114.292 44.5647 114.223C44.4932 114.179 44.4217 114.115 44.3502 114.029C44.2786 113.944 44.2038 113.838 44.1254 113.712C44.2666 113.632 44.4233 113.49 44.5956 113.286C44.7682 113.081 44.963 112.806 45.18 112.46Z" fill="white" stroke="white" stroke-width="0.740277" stroke-miterlimit="2" stroke-linejoin="round"/>
<path d="M47.467 114.527C47.5303 114.689 47.62 114.829 47.7364 114.948C47.8528 115.066 48.001 115.169 48.1809 115.256C48.6633 115.488 49.126 115.546 49.5687 115.43C50.0116 115.314 50.3303 115.053 50.5248 114.649C50.6767 114.334 50.692 114.038 50.5706 113.763C50.4493 113.488 50.2048 113.262 49.8371 113.085C49.6207 112.981 49.381 112.895 49.1178 112.828C48.8547 112.761 48.7114 112.722 48.6879 112.71C48.6149 112.675 48.5689 112.631 48.5499 112.577C48.5311 112.522 48.5392 112.459 48.5742 112.386C48.5918 112.349 48.7895 112.089 49.1671 111.604C49.5449 111.12 49.9018 110.655 50.2381 110.21C50.4379 110.322 50.6157 110.419 50.7717 110.502C50.9276 110.585 51.0734 110.66 51.2089 110.725C51.5949 110.911 51.9176 111.047 52.1772 111.135C52.4367 111.223 52.6565 111.274 52.8367 111.287C52.8419 111.376 52.839 111.457 52.8278 111.53C52.8166 111.604 52.7978 111.668 52.7714 111.722C52.6911 111.889 52.5717 111.972 52.4131 111.971C52.2546 111.971 51.9445 111.859 51.4829 111.637C51.3134 111.556 51.1384 111.469 50.9577 111.377C50.7771 111.285 50.5895 111.188 50.395 111.085C50.3013 111.213 50.1775 111.38 50.0241 111.585C49.8705 111.791 49.6911 112.027 49.4854 112.294C49.6647 112.342 49.8205 112.389 49.9525 112.435C50.0846 112.481 50.1976 112.526 50.2914 112.571C50.8233 112.828 51.1792 113.166 51.3591 113.586C51.5389 114.007 51.5178 114.448 51.2957 114.909C51.1713 115.168 51.0071 115.39 50.8029 115.578C50.5987 115.765 50.3685 115.905 50.1122 115.997C49.7106 116.144 49.3055 116.205 48.8966 116.181C48.4879 116.156 48.0868 116.049 47.6931 115.859C47.3958 115.716 47.1835 115.563 47.0559 115.401C46.9286 115.238 46.8995 115.085 46.9686 114.942C46.9999 114.877 47.0571 114.81 47.1402 114.74C47.2233 114.671 47.3322 114.6 47.467 114.527Z" fill="white" stroke="white" stroke-width="0.740277" stroke-miterlimit="2" stroke-linejoin="round"/>
<path d="M53.4172 114.527C53.371 114.51 53.3066 114.488 53.2239 114.461C53.141 114.435 53.0873 114.417 53.063 114.408C52.9519 114.366 52.8799 114.322 52.8468 114.274C52.8137 114.226 52.8115 114.164 52.8398 114.088C52.8531 114.053 52.8747 114.014 52.9046 113.971C52.9345 113.928 52.9743 113.882 53.0238 113.832C53.0455 113.84 53.0815 113.856 53.1319 113.877C53.1824 113.899 53.2226 113.916 53.2523 113.927C53.3228 113.954 53.4367 113.992 53.5943 114.042C53.6132 114.049 53.6287 114.053 53.6405 114.054C53.6518 114.024 53.6698 113.98 53.6949 113.922C53.7199 113.863 53.7376 113.82 53.7478 113.793C53.827 113.582 53.8831 113.39 53.9166 113.219C53.9499 113.048 53.9609 112.89 53.9498 112.747C54.0876 112.734 54.208 112.729 54.3114 112.734C54.4148 112.739 54.4989 112.753 54.5639 112.778C54.6751 112.819 54.7427 112.884 54.7669 112.972C54.7911 113.06 54.7738 113.183 54.715 113.34C54.6895 113.407 54.5977 113.616 54.4392 113.964C54.3812 114.094 54.335 114.197 54.3 114.274C54.4654 114.311 54.6131 114.348 54.7431 114.384C54.8733 114.42 54.9883 114.457 55.0886 114.495C55.178 114.528 55.2363 114.569 55.2635 114.616C55.2905 114.663 55.2904 114.723 55.263 114.797C55.2477 114.837 55.2164 114.883 55.1692 114.935C55.1221 114.987 55.0611 115.042 54.9866 115.101C54.9222 115.058 54.8523 115.018 54.7768 114.981C54.7011 114.943 54.608 114.904 54.4968 114.862C54.4778 114.855 54.4202 114.835 54.3237 114.804C54.2275 114.773 54.1449 114.745 54.0761 114.723C53.8933 115.136 53.7452 115.478 53.6317 115.747C53.5184 116.017 53.4292 116.239 53.3642 116.412C53.2229 116.789 53.1575 117.065 53.1674 117.24C53.1775 117.415 53.2611 117.532 53.4183 117.591C53.4616 117.608 53.51 117.617 53.5636 117.618C53.6172 117.619 53.6748 117.612 53.7368 117.595C53.7409 117.658 53.7407 117.712 53.7364 117.757C53.7319 117.802 53.7237 117.84 53.7114 117.873C53.6617 118.006 53.5659 118.094 53.4242 118.138C53.2825 118.183 53.1236 118.172 52.9473 118.106C52.6548 117.996 52.4735 117.818 52.4038 117.57C52.3343 117.323 52.3746 116.999 52.5249 116.598C52.5675 116.485 52.694 116.188 52.9045 115.709C53.1149 115.23 53.2857 114.836 53.4172 114.527Z" fill="white" stroke="white" stroke-width="0.740277" stroke-miterlimit="2" stroke-linejoin="round"/>
<path d="M56.1034 118.931C55.9776 118.961 55.8605 118.978 55.7519 118.979C55.6435 118.98 55.5404 118.967 55.4428 118.941C55.3146 118.905 55.2363 118.847 55.2079 118.765C55.1796 118.684 55.1964 118.531 55.2584 118.308C55.2732 118.255 55.4065 117.849 55.6584 117.09C55.9102 116.331 56.1355 115.595 56.3342 114.881C56.5251 114.196 56.6389 113.727 56.6759 113.476C56.7128 113.225 56.7134 113.018 56.6776 112.855C56.8182 112.825 56.9404 112.809 57.0443 112.808C57.1483 112.807 57.242 112.818 57.3257 112.841C57.454 112.877 57.5326 112.94 57.5614 113.031C57.5902 113.122 57.5743 113.276 57.5137 113.493C57.5053 113.524 57.433 113.737 57.2972 114.133C57.1613 114.53 57.0357 114.919 56.9202 115.301C57.1824 115.212 57.4307 115.159 57.6653 115.142C57.9 115.124 58.1191 115.144 58.3225 115.201C58.7882 115.33 59.1111 115.576 59.2914 115.937C59.4718 116.298 59.49 116.736 59.3466 117.252C59.3193 117.35 59.2688 117.515 59.1949 117.748C59.1208 117.981 59.0645 118.168 59.0257 118.307C58.9209 118.684 58.858 118.972 58.8369 119.171C58.8158 119.372 58.8267 119.545 58.87 119.692C58.7238 119.72 58.5977 119.737 58.4916 119.74C58.3855 119.744 58.2949 119.734 58.2195 119.714C58.0885 119.677 58.0076 119.619 57.9772 119.541C57.9466 119.462 57.9585 119.324 58.0127 119.129C58.0485 119.001 58.1237 118.764 58.2382 118.417C58.3527 118.07 58.4414 117.784 58.5043 117.558C58.6618 116.992 58.704 116.571 58.631 116.294C58.558 116.016 58.3584 115.832 58.0323 115.742C57.8565 115.693 57.6714 115.676 57.4765 115.691C57.2816 115.705 57.0461 115.755 56.77 115.841C56.6968 116.061 56.6246 116.29 56.5537 116.529C56.4828 116.767 56.4124 117.012 56.3426 117.263C56.2138 117.726 56.133 118.077 56.1007 118.317C56.0684 118.557 56.0693 118.762 56.1034 118.931Z" fill="white" stroke="white" stroke-width="0.740277" stroke-miterlimit="2" stroke-linejoin="round"/>
<path d="M71.3564 121.323C70.8447 120.785 70.14 119.955 69.2425 118.835C68.3449 117.714 67.6731 116.903 67.2267 116.401C67.1929 117.489 67.1745 118.638 67.1713 119.848C67.1722 120.169 67.1713 120.365 67.169 120.435C67.1594 120.721 67.1226 120.907 67.059 120.993C66.9952 121.08 66.8809 121.12 66.7162 121.114C66.6091 121.111 66.4983 121.088 66.3839 121.047C66.2695 121.005 66.1556 120.946 66.0424 120.87C66.2075 120.609 66.3303 120.23 66.4107 119.733C66.4913 119.237 66.5527 118.358 66.5953 117.097C66.6152 116.504 66.5925 116.082 66.5271 115.831C66.4617 115.579 66.3382 115.401 66.1563 115.297C66.2887 115.151 66.4051 115.047 66.5057 114.985C66.6062 114.923 66.7056 114.894 66.804 114.897C66.8966 114.9 66.9865 114.933 67.0743 114.995C67.1619 115.058 67.2683 115.166 67.3934 115.321C67.4156 115.348 67.467 115.413 67.5475 115.517C68.6108 116.874 69.8063 118.343 71.1342 119.925C71.1574 119.495 71.1767 119.114 71.1921 118.785C71.2076 118.455 71.2193 118.173 71.2272 117.939C71.253 117.17 71.2425 116.582 71.1953 116.177C71.1483 115.771 71.0592 115.445 70.9286 115.197C71.0611 115.132 71.1807 115.085 71.2875 115.055C71.3941 115.025 71.4937 115.012 71.5862 115.015C71.7512 115.021 71.863 115.073 71.9221 115.172C71.9808 115.271 72.0049 115.481 71.9941 115.802C71.9877 115.993 71.9552 116.462 71.8968 117.208C71.8382 117.955 71.7996 118.608 71.7808 119.169C71.7684 119.534 71.7657 119.875 71.7723 120.194C71.7789 120.513 71.7934 120.812 71.816 121.09L71.3564 121.323Z" fill="white" stroke="white" stroke-width="0.740277" stroke-miterlimit="2" stroke-linejoin="round"/>
<path d="M73.4143 115.165C73.5321 115.078 73.6497 115.008 73.7674 114.956C73.885 114.904 74.0027 114.871 74.1205 114.857C74.2728 114.839 74.3822 114.87 74.4487 114.951C74.5153 115.032 74.5647 115.206 74.5969 115.473C74.6111 115.591 74.6375 115.943 74.6762 116.53C74.7148 117.117 74.762 117.642 74.8178 118.105C74.9212 118.964 75.1166 119.557 75.4036 119.884C75.6908 120.21 76.1231 120.339 76.7006 120.269C77.3729 120.188 77.8322 119.9 78.0785 119.404C78.3249 118.908 78.386 118.145 78.2622 117.117C78.1845 116.473 78.0846 115.952 77.9621 115.553C77.8398 115.154 77.6944 114.872 77.5261 114.709C77.6421 114.608 77.75 114.529 77.8497 114.473C77.9493 114.418 78.0422 114.384 78.1285 114.374C78.3526 114.347 78.5196 114.446 78.6297 114.67C78.7398 114.894 78.8453 115.426 78.9465 116.265C79.1365 117.842 79.0561 118.995 78.7051 119.724C78.3543 120.453 77.6817 120.877 76.6877 120.997C75.8688 121.095 75.2529 120.955 74.8401 120.576C74.4271 120.198 74.1624 119.525 74.0458 118.556C74.0198 118.341 73.9909 118.034 73.9589 117.635C73.9269 117.237 73.9 116.947 73.8783 116.766C73.8308 116.373 73.7697 116.047 73.6949 115.789C73.6203 115.531 73.5266 115.323 73.4143 115.165Z" fill="white" stroke="white" stroke-width="0.740277" stroke-miterlimit="2" stroke-linejoin="round"/>
<path d="M84.1089 119.193C83.9941 119.303 83.8813 119.393 83.7704 119.461C83.6595 119.528 83.5508 119.575 83.4445 119.604C83.3016 119.641 83.1912 119.628 83.1129 119.562C83.0347 119.497 82.967 119.356 82.91 119.138C82.8728 118.995 82.7741 118.556 82.6139 117.822C82.4538 117.088 82.2978 116.429 82.1458 115.847C82.1071 115.698 82.021 115.386 81.8878 114.909C81.8244 114.678 81.7751 114.494 81.7401 114.36L81.4208 114.443C81.0091 114.551 80.6815 114.656 80.4375 114.758C80.1935 114.861 80.0132 114.969 79.8964 115.083C79.7999 114.977 79.7247 114.884 79.671 114.803C79.617 114.723 79.5815 114.649 79.5639 114.582C79.5311 114.456 79.5512 114.356 79.6245 114.282C79.6979 114.207 79.8424 114.142 80.0579 114.086C80.1699 114.056 80.4937 113.985 81.0296 113.872C81.5654 113.76 82.0434 113.648 82.4634 113.539C82.9702 113.407 83.369 113.282 83.6599 113.164C83.9505 113.046 84.163 112.923 84.2972 112.796C84.3766 112.871 84.4393 112.942 84.4852 113.009C84.5312 113.076 84.5626 113.142 84.5793 113.207C84.6189 113.358 84.5919 113.484 84.4985 113.584C84.4051 113.685 84.2408 113.766 84.0055 113.827C83.9187 113.85 83.7068 113.897 83.3696 113.969C83.0325 114.041 82.7636 114.099 82.5633 114.145C82.6716 114.641 82.7774 115.106 82.8805 115.542C82.9836 115.978 83.0827 116.377 83.1778 116.742C83.3597 117.44 83.5244 117.982 83.6717 118.368C83.8189 118.755 83.9646 119.03 84.1089 119.193Z" fill="white" stroke="white" stroke-width="0.740277" stroke-miterlimit="2" stroke-linejoin="round"/>
<path d="M89.3207 113.701C89.364 113.74 89.4023 113.782 89.4353 113.827C89.4684 113.871 89.4941 113.916 89.512 113.962C89.5779 114.129 89.5763 114.265 89.5073 114.37C89.4383 114.475 89.2759 114.578 89.0201 114.679C88.9959 114.688 88.9394 114.711 88.8505 114.746C88.5307 114.865 88.2363 114.978 87.967 115.085C87.9212 115.103 87.8451 115.134 87.7384 115.179C87.6319 115.225 87.549 115.259 87.4897 115.282C87.7764 116.009 88.0163 116.556 88.2092 116.923C88.4023 117.29 88.5785 117.542 88.738 117.678C88.6354 117.797 88.5351 117.895 88.4371 117.974C88.3393 118.053 88.2444 118.111 88.1529 118.147C88.0076 118.204 87.8926 118.207 87.8082 118.155C87.7238 118.102 87.6403 117.971 87.5575 117.761C87.5235 117.675 87.3521 117.195 87.0433 116.322C86.7346 115.448 86.4267 114.622 86.1198 113.844C86.002 113.545 85.8873 113.288 85.7757 113.072C85.6642 112.856 85.5486 112.668 85.4291 112.507C85.5684 112.458 85.6989 112.412 85.8203 112.369C85.9417 112.325 86.0507 112.285 86.1477 112.246C86.46 112.123 86.831 111.96 87.2608 111.756C87.6908 111.552 87.9729 111.424 88.1075 111.371C88.3148 111.289 88.4698 111.256 88.5723 111.272C88.675 111.287 88.7495 111.354 88.7962 111.473C88.8281 111.553 88.8479 111.645 88.8557 111.748C88.8637 111.85 88.8596 111.969 88.844 112.102C88.7017 112.081 88.5165 112.096 88.2884 112.149C88.0602 112.201 87.7887 112.29 87.4737 112.414C87.3607 112.459 87.2268 112.514 87.0724 112.579C86.9177 112.645 86.7452 112.72 86.5546 112.805L86.7751 113.376C86.8111 113.467 86.894 113.685 87.0234 114.029C87.1205 114.283 87.1985 114.489 87.2574 114.646C87.2998 114.635 87.3429 114.622 87.3866 114.607C87.4302 114.591 87.4883 114.569 87.561 114.54C88.1156 114.321 88.513 114.154 88.7532 114.037C88.9935 113.921 89.1825 113.809 89.3207 113.701Z" fill="white" stroke="white" stroke-width="0.740277" stroke-miterlimit="2" stroke-linejoin="round"/>
<path d="M93.2856 109.885C93.1175 109.895 92.929 109.936 92.7202 110.009C92.5113 110.081 92.2584 110.196 91.9614 110.352C91.8385 110.417 91.6126 110.541 91.2838 110.723C91.2032 110.769 91.1411 110.803 91.0976 110.826L91.9606 112.54C92.0324 112.509 92.1081 112.473 92.1874 112.431C92.2669 112.389 92.3923 112.323 92.5638 112.232C92.9045 112.053 93.1814 111.898 93.3949 111.766C93.6082 111.634 93.7582 111.525 93.8443 111.441C93.9129 111.496 93.9693 111.547 94.0136 111.594C94.0578 111.641 94.0916 111.687 94.1145 111.73C94.1792 111.853 94.186 111.962 94.135 112.058C94.0839 112.153 93.9674 112.249 93.7857 112.345C93.7268 112.376 93.5801 112.45 93.3457 112.567C93.1112 112.684 92.9095 112.787 92.7404 112.875C92.6124 112.943 92.5142 112.995 92.4456 113.033C92.3772 113.071 92.3143 113.106 92.2567 113.14C92.409 113.429 92.5678 113.739 92.7334 114.069C92.8989 114.399 93.0777 114.762 93.2698 115.158C93.2954 115.144 93.3344 115.125 93.387 115.101C93.7265 114.932 93.968 114.81 94.1114 114.734C94.3854 114.59 94.6105 114.451 94.787 114.317C94.9635 114.183 95.1085 114.041 95.2218 113.889C95.3293 113.957 95.4146 114.021 95.4773 114.081C95.5401 114.141 95.5875 114.202 95.6199 114.264C95.6913 114.399 95.6968 114.518 95.6362 114.621C95.5755 114.723 95.4198 114.84 95.1688 114.972C95.0459 115.037 94.8595 115.13 94.6096 115.252C94.3597 115.373 94.1746 115.466 94.0543 115.529C93.7828 115.672 93.5148 115.822 93.25 115.977C93.195 116.009 93.1611 116.029 93.1483 116.036C93.0588 116.083 92.9846 116.096 92.9259 116.074C92.8671 116.053 92.811 115.991 92.757 115.889C92.7287 115.835 92.663 115.694 92.5598 115.468C92.1829 114.652 91.8117 113.897 91.4464 113.204C91.0837 112.515 90.7811 111.969 90.5383 111.567C90.2957 111.165 90.0941 110.874 89.9337 110.693L90.4214 110.437C91.0206 110.121 91.6263 109.778 92.2387 109.406C92.3703 109.327 92.4503 109.28 92.4784 109.265C92.6858 109.156 92.8401 109.105 92.9411 109.11C93.0422 109.116 93.1238 109.178 93.1858 109.295C93.2209 109.362 93.2468 109.444 93.2638 109.541C93.2807 109.639 93.2879 109.753 93.2856 109.885Z" fill="white" stroke="white" stroke-width="0.740277" stroke-miterlimit="2" stroke-linejoin="round"/>
<path d="M96.9399 112.823C97.0806 112.81 97.2133 112.782 97.3385 112.738C97.4637 112.694 97.5867 112.632 97.7077 112.553C97.9956 112.364 98.1801 112.15 98.2609 111.912C98.3419 111.674 98.3093 111.444 98.1632 111.221C97.9886 110.955 97.5697 110.788 96.9064 110.722C96.9025 110.721 96.9005 110.72 96.9005 110.72C96.8901 110.72 96.8736 110.719 96.8512 110.716C95.8959 110.626 95.2921 110.389 95.0398 110.004C94.9238 109.828 94.8483 109.628 94.8131 109.405C94.7779 109.183 94.7849 108.953 94.834 108.717C94.9114 108.365 95.0373 108.053 95.2119 107.781C95.3865 107.509 95.6045 107.288 95.8658 107.116C96.0547 106.992 96.2168 106.931 96.3525 106.932C96.4881 106.933 96.5972 106.997 96.6797 107.123C96.7084 107.166 96.7303 107.234 96.7456 107.326C96.7609 107.418 96.7701 107.532 96.7731 107.669C96.6532 107.692 96.5377 107.725 96.4261 107.769C96.3147 107.813 96.208 107.868 96.1064 107.934C95.7967 108.138 95.5998 108.366 95.5156 108.62C95.4314 108.875 95.4686 109.123 95.6273 109.365C95.7225 109.51 95.8447 109.618 95.9938 109.69C96.143 109.762 96.3695 109.816 96.6734 109.852C96.7184 109.857 96.7837 109.864 96.8696 109.874C97.8895 109.994 98.525 110.245 98.7758 110.627C98.8709 110.773 98.9386 110.932 98.9786 111.107C99.0186 111.281 99.031 111.471 99.0159 111.674C98.9867 112.015 98.8811 112.333 98.6987 112.627C98.5162 112.922 98.2724 113.169 97.9675 113.369C97.7619 113.504 97.5829 113.57 97.4309 113.568C97.2789 113.565 97.1576 113.495 97.0672 113.357C97.0258 113.294 96.9945 113.219 96.9732 113.131C96.9517 113.043 96.9407 112.94 96.9399 112.823Z" fill="white" stroke="white" stroke-width="0.740277" stroke-miterlimit="2" stroke-linejoin="round"/>
</g>
</g>
</svg>
