<svg width="260" height="260" viewBox="0 0 260 260" fill="none" xmlns="http://www.w3.org/2000/svg">
<mask id="mask0_1681_4635" style="mask-type:luminance" maskUnits="userSpaceOnUse" x="0" y="0" width="260" height="260">
<path d="M260 0H0V260H260V0Z" fill="white"/>
</mask>
<g mask="url(#mask0_1681_4635)">
<mask id="mask1_1681_4635" style="mask-type:luminance" maskUnits="userSpaceOnUse" x="0" y="0" width="257" height="257">
<path d="M256.197 0.215942H0V256.413H256.197V0.215942Z" fill="white"/>
</mask>
<g mask="url(#mask1_1681_4635)">
<path fill-rule="evenodd" clip-rule="evenodd" d="M64.3904 85.9429L70.0031 107.135L60.1122 101.192L52.1211 79.4811L64.3904 85.9429Z" fill="#001DA5" stroke="#001DA5" stroke-width="1.3744" stroke-miterlimit="1.5" stroke-linecap="square"/>
<path fill-rule="evenodd" clip-rule="evenodd" d="M101.527 103.027L99.5196 111.473L95.4141 106.573L95.8969 98.4698L101.527 103.027Z" fill="#001DA5" stroke="#001DA5" stroke-width="1.3744" stroke-miterlimit="1.5" stroke-linecap="square"/>
<path fill-rule="evenodd" clip-rule="evenodd" d="M132.906 99.5575L125.24 105.165L124.061 99.1406L129.874 93.0017L132.906 99.5575Z" fill="#001DA5" stroke="#001DA5" stroke-width="1.36008" stroke-miterlimit="1.5" stroke-linecap="square"/>
<path fill-rule="evenodd" clip-rule="evenodd" d="M150.961 103.674L146.344 110.802L152.411 110.709L157.769 104.977L150.961 103.674Z" fill="#001DA5" stroke="#001DA5" stroke-width="1.37638" stroke-miterlimit="1.5" stroke-linecap="square"/>
<path fill-rule="evenodd" clip-rule="evenodd" d="M177.152 163.855L187.37 171.578L172.284 178.403L165.615 169.847L177.152 163.855Z" fill="#001DA5" stroke="#001DA5" stroke-width="1.3756" stroke-miterlimit="1.5" stroke-linecap="square"/>
<path fill-rule="evenodd" clip-rule="evenodd" d="M133.069 177.445L135.07 193.731L126.669 187.967L124.715 175.042L133.069 177.445Z" fill="#001DA5" stroke="#001DA5" stroke-width="1.83515" stroke-miterlimit="1.5" stroke-linecap="square"/>
<path fill-rule="evenodd" clip-rule="evenodd" d="M58.8945 153.74L68.5192 149.397L68.5893 170.198L58.8945 153.74Z" fill="#001DA5" stroke="#001DA5" stroke-width="1.35681" stroke-miterlimit="1.5" stroke-linecap="square"/>
<path fill-rule="evenodd" clip-rule="evenodd" d="M122.038 57.411L126.854 66.1086L102.801 94.7111L115.587 122.562L113.963 123.408L99.8809 96.3L122.038 57.411Z" fill="#001DA5" stroke="#001DA5" stroke-width="1.37511" stroke-miterlimit="1.5" stroke-linecap="square"/>
<path fill-rule="evenodd" clip-rule="evenodd" d="M207.842 107.714L182.359 110.057L184.331 116.842L170.188 127.801L143.1 122.043L144.002 124.002L170.024 130.809L185.449 118.104L207.842 107.714Z" fill="#001DA5" stroke="#001DA5" stroke-width="1.31797" stroke-miterlimit="1.5" stroke-linecap="square"/>
<path fill-rule="evenodd" clip-rule="evenodd" d="M143.221 52.8893L135.331 50.18L128.595 57.9403L133.862 66.8507C133.862 66.8507 107.088 98.7295 106.918 98.1321C106.468 96.548 131.09 66.739 131.09 66.739L125.812 58.0189L134.979 48.8202L143.221 52.8893Z" fill="#001DA5" stroke="#001DA5" stroke-width="1.37511" stroke-miterlimit="1.5" stroke-linecap="square"/>
<path d="M125.49 139.236L139.152 142.239L148.37 158.523" stroke="#001DA5" stroke-width="1.83515" stroke-miterlimit="1.5" stroke-linecap="square"/>
<path d="M69.8477 74.6898L78.4077 79.2062" stroke="#001DA5" stroke-width="1.87165" stroke-miterlimit="1.5" stroke-linecap="square"/>
<path d="M141.816 78.1613L144.54 83.5474" stroke="#001DA5" stroke-width="2.42548" stroke-miterlimit="1.5" stroke-linecap="square"/>
<path d="M179.779 145.7L185.534 155.867" stroke="#001DA5" stroke-width="1.72265" stroke-miterlimit="1.5" stroke-linecap="square"/>
<path d="M116.754 86.5975L120.891 94.7815" stroke="#001DA5" stroke-width="1.92183" stroke-miterlimit="1.5" stroke-linecap="square"/>
<path d="M143.348 68.2748L151.605 84.6095" stroke="#001DA5" stroke-width="1.48582" stroke-miterlimit="1.5" stroke-linecap="square"/>
<path d="M111.561 93.556L119.818 109.891" stroke="#001DA5" stroke-width="1.48582" stroke-miterlimit="1.5" stroke-linecap="square"/>
<path d="M91.7734 71.9355L111.442 76.0938" stroke="#001DA5" stroke-width="1.83515" stroke-miterlimit="1.5" stroke-linecap="square"/>
<path d="M149.062 164.379L148.943 179.501" stroke="#001DA5" stroke-width="1.83515" stroke-miterlimit="1.5" stroke-linecap="square"/>
<path d="M149.002 186.758L144.254 199.613" stroke="#001DA5" stroke-width="1.76111" stroke-miterlimit="1.5" stroke-linecap="square"/>
<path fill-rule="evenodd" clip-rule="evenodd" d="M69.4553 70.0486L79.662 74.1192L88.6225 67.515L114.163 72.0709L100.679 96.7941L102.059 101.672L99.563 111.45L80.1702 105.336L73.1581 108.964L60.2103 101.373L52.1348 79.6364L69.4553 70.0486Z" stroke="#001DA5" stroke-width="1.37511" stroke-miterlimit="1.5" stroke-linecap="square"/>
<path fill-rule="evenodd" clip-rule="evenodd" d="M126.329 133.804L146.524 138.501L157 157.103L154.68 185.906L147.97 202.818L126.712 187.899L124.707 174.964L101.687 165.748L96.9473 156.62L108.575 131.184L116.675 135.315L126.329 133.804Z" stroke="#001DA5" stroke-width="1.83515" stroke-miterlimit="1.5" stroke-linecap="square"/>
<path d="M118.082 140.729L131.214 146.916L141.576 174.69" stroke="#001DA5" stroke-width="1.83515" stroke-miterlimit="1.5" stroke-linecap="square"/>
<path d="M99.1685 111.665L80.1861 105.148L53.0788 121.77L49.3984 152.216L68.2253 170.397L68.1756 149.423L80.7356 142.34L99.9027 150.081L101.197 147.303M99.1685 111.665L110.663 115.417M99.1685 111.665L99.5485 118.057M101.197 147.303L102.625 144.237M101.197 147.303L86.1838 139.775M99.5485 118.057L78.4137 112.05L57.7141 125.334L54.1081 150.755M99.5485 118.057L100.755 120.274L124.147 133.934L116.55 135.298L108.753 131.086L102.625 144.237M102.625 144.237L85.5997 135.883L62.7439 147.338" stroke="#001DA5" stroke-width="1.37511" stroke-miterlimit="1.5" stroke-linecap="square"/>
<path d="M156.859 85.6044L144.269 60.0795L147.26 51.0487L136.159 45.1354L122.197 57.2394L100.463 95.9848L102.111 100.738L100.395 110.996L100.352 120.331L125.555 134.019M156.859 85.6044L126.353 115.197M156.859 85.6044L167.599 77.4185L191.892 83.1342L195.37 94.3796L209.117 107.239M125.555 134.019L127.988 133.788M125.555 134.019L119.938 123.697L125.481 104.772M209.117 107.239L192.393 96.0763L187.388 84.5372L168.091 80.3123L130.941 115.885M209.117 107.239L185.743 117.64L164.361 135.131L140.18 128.908L130.232 134.299L127.988 133.788M127.988 133.788L129.28 121.755L147.152 110.19" stroke="#001DA5" stroke-width="1.37511" stroke-miterlimit="1.5" stroke-linecap="square"/>
<path d="M189.453 152.997L197.387 148.115L189.162 129.498L175.864 125.757L164.31 134.944L141.158 128.39L130.262 134.1L146.211 138.192L156.845 156.915L156.567 162.548L162.963 164.924L176.674 163.824L187.353 171.588L189.453 152.997ZM189.453 152.997L179.853 138.933L155.77 138.629" stroke="#001DA5" stroke-width="1.83515" stroke-miterlimit="1.5" stroke-linecap="square"/>
<path d="M130.208 8.92205C131.642 8.92205 132.804 7.76 132.804 6.32656C132.804 4.89311 131.642 3.73108 130.208 3.73108C128.775 3.73108 127.613 4.89311 127.613 6.32656C127.613 7.76 128.775 8.92205 130.208 8.92205Z" fill="#001DA5" stroke="#001DA5" stroke-width="1.83417" stroke-miterlimit="1.5" stroke-linejoin="round"/>
<path d="M58.4565 32.2812C59.8896 32.2812 61.0516 31.1192 61.0516 29.6858C61.0516 28.2524 59.8896 27.0902 58.4565 27.0902C57.0231 27.0902 55.8613 28.2524 55.8613 29.6858C55.8613 31.1192 57.0231 32.2812 58.4565 32.2812Z" fill="#001DA5" stroke="#001DA5" stroke-width="1.83417" stroke-miterlimit="1.5" stroke-linejoin="round"/>
<path d="M201.8 31.8418C203.233 31.8418 204.395 30.6798 204.395 29.2465C204.395 27.8129 203.233 26.6509 201.8 26.6509C200.367 26.6509 199.205 27.8129 199.205 29.2465C199.205 30.6798 200.367 31.8418 201.8 31.8418Z" fill="#001DA5" stroke="#001DA5" stroke-width="1.83417" stroke-miterlimit="1.5" stroke-linejoin="round"/>
<path d="M14.4878 92.9087C15.921 92.9087 17.0829 91.7467 17.0829 90.3134C17.0829 88.8798 15.921 87.7178 14.4878 87.7178C13.0545 87.7178 11.8926 88.8798 11.8926 90.3134C11.8926 91.7467 13.0545 92.9087 14.4878 92.9087Z" fill="#001DA5" stroke="#001DA5" stroke-width="1.83417" stroke-miterlimit="1.5" stroke-linejoin="round"/>
<path d="M245.163 89.5095C246.596 89.5095 247.759 88.3474 247.759 86.9139C247.759 85.4805 246.596 84.3185 245.163 84.3185C243.731 84.3185 242.568 85.4805 242.568 86.9139C242.568 88.3474 243.731 89.5095 245.163 89.5095Z" fill="#001DA5" stroke="#001DA5" stroke-width="1.83417" stroke-miterlimit="1.5" stroke-linejoin="round"/>
<path d="M16.7885 175.273C18.2218 175.273 19.3837 174.111 19.3837 172.677C19.3837 171.244 18.2218 170.082 16.7885 170.082C15.3553 170.082 14.1934 171.244 14.1934 172.677C14.1934 174.111 15.3553 175.273 16.7885 175.273Z" fill="#001DA5" stroke="#001DA5" stroke-width="1.83417" stroke-miterlimit="1.5" stroke-linejoin="round"/>
<path d="M245.163 173.08C246.596 173.08 247.759 171.918 247.759 170.485C247.759 169.051 246.596 167.889 245.163 167.889C243.731 167.889 242.568 169.051 242.568 170.485C242.568 171.918 243.731 173.08 245.163 173.08Z" fill="#001DA5" stroke="#001DA5" stroke-width="1.83417" stroke-miterlimit="1.5" stroke-linejoin="round"/>
<path d="M58.7651 229.969C60.1984 229.969 61.3605 228.806 61.3605 227.372C61.3605 225.938 60.1984 224.776 58.7651 224.776C57.3319 224.776 56.1699 225.938 56.1699 227.372C56.1699 228.806 57.3319 229.969 58.7651 229.969Z" fill="#001DA5" stroke="#001DA5" stroke-width="1.83417" stroke-miterlimit="1.5" stroke-linejoin="round"/>
<path d="M201.623 229.969C203.056 229.969 204.218 228.806 204.218 227.372C204.218 225.938 203.056 224.776 201.623 224.776C200.189 224.776 199.027 225.938 199.027 227.372C199.027 228.806 200.189 229.969 201.623 229.969Z" fill="#001DA5" stroke="#001DA5" stroke-width="1.83417" stroke-miterlimit="1.5" stroke-linejoin="round"/>
<path d="M130.978 252.899C132.411 252.899 133.573 251.736 133.573 250.302C133.573 248.868 132.411 247.706 130.978 247.706C129.545 247.706 128.383 248.868 128.383 250.302C128.383 251.736 129.545 252.899 130.978 252.899Z" fill="#001DA5" stroke="#001DA5" stroke-width="1.83417" stroke-miterlimit="1.5" stroke-linejoin="round"/>
<path d="M129.824 243.604C193.496 243.604 245.112 191.987 245.112 128.315C245.112 64.6423 193.496 13.0256 129.824 13.0256C66.1517 13.0256 14.5352 64.6423 14.5352 128.315C14.5352 191.987 66.1517 243.604 129.824 243.604Z" stroke="#001DA5" stroke-width="2.74817" stroke-miterlimit="1.5" stroke-linecap="round" stroke-linejoin="round"/>
<path fill-rule="evenodd" clip-rule="evenodd" d="M125.737 22.1449L125.634 19.4355C127.024 19.3829 128.421 19.3563 129.824 19.3563C131.227 19.3563 132.624 19.3829 134.014 19.4355L133.911 22.1449C132.555 22.0935 131.192 22.0676 129.824 22.0676C128.455 22.0676 127.093 22.0935 125.737 22.1449ZM139.35 22.4898L139.59 19.7889C142.393 20.0385 145.165 20.3943 147.904 20.8524L147.456 23.5266C144.786 23.08 142.083 22.7331 139.35 22.4898ZM152.805 24.5641L153.39 21.9162C156.133 22.5221 158.837 23.2314 161.499 24.0398L160.711 26.6341C158.116 25.8461 155.48 25.1545 152.805 24.5641ZM165.881 28.3523L166.802 25.802C169.44 26.7547 172.031 27.8065 174.57 28.9529L173.454 31.424C170.979 30.3067 168.453 29.2811 165.881 28.3523ZM178.361 33.7934L179.602 31.3826C182.092 32.665 184.526 34.0402 186.9 35.5042L185.477 37.8121C183.162 36.3848 180.788 35.0434 178.361 33.7934ZM190.04 40.7901L191.58 38.5581C193.883 40.1463 196.121 41.8209 198.291 43.5771L196.586 45.6846C194.469 43.9721 192.286 42.3391 190.04 40.7901ZM200.733 49.2196L202.544 47.2017C204.624 49.068 206.633 51.0131 208.564 53.0323L206.604 54.9065C204.721 52.9371 202.762 51.04 200.733 49.2196ZM210.269 58.9396L212.322 57.1676C214.147 59.2812 215.892 61.4655 217.553 63.716L215.37 65.3259C213.751 63.1312 212.049 61.0007 210.269 58.9396ZM218.492 69.792L220.755 68.2957C222.293 70.6221 223.746 73.011 225.106 75.4576L222.737 76.7757C221.41 74.3899 219.993 72.0607 218.492 69.792ZM225.264 81.6038L227.698 80.4091C228.926 82.9107 230.06 85.466 231.097 88.0705L228.579 89.0735C227.566 86.5341 226.46 84.0426 225.264 81.6038ZM230.462 94.1861L233.03 93.3144C233.924 95.9494 234.72 98.6294 235.414 101.35L232.787 102.02C232.11 99.3676 231.334 96.7548 230.462 94.1861ZM233.995 107.333L236.655 106.799C237.201 109.523 237.646 112.283 237.984 115.075L235.292 115.401C234.963 112.679 234.529 109.988 233.995 107.333ZM235.811 120.827L238.516 120.638C238.694 123.174 238.783 125.734 238.783 128.315C238.783 128.548 238.783 128.781 238.78 129.014L236.069 128.997C236.071 128.77 236.071 128.542 236.071 128.315C236.071 125.797 235.982 123.301 235.811 120.827ZM235.898 134.444L238.605 134.598C238.444 137.409 238.177 140.191 237.806 142.941L235.121 142.58C235.481 139.898 235.741 137.185 235.898 134.444ZM234.256 147.96L236.921 148.459C236.403 151.221 235.783 153.947 235.06 156.632L232.442 155.928C233.145 153.31 233.752 150.653 234.256 147.96ZM230.891 161.151L233.47 161.99C232.603 164.658 231.635 167.281 230.572 169.854L228.067 168.819C229.102 166.31 230.045 163.753 230.891 161.151ZM225.857 173.799L228.306 174.963C227.104 177.493 225.807 179.97 224.421 182.389L222.067 181.041C223.421 178.682 224.683 176.267 225.857 173.799ZM219.236 185.697L221.516 187.165C220.002 189.517 218.401 191.809 216.715 194.033L214.554 192.396C216.198 190.226 217.761 187.992 219.236 185.697ZM211.153 196.654L213.228 198.399C211.428 200.538 209.548 202.607 207.592 204.601L205.656 202.702C207.564 200.758 209.398 198.74 211.153 196.654ZM201.742 206.494L203.578 208.489C201.523 210.38 199.396 212.194 197.2 213.925L195.521 211.796C197.663 210.107 199.738 208.339 201.742 206.494ZM191.157 215.059L192.725 217.271C190.448 218.885 188.107 220.412 185.706 221.852L184.313 219.525C186.654 218.123 188.937 216.633 191.157 215.059ZM179.568 222.206L180.84 224.6C178.379 225.908 175.861 227.123 173.292 228.245L172.209 225.759C174.713 224.666 177.168 223.481 179.568 222.206ZM167.159 227.806L168.114 230.344C165.508 231.325 162.855 232.205 160.159 232.989L159.405 230.383C162.033 229.622 164.619 228.761 167.159 227.806ZM154.134 231.763L154.753 234.403C152.047 235.038 149.303 235.572 146.524 235.999L146.111 233.32C148.82 232.902 151.496 232.381 154.134 231.763ZM140.706 234.01L140.981 236.709C138.222 236.988 135.433 237.168 132.617 237.238L132.549 234.529C135.295 234.459 138.016 234.286 140.706 234.01ZM127.099 234.529L127.03 237.238C124.215 237.168 121.425 236.988 118.667 236.709L118.941 234.01C121.632 234.286 124.353 234.459 127.099 234.529ZM113.536 233.32L113.123 235.999C110.345 235.572 107.601 235.038 104.895 234.403L105.514 231.763C108.152 232.381 110.827 232.902 113.536 233.32ZM100.243 230.383L99.4886 232.989C96.7928 232.208 94.1399 231.325 91.5342 230.344L92.4881 227.806C95.0284 228.761 97.6149 229.622 100.243 230.383ZM87.4388 225.759L86.3551 228.245C83.7864 227.123 81.2689 225.908 78.8076 224.6L80.0798 222.206C82.4797 223.481 84.9343 224.666 87.4388 225.759ZM75.335 219.525L73.9416 221.852C71.5405 220.414 69.1996 218.885 66.9229 217.271L68.4905 215.059C70.7106 216.633 72.9936 218.123 75.335 219.525ZM64.1264 211.796L62.4479 213.925C60.2519 212.194 58.1244 210.38 56.0694 208.489L57.906 206.494C59.9098 208.339 61.985 210.107 64.1264 211.796ZM53.9915 202.702L52.056 204.601C50.0997 202.607 48.2195 200.538 46.4195 198.399L48.4943 196.654C50.2496 198.74 52.0834 200.758 53.9915 202.702ZM45.0933 192.395L42.9322 194.033C41.2465 191.809 39.6444 189.517 38.1301 187.164L40.4103 185.697C41.8869 187.992 43.4495 190.226 45.0933 192.395ZM37.5798 181.041L35.2276 182.389C33.8409 179.97 32.5442 177.493 31.3425 174.963L33.7916 173.799C34.9634 176.267 36.2278 178.682 37.5798 181.041ZM31.5817 168.819L29.0757 169.854C28.0124 167.281 27.0447 164.657 26.1773 161.989L28.7558 161.151C29.6015 163.752 30.5449 166.31 31.5817 168.819ZM27.2059 155.928L24.5875 156.631C23.8659 153.946 23.2444 151.221 22.7271 148.459L25.3921 147.96C25.8964 150.653 26.5022 153.31 27.2059 155.928ZM24.5277 142.58L21.8403 142.941C21.4707 140.191 21.2038 137.409 21.0437 134.598L23.7507 134.444C23.9069 137.185 24.1669 139.898 24.5277 142.58ZM23.5789 128.996L20.8673 129.013C20.8658 128.781 20.8652 128.548 20.8652 128.315C20.8652 125.734 20.9551 123.174 21.132 120.637L23.8368 120.826C23.6641 123.3 23.5765 125.797 23.5765 128.315C23.5765 128.542 23.5772 128.769 23.5789 128.996ZM24.3548 115.402L21.6632 115.075C22.0019 112.283 22.4468 109.523 22.993 106.8L25.6515 107.333C25.1188 109.988 24.6854 112.679 24.3548 115.402ZM26.861 102.02L24.2335 101.35C24.9272 98.6294 25.7235 95.9494 26.6179 93.3146L29.1855 94.1861C28.3135 96.7548 27.5371 99.3676 26.861 102.02ZM31.0696 89.0735L28.5506 88.0705C29.5876 85.466 30.7223 82.9105 31.95 80.4091L34.3843 81.6036C33.1871 84.0426 32.0808 86.5341 31.0696 89.0735ZM36.91 76.7755L34.5406 75.4573C35.9016 73.0108 37.3542 70.6219 38.8939 68.2955L41.155 69.7918C39.6537 72.0605 38.2373 74.3897 36.91 76.7755ZM44.2775 65.3257L42.0958 63.7158C43.756 61.4655 45.5011 59.2812 47.3258 57.1676L49.3782 58.9396C47.5984 61.0007 45.897 63.131 44.2775 65.3257ZM53.0432 54.9065L51.0838 53.0326C53.015 51.0131 55.0232 49.068 57.1032 47.2017L58.914 49.2196C56.8852 51.04 54.9269 52.9371 53.0432 54.9065ZM63.0618 45.6846L61.3562 43.5768C63.5264 41.8207 65.765 40.1461 68.068 38.5581L69.6074 40.7901C67.3617 42.3391 65.1782 43.9721 63.0618 45.6846ZM74.1706 37.8121L72.7474 35.5044C75.1214 34.0404 77.5556 32.665 80.0455 31.3826L81.2869 33.7934C78.859 35.0437 76.4855 36.3848 74.1706 37.8121ZM86.1937 31.424L85.0781 28.9527C87.6169 27.8065 90.2075 26.7547 92.8452 25.802L93.7664 28.3523C91.1947 29.2809 88.6692 30.3065 86.1937 31.424ZM98.937 26.6341L98.1487 24.04C100.81 23.2314 103.515 22.5221 106.257 21.9162L106.842 24.5641C104.168 25.1545 101.532 25.8461 98.937 26.6341ZM112.192 23.5266L111.744 20.8524C114.482 20.3943 117.255 20.0385 120.057 19.7889L120.298 22.4898C117.565 22.7331 114.861 23.08 112.192 23.5266Z" fill="#001DA5"/>
<path fill-rule="evenodd" clip-rule="evenodd" d="M29.3427 128.315H27.5352C27.5352 127.698 27.5406 127.082 27.5516 126.468L29.359 126.5C29.3481 127.104 29.3427 127.709 29.3427 128.315ZM29.4076 124.686L27.6011 124.622C27.6232 124.005 27.6508 123.39 27.6837 122.776L29.4887 122.874C29.4564 123.476 29.4292 124.081 29.4076 124.686ZM29.6026 121.063L27.7994 120.933C27.8436 120.318 27.8935 119.704 27.9486 119.092L29.7488 119.254C29.6948 119.856 29.6459 120.458 29.6026 121.063ZM29.9279 117.449L28.131 117.254C28.1974 116.641 28.2692 116.029 28.3466 115.419L30.1399 115.646C30.0639 116.246 29.9932 116.846 29.9279 117.449ZM30.3843 113.848L28.5957 113.588C28.6842 112.978 28.7783 112.37 28.8776 111.763L30.6615 112.055C30.5639 112.651 30.4713 113.249 30.3843 113.848ZM30.9715 110.267L29.1932 109.943C29.3041 109.336 29.4204 108.731 29.542 108.128L31.3138 108.486C31.1945 109.078 31.0802 109.672 30.9715 110.267ZM31.6888 106.711L29.9236 106.321C30.0566 105.719 30.195 105.119 30.3383 104.52L32.0962 104.942C31.9552 105.53 31.8194 106.119 31.6888 106.711ZM32.5359 103.182L30.786 102.728C30.9409 102.131 31.1012 101.536 31.2665 100.944L33.0077 101.43C32.8452 102.012 32.6879 102.596 32.5359 103.182ZM33.5114 99.6866L31.7795 99.1688C31.9561 98.5782 32.1379 97.9897 32.3248 97.4036L34.0469 97.953C33.8634 98.5287 33.6849 99.1066 33.5114 99.6866ZM34.6144 96.2294L32.9025 95.6488C33.1007 95.0648 33.304 94.4835 33.5122 93.9046L35.213 94.5167C35.0085 95.0852 34.8089 95.6561 34.6144 96.2294ZM35.8432 92.8148L34.1539 92.1716C34.3729 91.5957 34.5974 91.0222 34.8267 90.4513L36.5041 91.125C36.2787 91.6857 36.0584 92.2491 35.8432 92.8148ZM37.1959 89.4476L35.5313 88.7431C35.7714 88.1756 36.0165 87.6108 36.2666 87.0483L37.9182 87.7832C37.6724 88.3353 37.4319 88.8904 37.1959 89.4476ZM38.6709 86.1321L37.033 85.3675C37.2935 84.8091 37.5592 84.2534 37.8297 83.7007L39.4533 84.495C39.1876 85.0382 38.9268 85.5837 38.6709 86.1321ZM40.2656 82.8725L38.6566 82.0487C38.9377 81.5003 39.2231 80.9546 39.5138 80.4121L41.1075 81.265C40.822 81.7979 40.5415 82.3337 40.2656 82.8725ZM41.9782 79.6733L40.4001 78.7913C40.7008 78.2536 41.0062 77.7186 41.3161 77.187L42.8777 78.0976C42.5732 78.6197 42.2734 79.1451 41.9782 79.6733ZM43.8057 76.5382L42.261 75.5996C42.581 75.0732 42.9055 74.5497 43.2345 74.0296L44.762 74.9962C44.4388 75.507 44.1202 76.0213 43.8057 76.5382ZM45.7462 73.4717L44.2362 72.4778C44.5751 71.9633 44.9184 71.452 45.2661 70.9442L46.7576 71.9654C46.416 72.4641 46.0787 72.9665 45.7462 73.4717ZM47.7962 70.4774L46.3234 69.4293C46.6806 68.9276 47.042 68.4291 47.4079 67.9341L48.8615 69.0087C48.5021 69.4948 48.147 69.9844 47.7962 70.4774ZM49.9532 67.5595L48.5192 66.4586C48.8942 65.9704 49.2734 65.4851 49.6571 65.0036L51.0708 66.13C50.694 66.6031 50.3215 67.0794 49.9532 67.5595ZM52.2143 64.7207L50.8211 63.5691C51.2133 63.0945 51.6098 62.6236 52.0106 62.1561L53.3831 63.3329C52.9894 63.7919 52.5998 64.2546 52.2143 64.7207ZM54.5763 61.9659L53.2256 60.7649C53.6347 60.3046 54.0479 59.8482 54.4652 59.3957L55.7943 60.621C55.3841 61.0657 54.9782 61.5141 54.5763 61.9659ZM57.0361 59.2981L55.7294 58.0491C56.155 57.604 56.5843 57.1628 57.0177 56.7255L58.3018 57.9979C57.8758 58.4274 57.4541 58.861 57.0361 59.2981ZM59.5905 56.7205L58.3298 55.4253C58.771 54.9958 59.2159 54.5702 59.6649 54.149L60.9022 55.4667C60.4612 55.8808 60.0239 56.2988 59.5905 56.7205ZM62.236 54.2368L61.0228 52.897C61.4792 52.4837 61.9392 52.0746 62.403 51.6697L63.5919 53.0312C63.1364 53.4293 62.6843 53.831 62.236 54.2368ZM64.9695 51.8501L63.8053 50.4673C64.2763 50.0708 64.7509 49.6786 65.229 49.2905L66.3682 50.6942C65.8983 51.0753 65.4322 51.4606 64.9695 51.8501ZM67.7874 49.5634L66.6738 48.1396C67.1588 47.7602 67.6473 47.3854 68.1393 47.0149L69.2269 48.4587C68.7436 48.8227 68.2638 49.191 67.7874 49.5634ZM70.6859 47.3804L69.6245 45.9169C70.123 45.5557 70.6245 45.1985 71.1297 44.846L72.1643 46.3284C71.668 46.6746 71.1754 47.0253 70.6859 47.3804ZM73.6615 45.3032L72.6537 43.8024C73.1648 43.4595 73.679 43.1209 74.1966 42.7868L75.1768 44.3054C74.6686 44.6336 74.1634 44.9661 73.6615 45.3032ZM76.7102 43.3352L75.7577 41.799C76.2807 41.4747 76.8072 41.1548 77.3364 40.8398L78.2609 42.3931C77.7412 42.7024 77.2241 43.0165 76.7102 43.3352ZM79.8286 41.479L78.9325 39.9092C79.467 39.604 80.0045 39.3036 80.545 39.008L81.4125 40.5938C80.8817 40.8843 80.3537 41.1793 79.8286 41.479ZM83.0122 39.7374L82.1736 38.1362C82.7189 37.8507 83.2671 37.57 83.818 37.2941L84.6273 38.9103C84.0859 39.1815 83.5478 39.4572 83.0122 39.7374ZM86.257 38.1132L85.4774 36.4822C86.0325 36.2169 86.5906 35.9562 87.1514 35.7007L87.9012 37.3453C87.3505 37.5965 86.8023 37.8522 86.257 38.1132ZM89.5591 36.608L88.8396 34.9497C89.404 34.7048 89.9712 34.4647 90.5409 34.2298L91.2302 35.9007C90.6706 36.1317 90.1135 36.3672 89.5591 36.608ZM92.9139 35.2243L92.2554 33.5409C92.8284 33.3168 93.4041 33.0977 93.9822 32.8836L94.6097 34.5788C94.0421 34.7892 93.4768 35.0042 92.9139 35.2243ZM96.3168 33.9645L95.7203 32.2582C96.3012 32.055 96.8843 31.8572 97.47 31.6645L98.0352 33.3814C97.46 33.5708 96.8871 33.7651 96.3168 33.9645ZM99.7636 32.83L99.23 31.103C99.8178 30.9212 100.408 30.7448 101 30.5737L101.502 32.3103C100.921 32.4784 100.341 32.6517 99.7636 32.83ZM103.25 31.8225L102.78 30.077C103.374 29.9171 103.97 29.7624 104.568 29.613L105.006 31.3667C104.419 31.5136 103.833 31.6654 103.25 31.8225ZM106.771 30.9433L106.365 29.1817C106.964 29.0436 107.566 28.9108 108.169 28.7835L108.543 30.552C107.95 30.6772 107.359 30.8075 106.771 30.9433ZM110.321 30.1932L109.98 28.418C110.584 28.3022 111.19 28.1913 111.797 28.0861L112.106 29.8672C111.509 29.9707 110.914 30.0793 110.321 30.1932ZM113.897 29.5735L113.62 27.7872C114.228 27.6933 114.837 27.6046 115.449 27.5215L115.692 29.3128C115.092 29.3943 114.493 29.4813 113.897 29.5735ZM117.492 29.0844L117.281 27.2892C117.892 27.2176 118.504 27.1512 119.118 27.0903L119.296 28.8891C118.693 28.949 118.092 29.0141 117.492 29.0844ZM121.104 28.7262L120.958 26.9245C121.57 26.8751 122.184 26.8308 122.8 26.7922L122.913 28.5963C122.309 28.6343 121.705 28.6774 121.104 28.7262ZM124.725 28.4989L124.644 26.6931C125.258 26.6653 125.873 26.6434 126.49 26.6269L126.538 28.4338C125.933 28.4501 125.328 28.4718 124.725 28.4989ZM128.352 28.4015L128.336 26.594C128.644 26.5914 128.952 26.5898 129.26 26.5898C129.568 26.5898 129.876 26.5914 130.183 26.594L130.167 28.4015C129.865 28.3989 129.563 28.3974 129.26 28.3974C128.957 28.3974 128.655 28.3989 128.352 28.4015ZM131.981 28.4338L132.03 26.6269C132.646 26.6434 133.261 26.6653 133.875 26.6929L133.795 28.4987C133.191 28.4718 132.587 28.4501 131.981 28.4338ZM135.606 28.5963L135.72 26.7922C136.335 26.8308 136.949 26.8751 137.562 26.9245L137.416 28.7262C136.814 28.6774 136.211 28.6343 135.606 28.5963ZM139.224 28.8891L139.402 27.0903C140.016 27.1512 140.628 27.2176 141.239 27.2892L141.028 29.0844C140.428 29.0141 139.827 28.949 139.224 28.8891ZM142.828 29.3128L143.071 27.5215C143.682 27.6048 144.292 27.6933 144.9 27.7872L144.623 29.5735C144.026 29.4813 143.428 29.3943 142.828 29.3128ZM146.414 29.8672L146.722 28.0859C147.33 28.1913 147.936 28.3022 148.54 28.418L148.199 30.1932C147.606 30.0791 147.011 29.9704 146.414 29.8672ZM149.977 30.552L150.351 28.7833C150.954 28.9108 151.556 29.0436 152.155 29.1815L151.749 30.9431C151.16 30.8075 150.57 30.6772 149.977 30.552ZM153.514 31.3667L153.952 29.613C154.55 29.7624 155.146 29.9171 155.74 30.077L155.27 31.8225C154.687 31.6654 154.101 31.5136 153.514 31.3667ZM157.018 32.3103L157.519 30.5737C158.112 30.7448 158.702 30.9212 159.29 31.103L158.756 32.83C158.179 32.6517 157.599 32.4784 157.018 32.3103ZM160.485 33.3814L161.05 31.6645C161.635 31.8572 162.219 32.0552 162.8 32.2582L162.203 33.9645C161.633 33.7651 161.06 33.5708 160.485 33.3814ZM163.91 34.579L164.538 32.8836C165.116 33.0977 165.692 33.3168 166.264 33.5411L165.606 35.2243C165.043 35.0042 164.478 34.7892 163.91 34.579ZM167.29 35.9007L167.979 34.2298C168.549 34.4647 169.116 34.7048 169.68 34.9497L168.961 36.608C168.406 36.3672 167.849 36.1317 167.29 35.9007ZM170.618 37.3453L171.368 35.7007C171.929 35.9562 172.487 36.2167 173.042 36.482L172.263 38.113C171.717 37.8522 171.169 37.5963 170.618 37.3453ZM173.892 38.9103L174.702 37.2939C175.252 37.57 175.801 37.8505 176.346 38.136L175.507 39.7374C174.972 39.4572 174.434 39.1813 173.892 38.9103ZM177.107 40.5938L177.975 39.008C178.515 39.3036 179.053 39.604 179.588 39.9092L178.691 41.479C178.166 41.1793 177.638 40.8843 177.107 40.5938ZM180.259 42.3929L181.183 40.8396C181.713 41.1548 182.239 41.4745 182.762 41.7988L181.809 43.335C181.296 43.0165 180.779 42.7024 180.259 42.3929ZM183.343 44.3052L184.323 42.7866C184.841 43.1206 185.355 43.4592 185.866 43.8024L184.858 45.303C184.356 44.9661 183.851 44.6334 183.343 44.3052ZM186.355 46.3284L187.39 44.846C187.895 45.1985 188.397 45.5555 188.895 45.9169L187.834 47.3804C187.344 47.0253 186.852 46.6746 186.355 46.3284ZM189.293 48.4589L190.381 47.0149C190.872 47.3856 191.361 47.7604 191.846 48.1396L190.732 49.5636C190.256 49.191 189.776 48.8229 189.293 48.4589ZM192.152 50.6942L193.291 49.2905C193.769 49.6786 194.244 50.0708 194.714 50.4673L193.55 51.8501C193.088 51.4606 192.621 51.0753 192.152 50.6942ZM194.928 53.0312L196.117 51.6697C196.581 52.0746 197.041 52.4837 197.497 52.897L196.284 54.2368C195.835 53.831 195.384 53.429 194.928 53.0312ZM197.618 55.4667L198.855 54.149C199.304 54.5705 199.749 54.9958 200.19 55.4253L198.929 56.7207C198.496 56.2988 198.059 55.881 197.618 55.4667ZM200.218 57.9977L201.502 56.7255C201.935 57.1628 202.365 57.6038 202.79 58.0491L201.484 59.2981C201.066 58.861 200.644 58.4274 200.218 57.9977ZM202.726 60.621L204.055 59.3957C204.472 59.8482 204.885 60.3046 205.294 60.7649L203.943 61.9659C203.542 61.5141 203.136 61.0657 202.726 60.621ZM205.137 63.3327L206.509 62.1561C206.91 62.6236 207.306 63.0945 207.699 63.5691L206.305 64.7207C205.92 64.2546 205.53 63.7919 205.137 63.3327ZM207.449 66.1298L208.863 65.0036C209.246 65.4851 209.626 65.9702 210 66.4586L208.567 67.5593C208.198 67.0792 207.826 66.6029 207.449 66.1298ZM209.658 69.0085L211.112 67.9339C211.478 68.4291 211.839 68.9276 212.196 69.4293L210.724 70.4772C210.373 69.9841 210.018 69.4948 209.658 69.0085ZM211.762 71.9652L213.254 70.944C213.601 71.452 213.945 71.9631 214.283 72.4776L212.774 73.4717C212.441 72.9663 212.104 72.4641 211.762 71.9652ZM213.758 74.9959L215.285 74.0296C215.614 74.5495 215.939 75.0729 216.259 75.5994L214.714 76.5382C214.4 76.0211 214.081 75.507 213.758 74.9959ZM215.642 78.0974L217.204 77.1868C217.514 77.7186 217.82 78.2533 218.119 78.7911L216.542 79.673C216.246 79.1449 215.946 78.6195 215.642 78.0974ZM217.412 81.265L219.006 80.4121C219.297 80.9548 219.583 81.5003 219.863 82.0487L218.254 82.8725C217.978 82.3339 217.698 81.7979 217.412 81.265ZM219.067 84.4948L220.689 83.7005C220.961 84.2532 221.225 84.8089 221.488 85.3673L219.85 86.1319C219.592 85.5835 219.332 85.038 219.067 84.4948ZM220.601 87.783L222.253 87.0483C222.503 87.6106 222.748 88.1756 222.989 88.7431L221.323 89.4476C221.089 88.8902 220.848 88.3353 220.601 87.783ZM222.015 91.125L223.694 90.4511C223.921 91.022 224.147 91.5957 224.366 92.1716L222.676 92.8148C222.462 92.2491 222.24 91.6857 222.015 91.125ZM223.308 94.5165L225.008 93.9043C225.216 94.4833 225.418 95.0646 225.618 95.6483L223.906 96.2292C223.711 95.6559 223.512 95.085 223.308 94.5165ZM224.472 97.9528L226.195 97.4034C226.381 97.9895 226.564 98.578 226.739 99.1686L225.008 99.6864C224.835 99.1064 224.657 98.5285 224.472 97.9528ZM225.511 101.43L227.253 100.944C227.418 101.536 227.579 102.131 227.733 102.728L225.984 103.182C225.833 102.595 225.674 102.012 225.511 101.43ZM226.422 104.942L228.182 104.52C228.325 105.118 228.464 105.719 228.596 106.321L226.83 106.711C226.7 106.119 226.566 105.53 226.422 104.942ZM227.206 108.486L228.978 108.128C229.099 108.731 229.216 109.336 229.327 109.943L227.548 110.268C227.44 109.672 227.325 109.078 227.206 108.486ZM227.858 112.055L229.642 111.763C229.741 112.37 229.835 112.978 229.923 113.589L228.136 113.848C228.047 113.249 227.956 112.651 227.858 112.055ZM228.379 115.646L230.173 115.419C230.251 116.029 230.323 116.641 230.39 117.254L228.592 117.448C228.527 116.846 228.455 116.245 228.379 115.646ZM228.772 119.254L230.572 119.092C230.626 119.704 230.676 120.318 230.72 120.933L228.917 121.063C228.874 120.458 228.826 119.855 228.772 119.254ZM229.032 122.874L230.837 122.777C230.869 123.39 230.897 124.005 230.919 124.622L229.112 124.686C229.091 124.081 229.065 123.477 229.032 122.874ZM229.16 126.5L230.969 126.468C230.98 127.082 230.984 127.698 230.984 128.314H229.177C229.177 127.708 229.171 127.103 229.16 126.5ZM229.16 130.129L230.969 130.162C230.958 130.778 230.941 131.393 230.919 132.007L229.112 131.943C229.134 131.34 229.149 130.735 229.16 130.129ZM229.032 133.756L230.837 133.853C230.802 134.468 230.765 135.083 230.72 135.696L228.917 135.566C228.96 134.964 228.999 134.36 229.032 133.756ZM228.772 137.375L230.572 137.537C230.516 138.152 230.455 138.764 230.39 139.375L228.592 139.181C228.657 138.58 228.717 137.978 228.772 137.375ZM228.379 140.983L230.173 141.21C230.095 141.822 230.012 142.432 229.923 143.041L228.136 142.781C228.223 142.183 228.303 141.584 228.379 140.983ZM227.858 144.574L229.642 144.866C229.542 145.475 229.438 146.082 229.327 146.687L227.548 146.362C227.657 145.768 227.761 145.172 227.858 144.574ZM227.206 148.143L228.978 148.501C228.856 149.105 228.728 149.708 228.596 150.308L226.83 149.919C226.96 149.329 227.086 148.737 227.206 148.143ZM226.422 151.687L228.182 152.109C228.036 152.708 227.889 153.306 227.733 153.901L225.984 153.447C226.136 152.863 226.281 152.276 226.422 151.687ZM225.511 155.2L227.253 155.686C227.088 156.279 226.917 156.871 226.739 157.461L225.008 156.943C225.182 156.364 225.349 155.783 225.511 155.2ZM224.472 158.676L226.195 159.226C226.008 159.813 225.815 160.398 225.618 160.981L223.906 160.4C224.099 159.828 224.288 159.253 224.472 158.676ZM223.308 162.113L225.008 162.725C224.798 163.305 224.585 163.883 224.366 164.458L222.676 163.814C222.891 163.25 223.102 162.682 223.308 162.113ZM222.015 165.504L223.694 166.178C223.464 166.75 223.227 167.319 222.989 167.886L221.323 167.182C221.559 166.625 221.789 166.066 222.015 165.504ZM220.601 168.846L222.253 169.581C222.002 170.144 221.748 170.704 221.488 171.262L219.848 170.497C220.104 169.95 220.355 169.399 220.601 168.846ZM219.067 172.134L220.689 172.929C220.418 173.482 220.143 174.033 219.863 174.581L218.254 173.757C218.529 173.219 218.8 172.678 219.067 172.134ZM217.412 175.364L219.006 176.217C218.716 176.76 218.421 177.3 218.119 177.838L216.542 176.956C216.837 176.428 217.128 175.898 217.412 175.364ZM215.642 178.532L217.204 179.442C216.893 179.975 216.578 180.504 216.259 181.03L214.714 180.091C215.028 179.574 215.337 179.055 215.642 178.532ZM213.758 181.633L215.285 182.6C214.956 183.12 214.622 183.638 214.283 184.152L212.773 183.158C213.106 182.653 213.434 182.145 213.758 181.633ZM211.762 184.664L213.254 185.685C212.906 186.193 212.553 186.698 212.196 187.2L210.724 186.152C211.074 185.659 211.42 185.163 211.762 184.664ZM209.658 187.621L211.112 188.695C210.746 189.19 210.375 189.682 210 190.171L208.567 189.07C208.934 188.59 209.298 188.107 209.658 187.621ZM207.449 190.499L208.863 191.626C208.479 192.107 208.091 192.585 207.699 193.06L206.305 191.908C206.691 191.442 207.072 190.972 207.449 190.499ZM205.137 193.297L206.509 194.473C206.108 194.941 205.703 195.404 205.294 195.864L203.943 194.663C204.345 194.211 204.743 193.756 205.137 193.297ZM202.726 196.008L204.055 197.233C203.637 197.686 203.216 198.135 202.79 198.58L201.484 197.331C201.902 196.894 202.316 196.453 202.726 196.008ZM200.218 198.631L201.502 199.904C201.069 200.341 200.631 200.775 200.19 201.204L198.929 199.908C199.363 199.487 199.792 199.061 200.218 198.631ZM197.618 201.162L198.855 202.48C198.406 202.901 197.953 203.319 197.497 203.732L196.284 202.392C196.732 201.986 197.177 201.576 197.618 201.162ZM194.928 203.598L196.117 204.96C195.653 205.364 195.186 205.765 194.714 206.162L193.55 204.779C194.013 204.389 194.472 203.996 194.928 203.598ZM192.152 205.935L193.291 207.339C192.813 207.726 192.331 208.11 191.846 208.49L190.732 207.066C191.209 206.693 191.682 206.316 192.152 205.935ZM189.293 208.171L190.381 209.614C189.889 209.985 189.394 210.35 188.895 210.712L187.834 209.249C188.324 208.894 188.81 208.534 189.293 208.171ZM186.355 210.301L187.39 211.783C186.885 212.135 186.377 212.483 185.866 212.827L184.858 211.326C185.361 210.989 185.86 210.647 186.355 210.301ZM183.343 212.324L184.323 213.843C183.806 214.176 183.285 214.506 182.762 214.83L181.809 213.294C182.323 212.975 182.835 212.652 183.343 212.324ZM180.259 214.236L181.183 215.789C180.654 216.104 180.122 216.415 179.588 216.72L178.691 215.15C179.217 214.85 179.739 214.545 180.259 214.236ZM177.107 216.035L177.975 217.622C177.435 217.917 176.892 218.208 176.346 218.492L175.508 216.892C176.044 216.611 176.577 216.325 177.107 216.035ZM173.892 217.72L174.702 219.336C174.151 219.611 173.598 219.88 173.042 220.147L172.263 218.516C172.809 218.255 173.352 217.989 173.892 217.72ZM170.618 219.284L171.368 220.928C170.808 221.184 170.245 221.433 169.68 221.678L168.96 220.021C169.516 219.78 170.068 219.535 170.618 219.284ZM167.29 220.728L167.979 222.399C167.41 222.635 166.838 222.863 166.264 223.088L165.606 221.405C166.17 221.184 166.731 220.958 167.29 220.728ZM163.91 222.049L164.538 223.746C163.961 223.958 163.381 224.169 162.799 224.37L162.203 222.665C162.774 222.466 163.343 222.26 163.91 222.049ZM160.485 223.247L161.05 224.965C160.465 225.158 159.879 225.344 159.29 225.526L158.756 223.8C159.334 223.62 159.911 223.438 160.485 223.247ZM157.018 224.318L157.519 226.056C156.928 226.227 156.335 226.392 155.74 226.552L155.27 224.806C155.855 224.65 156.437 224.487 157.018 224.318ZM153.514 225.262L153.952 227.017C153.355 227.164 152.756 227.31 152.155 227.448L151.749 225.687C152.339 225.55 152.928 225.409 153.514 225.262ZM149.977 226.077L150.351 227.845C149.749 227.973 149.145 228.095 148.54 228.212L148.199 226.435C148.793 226.323 149.386 226.201 149.977 226.077ZM146.414 226.763L146.722 228.544C146.117 228.648 145.509 228.748 144.899 228.843L144.623 227.056C145.222 226.962 145.819 226.865 146.414 226.763ZM142.828 227.316L143.071 229.108C142.462 229.19 141.851 229.268 141.238 229.34L141.028 227.544C141.629 227.474 142.229 227.398 142.828 227.316ZM139.224 227.741L139.402 229.539C138.79 229.6 138.177 229.654 137.562 229.704L137.416 227.904C138.02 227.854 138.623 227.8 139.224 227.741ZM135.606 228.034L135.72 229.837C135.106 229.876 134.492 229.908 133.875 229.936L133.795 228.129C134.4 228.103 135.004 228.071 135.606 228.034ZM131.981 228.194L132.03 230.001C131.415 230.019 130.8 230.03 130.183 230.036L130.167 228.227C130.773 228.223 131.378 228.212 131.981 228.194ZM128.352 228.227L128.336 230.036C127.72 230.03 127.104 230.019 126.49 230.001L126.538 228.194C127.142 228.212 127.746 228.223 128.352 228.227ZM124.725 228.129L124.644 229.936C124.028 229.908 123.413 229.876 122.8 229.837L122.913 228.034C123.516 228.071 124.12 228.103 124.725 228.129ZM121.104 227.904L120.958 229.704C120.343 229.654 119.729 229.6 119.118 229.539L119.296 227.741C119.897 227.8 120.5 227.854 121.104 227.904ZM117.492 227.544L117.281 229.34C116.669 229.268 116.058 229.19 115.449 229.108L115.692 227.316C116.291 227.398 116.891 227.474 117.492 227.544ZM113.897 227.056L113.62 228.843C113.011 228.748 112.403 228.648 111.797 228.544L112.106 226.763C112.701 226.865 113.298 226.962 113.897 227.056ZM110.321 226.435L109.98 228.212C109.374 228.095 108.771 227.973 108.169 227.845L108.543 226.077C109.133 226.201 109.726 226.323 110.321 226.435ZM106.771 225.687L106.365 227.448C105.764 227.31 105.165 227.164 104.568 227.017L105.006 225.262C105.592 225.409 106.18 225.55 106.771 225.687ZM103.25 224.806L102.78 226.552C102.184 226.392 101.591 226.227 101 226.056L101.502 224.318C102.082 224.487 102.665 224.65 103.25 224.806ZM99.7636 223.8L99.23 225.526C98.6411 225.344 98.0543 225.158 97.47 224.965L98.035 223.247C98.6092 223.438 99.1853 223.62 99.7636 223.8ZM96.3168 222.665L95.7203 224.37C95.1386 224.169 94.559 223.958 93.982 223.746L94.6095 222.049C95.1763 222.26 95.7455 222.466 96.3168 222.665ZM92.9139 221.405L92.2554 223.088C91.6814 222.863 91.11 222.635 90.5411 222.399L91.2304 220.728C91.789 220.958 92.3501 221.184 92.9139 221.405ZM89.5591 220.021L88.8396 221.678C88.2741 221.433 87.7114 221.184 87.1514 220.928L87.9012 219.284C88.4513 219.535 89.0038 219.78 89.5591 220.021ZM86.257 218.516L85.4774 220.147C84.9215 219.88 84.3684 219.611 83.818 219.336L84.6271 217.72C85.1677 217.989 85.7108 218.255 86.257 218.516ZM83.0122 216.892L82.1736 218.494C81.6279 218.208 81.0849 217.917 80.5448 217.622L81.4125 216.035C81.9428 216.325 82.4762 216.611 83.0122 216.892ZM79.8286 215.15L78.9325 216.72C78.3974 216.415 77.8655 216.104 77.3364 215.789L78.2611 214.236C78.7807 214.545 79.303 214.85 79.8286 215.15ZM76.7102 213.294L75.7577 214.83C75.2341 214.505 74.7137 214.176 74.1968 213.843L75.1768 212.324C75.6849 212.652 76.1961 212.975 76.7102 213.294ZM73.6613 211.326L72.6537 212.827C72.1424 212.483 71.6342 212.135 71.1297 211.783L72.1643 210.301C72.66 210.647 73.1591 210.989 73.6613 211.326ZM70.6859 209.249L69.6245 210.712C69.126 210.35 68.6308 209.985 68.1393 209.614L69.2267 208.171C69.7097 208.534 70.1963 208.894 70.6859 209.249ZM67.7874 207.066L66.6738 208.49C66.1888 208.11 65.7072 207.727 65.2292 207.339L66.3682 205.935C66.8378 206.316 67.3109 206.693 67.7874 207.066ZM64.9695 204.779L63.8053 206.162C63.3342 205.765 62.867 205.365 62.403 204.96L63.5921 203.598C64.0474 203.996 64.5066 204.389 64.9695 204.779ZM62.236 202.392L61.0228 203.732C60.5662 203.319 60.1137 202.901 59.6649 202.48L60.902 201.162C61.3427 201.576 61.7876 201.986 62.236 202.392ZM59.5905 199.908L58.3298 201.204C57.8886 200.775 57.4511 200.341 57.0179 199.904L58.3018 198.631C58.7276 199.061 59.1571 199.487 59.5905 199.908ZM57.0361 197.331L55.7294 198.58C55.3041 198.135 54.8826 197.686 54.4652 197.233L55.7943 196.008C56.2042 196.453 56.6183 196.894 57.0361 197.331ZM54.5763 194.663L53.2256 195.864C52.8165 195.404 52.4115 194.94 52.0106 194.473L53.3828 193.296C53.7765 193.756 54.1744 194.211 54.5763 194.663ZM52.2143 191.908L50.8211 193.06C50.4289 192.585 50.0408 192.107 49.6571 191.626L51.071 190.499C51.4478 190.972 51.8291 191.442 52.2143 191.908ZM49.9532 189.07L48.5192 190.17C48.1444 189.682 47.7739 189.19 47.4079 188.695L48.8615 187.621C49.2209 188.107 49.5851 188.59 49.9532 189.07ZM47.7962 186.152L46.3234 187.2C45.9666 186.698 45.6141 186.193 45.2661 185.685L46.7576 184.664C47.0995 185.163 47.4457 185.659 47.7962 186.152ZM45.746 183.157L44.2362 184.151C43.8978 183.637 43.564 183.12 43.2345 182.599L44.762 181.633C45.0857 182.144 45.4134 182.652 45.746 183.157ZM43.8057 180.091L42.261 181.029C41.9413 180.503 41.6263 179.974 41.3161 179.442L42.8777 178.532C43.1825 179.055 43.4918 179.574 43.8057 180.091ZM41.9782 176.956L40.4001 177.838C40.0999 177.301 39.8045 176.76 39.5136 176.217L41.1072 175.364C41.3927 175.898 41.6832 176.428 41.9782 176.956ZM40.2656 173.757L38.6566 174.581C38.3763 174.033 38.1004 173.482 37.8297 172.929L39.4533 172.134C39.7192 172.678 39.9901 173.219 40.2656 173.757ZM38.6709 170.497L37.033 171.262C36.7727 170.704 36.5169 170.144 36.2666 169.581L37.9182 168.846C38.1642 169.399 38.4149 169.949 38.6709 170.497ZM37.1959 167.182L35.5313 167.886C35.2914 167.319 35.0564 166.75 34.8267 166.178L36.5041 165.504C36.7297 166.066 36.9603 166.625 37.1959 167.182ZM35.8432 163.814L34.1539 164.457C33.9348 163.882 33.7209 163.305 33.5122 162.725L35.213 162.113C35.418 162.682 35.628 163.25 35.8432 163.814ZM34.6144 160.4L32.9025 160.981C32.7049 160.398 32.5122 159.813 32.3248 159.226L34.0469 158.676C34.2311 159.253 34.42 159.828 34.6144 160.4ZM33.5114 156.943L31.7795 157.46C31.6034 156.871 31.4322 156.279 31.2665 155.686L33.0077 155.199C33.1704 155.783 33.3385 156.364 33.5114 156.943ZM32.5359 153.447L30.786 153.901C30.6316 153.306 30.4826 152.708 30.3383 152.109L32.096 151.687C32.2374 152.276 32.3841 152.863 32.5359 153.447ZM31.6888 149.919L29.9236 150.308C29.7911 149.708 29.664 149.105 29.5418 148.501L31.3138 148.143C31.4335 148.737 31.5585 149.329 31.6888 149.919ZM30.9715 146.362L29.1932 146.687C29.0826 146.082 28.9776 145.475 28.8776 144.866L30.6615 144.574C30.7596 145.172 30.8628 145.768 30.9715 146.362ZM30.3843 142.781L28.5957 143.041C28.5071 142.432 28.4241 141.822 28.3466 141.21L30.1399 140.983C30.216 141.584 30.2976 142.183 30.3843 142.781ZM29.9279 139.181L28.131 139.375C28.0646 138.764 28.0037 138.151 27.9486 137.537L29.7488 137.375C29.8032 137.978 29.8631 138.58 29.9279 139.181ZM29.6026 135.567L27.7994 135.696C27.7555 135.083 27.7169 134.469 27.6837 133.853L29.4887 133.756C29.5214 134.361 29.5592 134.964 29.6026 135.567ZM29.4076 131.943L27.6011 132.007C27.5792 131.393 27.5627 130.778 27.5516 130.161L29.359 130.129C29.3698 130.735 29.3861 131.34 29.4076 131.943Z" fill="#001DA5"/>
<path d="M129.26 225.082C182.704 225.082 226.028 181.759 226.028 128.315C226.028 74.8715 182.704 31.5469 129.26 31.5469C75.8166 31.5469 32.4922 74.8715 32.4922 128.315C32.4922 181.759 75.8166 225.082 129.26 225.082Z" stroke="#001DA5" stroke-width="1.83246" stroke-miterlimit="1.5" stroke-linejoin="round"/>
<path fill-rule="evenodd" clip-rule="evenodd" d="M204.444 56.2489L198.971 61.0774C186.158 47.6756 170.337 38.9767 151.125 33.9519L151.971 26.5898C172.268 32.2663 189.918 41.3066 204.444 56.2489Z" fill="#001DA5"/>
<path fill-rule="evenodd" clip-rule="evenodd" d="M140.909 232.423L140.41 225.142C158.843 223.135 175.374 215.879 191.056 203.695L196.382 208.847C179.523 221.495 161.607 229.996 140.909 232.423Z" fill="#001DA5"/>
<path fill-rule="evenodd" clip-rule="evenodd" d="M32.6582 168.095L39.5073 165.573C46.6051 182.702 58.2081 196.534 74.302 208.168L70.8505 214.725C53.9809 202.092 40.7955 187.279 32.6582 168.095Z" fill="#001DA5"/>
<path fill-rule="evenodd" clip-rule="evenodd" d="M95.4425 30.6219L97.2734 36.5719C92.5521 38.0452 85.0584 41.3507 81.1342 43.9613L78.4395 38.4211C80.9361 36.3472 92.6619 30.7432 95.4425 30.6219Z" fill="#001DA5"/>
<path fill-rule="evenodd" clip-rule="evenodd" d="M225.306 167.892L219.527 165.573C217.668 170.155 213.75 177.348 210.822 181.042L216.119 184.188C218.393 181.872 224.952 170.653 225.306 167.892Z" fill="#001DA5"/>
<path fill-rule="evenodd" clip-rule="evenodd" d="M39.2011 76.2318L45.5615 79.1077C40.9577 83.7759 32.4222 110.262 32.9981 116.485L26.3755 114.888C25.867 109.047 35.1928 78.4318 39.2011 76.2318Z" fill="#001DA5"/>
<path fill-rule="evenodd" clip-rule="evenodd" d="M233.324 124.212L226.416 125.204C227.791 118.793 220.758 91.8687 216.928 86.9293L223.372 84.7179C226.938 89.3714 235.524 120.203 233.324 124.212Z" fill="#001DA5"/>
<path d="M83.318 204.838C83.6712 204.296 84.0198 203.755 84.3636 203.214C84.7072 202.674 85.0421 202.14 85.3679 201.613L86.0069 200.579C84.8733 200.993 83.6289 201.417 82.2732 201.852C80.9179 202.287 80.2123 202.55 80.1565 202.64C80.1062 202.721 80.1203 202.809 80.1986 202.904C80.2767 202.999 80.4487 203.129 80.7146 203.293C80.7821 203.335 80.9174 203.416 81.1207 203.535C81.3239 203.655 81.491 203.755 81.6215 203.835C81.7838 203.936 82.146 204.15 82.7083 204.479C82.9679 204.633 83.1712 204.753 83.318 204.838ZM82.6744 205.803C82.0031 205.388 81.3003 204.944 80.5654 204.471C80.3791 204.35 80.2632 204.275 80.2181 204.247C79.8127 203.997 79.4676 203.797 79.1826 203.649C78.8975 203.501 78.6702 203.403 78.501 203.354C78.4579 203.122 78.4464 202.918 78.467 202.744C78.4876 202.57 78.5422 202.411 78.6314 202.267C78.8709 201.88 80.0029 201.378 82.0274 200.762C82.989 200.466 83.7573 200.225 84.3328 200.039C84.4534 199.995 84.6262 199.937 84.8516 199.865C86.6097 199.277 87.6598 199.089 88.0023 199.3C88.1374 199.384 88.2047 199.489 88.2038 199.616C88.2029 199.743 88.1246 199.933 87.9687 200.185C87.927 200.253 87.796 200.44 87.5756 200.746C86.5123 202.224 85.524 203.702 84.6104 205.179L84.4226 205.483C84.756 205.689 85.0596 205.847 85.3338 205.958C85.608 206.068 85.8527 206.131 86.0679 206.145C86.0483 206.308 86.0219 206.449 85.9887 206.568C85.9551 206.687 85.9121 206.79 85.859 206.876C85.7032 207.128 85.5108 207.258 85.2818 207.266C85.0527 207.274 84.7466 207.159 84.3638 206.922C84.2649 206.861 84.1022 206.751 83.8764 206.593C83.8432 206.566 83.8176 206.547 83.7996 206.536C83.5979 206.872 83.3655 207.266 83.1026 207.716C82.8395 208.167 82.6747 208.446 82.6079 208.554C82.4185 208.861 82.2452 209.048 82.0879 209.116C81.9309 209.183 81.7508 209.155 81.5485 209.029C81.4177 208.949 81.2869 208.831 81.1558 208.675C81.0248 208.519 80.8879 208.325 80.7446 208.094C81.0029 207.948 81.2897 207.688 81.6051 207.314C81.9209 206.939 82.2773 206.435 82.6744 205.803Z" fill="#001DA5" stroke="#001DA5" stroke-width="1.3748" stroke-miterlimit="2" stroke-linejoin="round"/>
<path d="M86.8636 209.585C86.9794 209.881 87.1436 210.138 87.3566 210.355C87.5697 210.572 87.8408 210.76 88.1701 210.919C89.0527 211.344 89.8995 211.45 90.7097 211.237C91.5201 211.025 92.1034 210.549 92.4593 209.809C92.7372 209.232 92.7652 208.691 92.5431 208.188C92.3212 207.684 91.8737 207.271 91.2008 206.947C90.8047 206.756 90.3661 206.599 89.8846 206.476C89.403 206.353 89.1408 206.282 89.0978 206.261C88.9642 206.197 88.88 206.115 88.8453 206.016C88.8108 205.917 88.8256 205.801 88.8898 205.667C88.9219 205.601 89.2837 205.124 89.9748 204.237C90.6661 203.35 91.3192 202.499 91.9346 201.685C92.3003 201.89 92.6257 202.068 92.9112 202.22C93.1964 202.372 93.4632 202.508 93.7111 202.627C94.4176 202.967 95.0081 203.218 95.4831 203.379C95.9579 203.54 96.3603 203.632 96.69 203.655C96.6996 203.819 96.6941 203.967 96.6738 204.101C96.6531 204.235 96.6189 204.353 96.5705 204.453C96.4236 204.758 96.205 204.911 95.9148 204.909C95.6248 204.907 95.0573 204.703 94.2126 204.297C93.9025 204.148 93.5821 203.989 93.2515 203.821C92.9209 203.653 92.5778 203.475 92.2218 203.286C92.0502 203.521 91.8238 203.826 91.5431 204.202C91.262 204.578 90.9336 205.011 90.5572 205.5C90.8854 205.587 91.1704 205.673 91.4121 205.757C91.6537 205.841 91.8604 205.924 92.0322 206.007C93.0055 206.475 93.6569 207.094 93.986 207.864C94.315 208.633 94.2764 209.441 93.8699 210.285C93.6424 210.758 93.342 211.165 92.9682 211.509C92.5945 211.852 92.1732 212.108 91.7043 212.276C90.9693 212.545 90.2279 212.657 89.4798 212.611C88.7319 212.566 87.9978 212.37 87.2773 212.023C86.7332 211.761 86.3447 211.481 86.1113 211.184C85.8784 210.887 85.825 210.607 85.9515 210.345C86.0087 210.225 86.1135 210.103 86.2656 209.976C86.4176 209.849 86.617 209.719 86.8636 209.585Z" fill="#001DA5" stroke="#001DA5" stroke-width="1.3748" stroke-miterlimit="2" stroke-linejoin="round"/>
<path d="M97.7508 209.584C97.6662 209.553 97.5484 209.513 97.397 209.465C97.2454 209.416 97.1471 209.384 97.1027 209.367C96.8994 209.291 96.7675 209.209 96.707 209.121C96.6465 209.034 96.6424 208.92 96.6942 208.781C96.7185 208.717 96.758 208.645 96.8129 208.567C96.8675 208.489 96.9404 208.404 97.0309 208.314C97.0706 208.329 97.1365 208.356 97.2287 208.396C97.3211 208.437 97.3946 208.467 97.4491 208.488C97.5781 208.536 97.7866 208.606 98.0749 208.697C98.1096 208.71 98.1378 208.717 98.1595 208.72C98.1801 208.665 98.213 208.585 98.259 208.477C98.3048 208.37 98.3371 208.291 98.3558 208.242C98.5007 207.855 98.6035 207.505 98.6647 207.191C98.7256 206.878 98.7458 206.59 98.7254 206.328C98.9777 206.303 99.198 206.295 99.3872 206.304C99.5763 206.313 99.7304 206.339 99.8492 206.384C100.053 206.46 100.177 206.579 100.221 206.739C100.265 206.9 100.233 207.125 100.126 207.412C100.079 207.536 99.911 207.917 99.621 208.555C99.515 208.792 99.4304 208.981 99.3664 209.121C99.669 209.189 99.9392 209.257 100.177 209.323C100.415 209.39 100.626 209.457 100.81 209.526C100.973 209.588 101.08 209.661 101.129 209.748C101.179 209.835 101.179 209.945 101.129 210.078C101.101 210.153 101.043 210.237 100.957 210.332C100.871 210.427 100.759 210.528 100.623 210.635C100.505 210.558 100.377 210.484 100.239 210.415C100.1 210.346 99.9299 210.274 99.7264 210.198C99.6917 210.185 99.5863 210.149 99.4098 210.092C99.2336 210.034 99.0824 209.985 98.9566 209.943C98.6221 210.7 98.351 211.325 98.1434 211.818C97.936 212.312 97.7727 212.717 97.6538 213.035C97.3953 213.724 97.2755 214.229 97.2938 214.55C97.3122 214.871 97.4651 215.085 97.7527 215.193C97.8321 215.222 97.9206 215.239 98.0187 215.241C98.1167 215.244 98.2222 215.23 98.3356 215.199C98.3432 215.315 98.3428 215.414 98.3349 215.496C98.3267 215.578 98.3117 215.648 98.2892 215.708C98.1983 215.951 98.023 216.112 97.7636 216.194C97.5044 216.275 97.2135 216.255 96.891 216.134C96.3556 215.933 96.0239 215.607 95.8964 215.154C95.7691 214.702 95.8428 214.109 96.1179 213.375C96.196 213.167 96.4274 212.625 96.8126 211.748C97.1977 210.872 97.5102 210.15 97.7508 209.584Z" fill="#001DA5" stroke="#001DA5" stroke-width="1.3748" stroke-miterlimit="2" stroke-linejoin="round"/>
<path d="M102.667 217.643C102.437 217.7 102.223 217.73 102.024 217.732C101.825 217.734 101.637 217.711 101.458 217.663C101.224 217.596 101.08 217.489 101.028 217.34C100.976 217.192 101.007 216.912 101.121 216.504C101.148 216.407 101.392 215.664 101.853 214.276C102.314 212.887 102.726 211.539 103.089 210.233C103.439 208.978 103.647 208.121 103.715 207.661C103.782 207.202 103.783 206.823 103.718 206.524C103.975 206.469 104.199 206.441 104.389 206.439C104.579 206.437 104.751 206.458 104.904 206.5C105.139 206.565 105.282 206.681 105.335 206.847C105.388 207.013 105.359 207.295 105.248 207.693C105.233 207.749 105.1 208.139 104.852 208.864C104.603 209.59 104.373 210.302 104.162 211.002C104.642 210.838 105.096 210.741 105.525 210.709C105.955 210.678 106.356 210.714 106.728 210.817C107.58 211.055 108.171 211.504 108.501 212.165C108.831 212.825 108.865 213.628 108.602 214.571C108.552 214.75 108.46 215.053 108.324 215.479C108.189 215.906 108.086 216.247 108.015 216.502C107.823 217.192 107.708 217.719 107.669 218.084C107.631 218.45 107.651 218.767 107.73 219.036C107.462 219.088 107.232 219.118 107.037 219.125C106.843 219.131 106.677 219.114 106.539 219.077C106.3 219.01 106.152 218.904 106.096 218.76C106.04 218.615 106.062 218.364 106.161 218.006C106.227 217.771 106.364 217.338 106.574 216.703C106.783 216.069 106.945 215.545 107.061 215.132C107.349 214.096 107.426 213.325 107.293 212.818C107.159 212.31 106.794 211.973 106.197 211.807C105.875 211.718 105.536 211.687 105.18 211.714C104.823 211.741 104.392 211.833 103.887 211.989C103.753 212.391 103.621 212.811 103.491 213.248C103.361 213.684 103.233 214.132 103.105 214.591C102.869 215.438 102.721 216.081 102.662 216.521C102.603 216.96 102.605 217.335 102.667 217.643Z" fill="#001DA5" stroke="#001DA5" stroke-width="1.3748" stroke-miterlimit="2" stroke-linejoin="round"/>
<path d="M130.582 222.021C129.645 221.036 128.356 219.518 126.713 217.468C125.071 215.417 123.842 213.933 123.025 213.015C122.963 215.005 122.929 217.108 122.923 219.323C122.925 219.91 122.923 220.268 122.919 220.396C122.901 220.919 122.834 221.26 122.718 221.418C122.601 221.576 122.392 221.65 122.09 221.639C121.894 221.633 121.692 221.591 121.482 221.516C121.273 221.44 121.065 221.331 120.857 221.192C121.16 220.715 121.384 220.021 121.531 219.112C121.679 218.203 121.791 216.595 121.869 214.287C121.906 213.203 121.864 212.43 121.744 211.97C121.625 211.511 121.399 211.185 121.066 210.994C121.308 210.726 121.521 210.536 121.705 210.423C121.889 210.31 122.071 210.257 122.251 210.263C122.421 210.268 122.585 210.328 122.746 210.442C122.906 210.556 123.101 210.755 123.33 211.038C123.37 211.087 123.464 211.207 123.612 211.397C125.558 213.879 127.745 216.568 130.175 219.464C130.218 218.676 130.253 217.98 130.281 217.377C130.31 216.773 130.331 216.258 130.345 215.829C130.393 214.421 130.373 213.346 130.287 212.604C130.201 211.862 130.038 211.264 129.799 210.811C130.042 210.692 130.26 210.605 130.456 210.551C130.651 210.497 130.833 210.472 131.002 210.478C131.304 210.488 131.509 210.584 131.617 210.765C131.725 210.946 131.769 211.331 131.749 211.918C131.737 212.267 131.678 213.125 131.571 214.491C131.464 215.857 131.393 217.054 131.358 218.08C131.336 218.748 131.331 219.372 131.343 219.956C131.355 220.539 131.382 221.086 131.423 221.596L130.582 222.021Z" fill="#001DA5" stroke="#001DA5" stroke-width="1.3748" stroke-miterlimit="2" stroke-linejoin="round"/>
<path d="M134.346 210.753C134.561 210.593 134.776 210.466 134.992 210.371C135.207 210.276 135.422 210.215 135.638 210.189C135.917 210.155 136.117 210.213 136.239 210.361C136.361 210.509 136.451 210.827 136.51 211.316C136.536 211.532 136.584 212.177 136.655 213.251C136.726 214.325 136.812 215.286 136.914 216.132C137.103 217.705 137.461 218.789 137.986 219.388C138.512 219.984 139.303 220.221 140.36 220.093C141.59 219.945 142.431 219.418 142.881 218.509C143.332 217.603 143.444 216.207 143.217 214.325C143.075 213.147 142.892 212.193 142.668 211.462C142.444 210.732 142.178 210.217 141.87 209.918C142.083 209.733 142.28 209.589 142.462 209.487C142.645 209.385 142.815 209.324 142.973 209.305C143.383 209.256 143.688 209.436 143.89 209.847C144.091 210.257 144.284 211.23 144.47 212.766C144.817 215.652 144.67 217.761 144.028 219.095C143.386 220.429 142.155 221.206 140.336 221.425C138.838 221.605 137.71 221.349 136.955 220.655C136.199 219.963 135.715 218.731 135.501 216.958C135.454 216.564 135.401 216.002 135.342 215.273C135.284 214.544 135.235 214.014 135.195 213.683C135.108 212.963 134.996 212.367 134.859 211.895C134.723 211.423 134.551 211.043 134.346 210.753Z" fill="#001DA5" stroke="#001DA5" stroke-width="1.3748" stroke-miterlimit="2" stroke-linejoin="round"/>
<path d="M153.917 218.123C153.707 218.325 153.501 218.49 153.298 218.614C153.095 218.737 152.896 218.824 152.702 218.876C152.44 218.943 152.238 218.92 152.095 218.8C151.952 218.681 151.828 218.423 151.723 218.024C151.655 217.761 151.475 216.959 151.182 215.615C150.889 214.271 150.603 213.066 150.325 212C150.254 211.729 150.097 211.157 149.853 210.285C149.737 209.861 149.647 209.526 149.583 209.28L148.998 209.432C148.245 209.629 147.645 209.821 147.199 210.008C146.752 210.196 146.422 210.394 146.209 210.603C146.032 210.409 145.894 210.238 145.796 210.091C145.697 209.944 145.632 209.81 145.6 209.687C145.54 209.456 145.577 209.273 145.711 209.136C145.845 209 146.11 208.881 146.504 208.778C146.709 208.724 147.302 208.594 148.282 208.387C149.263 208.181 150.138 207.978 150.906 207.777C151.834 207.535 152.563 207.306 153.096 207.091C153.628 206.875 154.016 206.651 154.262 206.417C154.407 206.554 154.522 206.684 154.606 206.808C154.69 206.931 154.748 207.051 154.778 207.169C154.851 207.446 154.801 207.676 154.63 207.86C154.459 208.045 154.159 208.193 153.728 208.305C153.569 208.346 153.182 208.433 152.564 208.564C151.948 208.696 151.456 208.803 151.089 208.887C151.287 209.794 151.481 210.646 151.669 211.443C151.858 212.24 152.04 212.972 152.213 213.638C152.546 214.915 152.848 215.907 153.117 216.615C153.387 217.323 153.653 217.826 153.917 218.123Z" fill="#001DA5" stroke="#001DA5" stroke-width="1.3748" stroke-miterlimit="2" stroke-linejoin="round"/>
<path d="M163.455 208.075C163.535 208.146 163.605 208.222 163.665 208.303C163.726 208.385 163.773 208.468 163.806 208.551C163.926 208.857 163.923 209.106 163.797 209.298C163.671 209.49 163.374 209.678 162.905 209.863C162.861 209.88 162.758 209.921 162.595 209.985C162.01 210.205 161.471 210.411 160.978 210.606C160.894 210.639 160.755 210.697 160.56 210.779C160.365 210.862 160.213 210.925 160.105 210.967C160.629 212.298 161.068 213.299 161.421 213.971C161.775 214.642 162.097 215.103 162.389 215.352C162.201 215.569 162.018 215.749 161.838 215.894C161.659 216.038 161.486 216.144 161.318 216.21C161.053 216.315 160.842 216.319 160.688 216.224C160.533 216.128 160.38 215.888 160.229 215.504C160.167 215.346 159.853 214.468 159.288 212.869C158.723 211.27 158.16 209.759 157.598 208.336C157.382 207.789 157.172 207.318 156.968 206.923C156.764 206.528 156.553 206.183 156.334 205.888C156.589 205.799 156.828 205.715 157.05 205.636C157.272 205.556 157.471 205.482 157.649 205.412C158.22 205.187 158.899 204.888 159.686 204.515C160.473 204.142 160.989 203.907 161.235 203.81C161.615 203.66 161.898 203.599 162.086 203.628C162.274 203.656 162.41 203.779 162.496 203.996C162.554 204.144 162.59 204.311 162.605 204.499C162.619 204.687 162.612 204.904 162.583 205.148C162.323 205.109 161.984 205.137 161.566 205.233C161.149 205.33 160.652 205.491 160.076 205.719C159.869 205.801 159.624 205.901 159.341 206.021C159.058 206.141 158.742 206.279 158.394 206.433L158.797 207.478C158.863 207.646 159.015 208.044 159.251 208.674C159.429 209.139 159.572 209.515 159.68 209.803C159.757 209.783 159.836 209.76 159.916 209.731C159.996 209.702 160.102 209.662 160.235 209.61C161.25 209.209 161.977 208.902 162.417 208.689C162.857 208.476 163.203 208.271 163.455 208.075Z" fill="#001DA5" stroke="#001DA5" stroke-width="1.3748" stroke-miterlimit="2" stroke-linejoin="round"/>
<path d="M170.71 201.091C170.402 201.109 170.058 201.184 169.675 201.317C169.293 201.449 168.83 201.659 168.287 201.945C168.062 202.063 167.649 202.29 167.047 202.624C166.899 202.708 166.786 202.771 166.706 202.813L168.285 205.949C168.417 205.892 168.555 205.825 168.7 205.749C168.846 205.672 169.075 205.551 169.389 205.386C170.013 205.058 170.519 204.773 170.91 204.532C171.301 204.29 171.575 204.092 171.733 203.937C171.858 204.038 171.961 204.132 172.042 204.218C172.123 204.304 172.185 204.387 172.227 204.467C172.345 204.692 172.358 204.892 172.264 205.066C172.171 205.241 171.958 205.416 171.625 205.591C171.517 205.648 171.249 205.784 170.82 205.997C170.391 206.211 170.022 206.4 169.712 206.562C169.478 206.686 169.298 206.782 169.173 206.851C169.048 206.92 168.933 206.985 168.827 207.047C169.106 207.576 169.397 208.143 169.7 208.746C170.002 209.35 170.33 210.014 170.681 210.739C170.728 210.714 170.799 210.679 170.896 210.635C171.517 210.326 171.959 210.102 172.221 209.964C172.723 209.7 173.135 209.445 173.458 209.201C173.781 208.956 174.046 208.695 174.253 208.418C174.45 208.542 174.606 208.659 174.721 208.769C174.836 208.879 174.923 208.99 174.982 209.103C175.113 209.351 175.123 209.569 175.012 209.756C174.901 209.943 174.616 210.157 174.156 210.399C173.931 210.518 173.59 210.688 173.133 210.911C172.676 211.134 172.337 211.303 172.117 211.419C171.62 211.681 171.13 211.954 170.645 212.239C170.544 212.298 170.482 212.333 170.459 212.346C170.295 212.432 170.159 212.456 170.052 212.417C169.944 212.377 169.842 212.264 169.743 212.076C169.691 211.978 169.571 211.721 169.382 211.306C168.692 209.814 168.013 208.433 167.344 207.163C166.681 205.902 166.127 204.904 165.683 204.169C165.239 203.433 164.87 202.9 164.576 202.57L165.469 202.1C166.565 201.522 167.674 200.894 168.794 200.214C169.035 200.069 169.181 199.983 169.233 199.956C169.612 199.756 169.895 199.662 170.08 199.672C170.265 199.682 170.414 199.795 170.527 200.011C170.592 200.133 170.639 200.283 170.67 200.461C170.701 200.639 170.714 200.849 170.71 201.091Z" fill="#001DA5" stroke="#001DA5" stroke-width="1.3748" stroke-miterlimit="2" stroke-linejoin="round"/>
<path d="M177.397 206.467C177.655 206.444 177.897 206.392 178.127 206.311C178.356 206.231 178.581 206.118 178.802 205.973C179.329 205.627 179.667 205.236 179.815 204.801C179.963 204.365 179.903 203.943 179.636 203.536C179.316 203.049 178.55 202.744 177.336 202.622C177.329 202.62 177.325 202.619 177.325 202.619C177.306 202.619 177.276 202.617 177.235 202.612C175.487 202.448 174.382 202.013 173.92 201.309C173.708 200.986 173.57 200.621 173.505 200.213C173.441 199.806 173.454 199.386 173.543 198.953C173.685 198.31 173.915 197.739 174.235 197.241C174.554 196.743 174.953 196.338 175.432 196.024C175.777 195.797 176.074 195.685 176.322 195.687C176.57 195.689 176.77 195.805 176.921 196.035C176.973 196.115 177.014 196.239 177.042 196.407C177.07 196.576 177.086 196.785 177.092 197.035C176.873 197.077 176.661 197.138 176.457 197.218C176.253 197.298 176.058 197.399 175.872 197.521C175.305 197.893 174.945 198.311 174.791 198.777C174.637 199.242 174.705 199.696 174.995 200.139C175.169 200.404 175.393 200.603 175.666 200.734C175.939 200.865 176.353 200.964 176.909 201.03C176.992 201.039 177.111 201.053 177.268 201.07C179.135 201.29 180.298 201.75 180.757 202.449C180.931 202.715 181.055 203.007 181.128 203.327C181.201 203.646 181.224 203.992 181.196 204.365C181.143 204.989 180.949 205.57 180.616 206.109C180.282 206.648 179.836 207.1 179.278 207.466C178.901 207.713 178.574 207.834 178.296 207.83C178.017 207.826 177.796 207.697 177.63 207.445C177.554 207.329 177.497 207.191 177.458 207.03C177.419 206.869 177.399 206.681 177.397 206.467Z" fill="#001DA5" stroke="#001DA5" stroke-width="1.3748" stroke-miterlimit="2" stroke-linejoin="round"/>
</g>
</g>
</svg>
